<?xml version="1.0" encoding="utf-8"?>
<!-- Generator: Adobe Illustrator 25.4.1, SVG Export Plug-In . SVG Version: 6.00 Build 0)  -->
<svg version="1.1" id="Capa_1" xmlns="http://www.w3.org/2000/svg" xmlns:xlink="http://www.w3.org/1999/xlink" x="0px" y="0px"
	 viewBox="0 0 1094.48 676.68" style="enable-background:new 0 0 1094.48 676.68;" xml:space="preserve">
<style type="text/css">
	.st0{fill:#003398;}
	.st1{fill:#FFFFFF;}
	.st2{fill:#DDB1E4;}
	.st3{fill:#ACD36C;}
</style>
<g>
	<path class="st0" d="M1075.11,428.08c0.37-0.01,0.75,0.04,1.13,0.16c1.79,0.56,2.78,2.47,2.22,4.25
		c-17.15,54.61-63.14,80.53-100.45,86.57c-6.31,1.02-12.28,1.46-17.73,1.33c0.74,19.75-4.51,43.09-20.95,57.74
		c-15.16,13.51-37.43,13.74-64.39,0.67c-19.77-9.58-34.99-22.76-35.63-23.31c-1.41-1.23-1.56-3.37-0.33-4.79
		c1.23-1.41,3.37-1.56,4.79-0.33c0.59,0.51,59.32,50.97,91.05,22.69c9.7-8.64,20.05-29.5,18.93-53.11
		c-10.3-1.19-18.15-4.67-22.12-10.17c-2.53-3.51-4.64-9.45-0.27-17.84c4.17-8.01,8.77-9.39,11.89-9.16
		c5.34,0.42,10.05,5.87,13.24,15.36c1.5,4.44,2.64,9.7,3.27,15.42c5.24,0.17,11.05-0.22,17.15-1.21
		c35.31-5.72,78.83-30.24,95.06-81.91C1072.43,429.05,1073.71,428.13,1075.11,428.08z M953.1,513.02c-0.6-4.2-1.59-8.45-3.02-12.71
		c-2.42-7.19-5.51-10.62-7.34-10.76c-1.17-0.09-3.15,1.32-5.35,5.53c-2.26,4.33-2.34,7.84-0.25,10.73
		C939.79,509.5,945.51,511.96,953.1,513.02z"/>
</g>
<g>
	<g id="XMLID_00000132061581906782500570000001294658422805157788_">
		<g>
			<g>
				<path class="st1" d="M275.03,111.17l5.19,5.52c12.58-1.56,6.68-14.71,6.68-14.71c19.24-27.23,43.75-32.42,43.75-32.42L309,44.66
					L201.55,120.1l-0.09-0.02c-2.2,9.1,12.44,10.95,24.06,10.2c15.03-0.97,33.23-9.47,42.83-14.82
					C272.49,113.16,275.03,111.45,275.03,111.17z"/>
			</g>
			<g>
				<path class="st1" d="M201.46,120.08l0.09,0.02L309,44.66l-3.96-4.57c0,0-56,40.72-77.92,55.28
					C209.94,106.79,202.76,114.7,201.46,120.08z"/>
			</g>
			<g>
				<path class="st1" d="M262.45,291.48l-6.01,0.67c0,0,1.72,69.22,1.26,95.53c-0.36,20.6,2.07,31.02,5.76,35.15l0.07-0.06
					L262.45,291.48z"/>
			</g>
			<g>
				<path class="st1" d="M262.45,291.48l1.09,131.29l-0.07,0.06c6.24,7,16.09-4.02,22.06-14.01c11.14-18.61,13.16-51.48,12.38-51.61
					l7.5-1.14c5.85-11.25-8.32-13.83-8.32-13.83c-11.49-31.31-1.84-54.43-1.84-54.43L262.45,291.48z"/>
			</g>
			<g>
				<path class="st2" d="M567.12,87.46c-9.97-0.7-23.17-0.49-33.96,3.65c-3.35,1.28-6.45,2.93-9.17,5.05
					c-19.16,14.97-39.76,41.6-39.76,41.6c-25.25,7.95-60.79,17.63-73.4,9.9c-18.56-11.38-64.67-74.85-64.67-74.85
					c-3.11,1.42-6.06,2.89-8.86,4.41c-31.03,16.81-43.97,38.93-48.43,48.68c-1.42,3.13-1.98,4.98-1.98,4.98s46.44,57.54,58.97,73.55
					c12.11,15.49,24.85,42.01,64.97,38.95c4.8-0.37,10.71-1.1,17.38-2.09c36.65-5.49,96.46-19.15,124.32-25.7
					c9.42-2.22,15.19-3.62,15.19-3.62c-12.55-73.66,2.73-107.91,14.38-122.6C581.78,89.32,575.63,88.06,567.12,87.46z"/>
			</g>
			<g>
				<path class="st2" d="M317.59,354.24c1.89,5.02,3.24,8.07,3.24,8.07s128.47-9.48,159.53-26.33s72.34-119.62,72.34-119.62
					l-0.17-0.75c-27.87,6.55-87.68,20.21-124.32,25.7v0.03l-22.6,31.46c-17.9-5.27-94.77,2.63-94.77,2.63
					c-2.03,3.4-3.39,7.29-4.23,11.5C302.17,308.99,312.14,339.8,317.59,354.24z"/>
			</g>
			<g>
				<path class="st0" d="M742.85,153.04c9.01,8.18,16.33,7.32,16.65,7.28c0.01,0,0.01,0,0.01,0c2.35-2.83,5.92-4.63,9.89-4.63
					c0.14-0.52,0.82-2.49,1.81-5.25c0,0-106.54-63.66-178.28-70.88c0,0-4.95,2.44-10.83,9.83c-11.65,14.69-26.94,48.94-14.38,122.6
					c0.18,1.13,0.39,2.25,0.59,3.4c0,0,96,13.81,117.65,28.24c3.79,12.65,6.1,24.75,6.1,24.75c9.97-6.97,40.2-11.06,58.03-12.94
					c8.04-0.84,13.56-1.24,13.56-1.24c-1.21-14-4.06-26.03-7.68-36.22c-11.26-31.67-29.94-45.61-29.94-45.61
					C726.03,163.76,733.1,155.44,742.85,153.04z"/>
			</g>
			<g>
				<path class="st0" d="M750.09,255.45c0.14,1.23,0.37,3.08,0.64,5.38l0.46-0.05c7.19-1.34,12.46-6.57,12.46-6.57
					S758.13,254.61,750.09,255.45z"/>
			</g>
			<g>
				<path class="st0" d="M751.19,260.78l-0.46,0.05c0.14,1.19,0.29,2.5,0.47,3.91l8.65,11.04c8.75-11.46,29.56-21.49,43.58-27.28
					c7.84-3.25,13.55-5.16,13.86-5.26c0.01-0.01,0.01-0.01,0.01-0.01l-5.78-11.11c-12.93-2.64-24.15-7.44-35.21-16.48l-0.44,0.53
					c0,0-9.35,2.93-19.35,1.63l-0.55,0.19c3.62,10.19,6.48,22.23,7.68,36.22C763.65,254.21,758.37,259.44,751.19,260.78z"/>
			</g>
			<g>
				<path class="st1" d="M771.21,150.44c-0.98,2.76-1.66,4.73-1.81,5.25c6.38,0,11.68,4.65,12.71,10.74
					c2.2-3.72,20.21-36.24,20.21-36.24s38.55,17.11,62.19,23c3.57,0.89,6.8,1.52,9.51,1.81c20.65,2.14,27.36-12.55,14.88-20.5
					c-7.9-5.03-26.85-9.44-34.31-9.15c0,0,18.43-5.41,16.33-13.76c-2.56-10.12-19.21-4.96-31.7-2.49
					c-12.48,2.49-46.21,7.86-46.21,7.86s-2.49-6.61-7.45-7.02c-4.95-0.42-7.78,4.55-3.27,9.93
					C782.29,119.84,774.77,140.4,771.21,150.44z"/>
			</g>
			<g>
				<path class="st0" d="M803.42,248.5c0,0,1.16,1.49,3,3.79l0.01-0.01c8.41-4.37,10.72-8.76,10.85-9.03
					C816.97,243.34,811.26,245.25,803.42,248.5z"/>
			</g>
		</g>
		<g>
			<g>
				<path class="st0" d="M817.84,234.33c13.55,0,19.79-10.4,24.59-25.87c5.52-17.77,22.82-52.45,23-52.8
					c0.38-0.75,0.07-1.67-0.68-2.04c-0.75-0.37-1.67-0.07-2.04,0.68c-0.18,0.35-17.59,35.25-23.18,53.26
					c-5.31,17.11-11.54,26.37-27.7,23.06c-13.62-2.78-24.28-7.77-34.55-16.17c-3.34-2.73-6.69-5.89-9.96-9.39
					c-0.58-0.61-1.54-0.65-2.15-0.07c-0.61,0.57-0.65,1.54-0.07,2.15c3.36,3.6,6.81,6.85,10.26,9.67
					c10.67,8.73,21.73,13.91,35.87,16.8C813.59,234.1,815.8,234.33,817.84,234.33z"/>
			</g>
			<g>
				<path class="st0" d="M782.11,167.95c0.52,0,1.03-0.27,1.31-0.75c1.97-3.34,16.22-29.05,19.56-35.07
					c6.89,3.01,40.08,17.28,61.17,22.52c3.76,0.94,7.03,1.56,9.72,1.84c13.59,1.41,20.5-4.09,22.29-9.23
					c1.75-5.04-0.71-10.43-6.44-14.07c-6.09-3.88-18.97-7.56-28.23-8.88c0.91-0.42,1.85-0.89,2.79-1.4
					c8.03-4.43,8.85-8.82,8.12-11.72c-2.59-10.26-16.4-7.27-28.58-4.64c-1.67,0.36-3.32,0.72-4.89,1.03
					c-11.01,2.19-38.98,6.7-45,7.66c-1.05-2.13-3.73-6.48-8.24-6.85c-2.86-0.24-5.34,1.01-6.5,3.25c-1.27,2.46-0.75,5.57,1.38,8.47
					c-1.42,3.89-7.67,21-10.8,29.82c-0.73,2.06-1.65,4.66-1.84,5.35c-0.22,0.81,0.25,1.65,1.07,1.87c0.81,0.22,1.65-0.26,1.87-1.07
					c0.05-0.17,0.31-1.05,1.77-5.14c3.52-9.92,11-30.38,11.08-30.59c0.19-0.51,0.09-1.08-0.26-1.5c-1.77-2.11-2.36-4.28-1.57-5.81
					c0.6-1.15,1.93-1.75,3.54-1.62c3.9,0.33,6.13,5.99,6.15,6.04c0.25,0.68,0.95,1.08,1.66,0.97c0.34-0.05,33.9-5.4,46.27-7.87
					c1.59-0.32,3.25-0.67,4.94-1.04c13.09-2.83,23.25-4.46,24.98,2.41c1.43,5.68-10.55,10.54-15.28,11.93
					c-0.74,0.22-1.2,0.95-1.07,1.71c0.12,0.76,0.83,1.31,1.56,1.28c6.92-0.25,25.66,3.96,33.44,8.92c4.54,2.89,6.48,6.82,5.2,10.5
					c-1.54,4.41-8.04,8.35-19.1,7.2c-2.54-0.27-5.67-0.86-9.3-1.77c-23.25-5.79-61.56-22.74-61.95-22.91
					c-0.72-0.32-1.57-0.03-1.95,0.65c-0.18,0.33-18.02,32.54-20.18,36.2c-0.43,0.72-0.19,1.66,0.54,2.09
					C781.58,167.88,781.84,167.95,782.11,167.95z"/>
			</g>
			<g>
				<path class="st0" d="M822.02,204.47c2.45,0,4.68-0.57,6.31-1.68c1.57-1.07,2.49-2.56,2.67-4.31c0.14-1.34-0.52-2.81-1.28-4.5
					c-1.02-2.27-2.17-4.84-1.63-7.4c0.76-3.64,3.21-8.56,4.67-11.5c0.45-0.92,0.81-1.64,1.01-2.11c0.33-0.77-0.03-1.67-0.8-2
					c-0.78-0.33-1.67,0.03-2,0.8c-0.17,0.41-0.51,1.09-0.94,1.94c-1.52,3.07-4.07,8.21-4.92,12.23c-0.74,3.53,0.75,6.85,1.83,9.27
					c0.51,1.13,1.08,2.41,1.02,2.94c-0.09,0.84-0.54,1.55-1.36,2.11c-1.88,1.28-5.19,1.52-8.45,0.61c-0.81-0.23-1.65,0.25-1.88,1.06
					c-0.23,0.81,0.25,1.65,1.06,1.88C818.92,204.26,820.51,204.47,822.02,204.47z"/>
			</g>
			<g>
				<path class="st0" d="M811.51,172.92c0.55,0,1.08-0.3,1.35-0.81c0.05-0.1,1.32-2.52,3.09-6.74c0.33-0.78-0.04-1.67-0.81-1.99
					c-0.78-0.32-1.67,0.04-1.99,0.81c-1.72,4.08-2.97,6.48-2.98,6.5c-0.39,0.74-0.1,1.66,0.64,2.06
					C811.03,172.86,811.27,172.92,811.51,172.92z"/>
			</g>
			<g>
				<path class="st0" d="M839.4,188.06c0.55,0,1.08-0.3,1.35-0.81c0.05-0.1,1.32-2.52,3.08-6.74c0.32-0.78-0.04-1.67-0.82-1.99
					c-0.78-0.33-1.67,0.04-1.99,0.82c-1.7,4.08-2.96,6.47-2.97,6.5c-0.39,0.74-0.1,1.66,0.64,2.06
					C838.92,188,839.16,188.06,839.4,188.06z"/>
			</g>
			<g>
				<path class="st0" d="M691.48,269.8c-0.48-0.19-0.83-0.62-0.92-1.12c-0.02-0.12-2.34-12.18-6.06-24.6
					c-4.46-14.9-9.19-24.33-13.32-26.57c-0.74-0.4-1.01-1.33-0.61-2.06c0.4-0.74,1.33-1.01,2.06-0.61
					c4.98,2.7,9.96,12.25,14.79,28.38c2.83,9.45,4.86,18.68,5.7,22.75c11.1-6.12,36.68-9.89,56.81-12.01
					c5.5-0.58,9.87-0.95,12.06-1.12c-1.16-12.12-3.67-23.65-7.46-34.31c-5.72-16.1-13.41-27.45-18.86-34.13
					c-5.9-7.25-10.51-10.73-10.56-10.77c-0.38-0.29-0.61-0.74-0.61-1.22c0-9.34,7.73-18.29,17.98-20.82
					c1.07-0.26,2.15-0.46,3.21-0.57c0.84-0.09,1.59,0.51,1.68,1.35c0.09,0.84-0.51,1.59-1.35,1.68c-0.93,0.1-1.88,0.27-2.81,0.5
					c-8.66,2.14-15.26,9.42-15.65,17.14c3.44,2.78,19.58,16.97,29.83,45.83c4.04,11.35,6.65,23.66,7.77,36.6
					c0.04,0.41-0.09,0.81-0.36,1.12c-0.26,0.31-0.64,0.5-1.05,0.53c-0.06,0-5.59,0.4-13.51,1.23c-17.24,1.81-47.6,5.87-57.32,12.67
					c-0.26,0.18-0.56,0.28-0.87,0.28C691.86,269.91,691.67,269.88,691.48,269.8z M726.02,172.38L726.02,172.38L726.02,172.38z"/>
			</g>
			<g>
				<path class="st0" d="M840.95,419.91c0.37,0,0.74-0.13,1.04-0.41c5.71-5.32,5.7-8.72,4.68-10.64c-1.43-2.71-5.62-3.72-10.67-2.58
					c-6.17,1.39-15.19,2.04-17.95,2.21c-5.29-7.52-51.64-73.56-55.57-84.29c-2.45-6.69-5.83-27.32-9.77-59.66
					c-0.12-0.97-0.23-1.89-0.33-2.76l-0.42-3.56c-0.14-1.2-0.26-2.2-0.35-2.96c-0.1-0.84-0.85-1.44-1.69-1.34
					c-0.84,0.1-1.43,0.85-1.34,1.69c0.09,0.76,0.21,1.77,0.35,2.97l0.42,3.56c0.1,0.87,0.21,1.79,0.33,2.77
					c4.03,33.04,7.37,53.34,9.94,60.34c4.28,11.7,54.3,82.67,56.43,85.69c0.3,0.43,0.78,0.66,1.32,0.64
					c0.47-0.02,11.72-0.62,19.3-2.33c3.92-0.89,6.7-0.13,7.31,1.03c0.55,1.04-0.23,3.42-4.07,6.99c-0.62,0.57-0.65,1.54-0.08,2.15
					C840.14,419.75,840.55,419.91,840.95,419.91z"/>
			</g>
			<g>
				<path class="st0" d="M820.97,479.54c1.33,0,2.53-0.34,3.53-1.02c1.45-0.99,3.6-3.55,1.78-9.52c-2.25-7.36-6.97-15.95-8.83-19.19
					l2.04-1.23c3.17,5.46,14.09,22.98,23.42,22.98c0.05,0,0.09,0,0.14,0c3.68-0.07,6.12-1.24,7.26-3.47
					c2.14-4.18-1.24-10.57-4.44-15.19c-3.35-4.84-7.89-11.61-9.79-14.45l3.27-1.92c1.57,2.06,5.19,6.68,9.39,11.19
					c7.89,8.48,13.76,12.37,17.94,11.94c4.41-0.46,7.15-1.96,8.16-4.44c1.97-4.84-3.5-11.44-7.13-15.8
					c-0.36-0.43-0.69-0.84-0.99-1.2c-0.5-0.62-1.08-1.35-1.71-2.14c-4.88-6.17-12.26-15.5-18.46-17.56
					c-1.49-0.5-3.24-1.03-5.19-1.57c-5.85-1.64-12.16-3.09-12.22-3.1c-0.82-0.18-1.64,0.33-1.82,1.15
					c-0.19,0.82,0.33,1.64,1.14,1.82c0.06,0.01,6.31,1.44,12.09,3.07c1.9,0.52,3.6,1.04,5.04,1.52
					c5.34,1.78,12.66,11.04,17.04,16.57c0.64,0.81,1.22,1.54,1.73,2.17c0.3,0.37,0.65,0.79,1.01,1.23
					c2.77,3.34,7.93,9.56,6.65,12.71c-0.69,1.69-3.46,2.33-5.66,2.56c-5.7,0.62-18.62-13.79-25.39-23c-0.46-0.63-1.33-0.8-2-0.41
					l-5.83,3.43c-0.36,0.21-0.62,0.56-0.71,0.97c-0.09,0.41-0.01,0.84,0.22,1.18c0.06,0.1,6.38,9.57,10.71,15.83
					c3.69,5.33,5.32,9.95,4.24,12.07c-0.59,1.15-2.14,1.76-4.61,1.81c-0.03,0-0.06,0-0.09,0c-7.31,0-18.01-16.42-21.53-22.78
					c-0.2-0.36-0.54-0.63-0.94-0.73c-0.4-0.11-0.83-0.05-1.18,0.17l-4.66,2.81c-0.72,0.43-0.95,1.37-0.52,2.09
					c0.07,0.11,6.63,11.1,9.3,19.83c0.92,3,0.7,5.23-0.59,6.12c-1.35,0.93-4.48,0.62-8.14-2.26c-6.7-5.26-17.19-23.41-17.3-23.6
					c-0.23-0.4-0.63-0.67-1.08-0.74c-15.98-2.5-23.16-8.81-27.64-14.02c-5.29-6.17-55.57-74.92-62.22-91.91
					c-6.69-17.08-12.77-74.66-12.83-75.24c-0.09-0.84-0.85-1.45-1.67-1.36c-0.84,0.09-1.44,0.84-1.36,1.67
					c0.25,2.38,6.19,58.58,13.03,76.04c6.94,17.76,57.34,86.49,62.74,92.78c4.75,5.53,12.3,12.2,28.76,14.93
					c1.97,3.36,11.19,18.73,17.69,23.84C815.61,478.37,818.51,479.54,820.97,479.54z"/>
			</g>
			<g>
				<path class="st0" d="M911.45,315.53c0.27,0,0.54-0.07,0.78-0.21c0.23-0.14,23.69-13.97,38.51-15.92
					c19.33-2.55,24.19-0.79,24.86,1.14c0.58,1.66,0.16,2.57-0.2,3.1c-1.73,2.55-7.47,3.32-9.54,3.4c-0.84,0.03-1.49,0.74-1.46,1.58
					s0.73,1.48,1.58,1.46c0.92-0.03,9.03-0.46,11.94-4.72c0.78-1.15,1.52-3.09,0.56-5.82c-1.62-4.66-9.77-5.58-28.14-3.16
					c-14.17,1.86-34.9,13.55-38.99,15.92c-7.83-3.49-77.16-34.51-85.33-41.19c-6.06-4.96-14.14-14.52-18.42-19.79
					c-1.83-2.27-2.98-3.75-2.98-3.76c-0.51-0.67-1.47-0.78-2.14-0.27c-0.66,0.52-0.78,1.47-0.27,2.14c0,0,1.16,1.5,3.02,3.81
					c4.35,5.36,12.59,15.1,18.86,20.23c8.93,7.3,83.56,40.52,86.73,41.94C911.03,315.49,911.24,315.53,911.45,315.53z"/>
			</g>
			<g>
				<path class="st0" d="M973.47,324c4.64,0,8.65-0.87,10.26-3.47c0.89-1.44,1-2.99,0.34-4.49c-2.41-5.47-14.31-8.14-17.9-8.83
					c-8.05-1.55-16.11-1.64-22.12-0.27c-0.82,0.19-1.33,1-1.14,1.82c0.19,0.82,1,1.33,1.82,1.15c5.53-1.26,13.33-1.15,20.87,0.29
					c8.08,1.55,14.53,4.45,15.68,7.07c0.25,0.57,0.21,1.09-0.15,1.66c-1.39,2.25-8.31,2.65-17.63,1.01
					c-1.24-0.22-2.19-0.41-2.69-0.52l-0.4,1.47l-0.22,1.51c0.52,0.11,1.51,0.32,2.79,0.54C966.33,323.54,970.07,324,973.47,324z"/>
			</g>
			<g>
				<path class="st0" d="M960.19,322.38c0.69,0,1.33-0.45,1.51-1.14c0.21-0.82-0.25-1.63-1.06-1.84c-0.21-0.05-0.31-0.07-0.31-0.07
					c-0.83-0.11-1.61,0.45-1.74,1.27c-0.13,0.82,0.41,1.58,1.22,1.73C959.94,322.36,960.07,322.38,960.19,322.38z"/>
			</g>
			<g>
				<path class="st0" d="M906.12,361.1c11.5,0,30.82-3.03,37.31-7.69c1.74-1.25,2.64-2.64,2.68-4.14c0.07-2.66-0.89-4.84-2.83-6.48
					c-2.54-2.14-6.55-3.02-10.65-3.27c6.49-1.77,13.62-3.57,17.61-4.11c3.29-0.44,7.92,0.65,12.4,1.71
					c7.43,1.76,14.44,3.41,17.87-0.77c2.14-2.6,1.98-4.89,1.47-6.34c-1.98-5.7-12.39-8.75-18.42-10.05c-0.97-0.2-1.93-0.4-2.9-0.56
					l-0.11-0.02c-7.84-1.38-15.37-1.53-19.67-0.38c-0.81,0.22-1.3,1.05-1.08,1.86c0.22,0.81,1.05,1.3,1.86,1.08
					c3.84-1.02,11.04-0.85,18.33,0.43c0.01,0,0.14,0.03,0.15,0.03c0.94,0.16,1.86,0.35,2.78,0.54c8.92,1.94,15.12,5.03,16.18,8.08
					c0.14,0.39,0.55,1.58-0.95,3.41c-2.22,2.71-8.63,1.2-14.82-0.27c-4.75-1.12-9.67-2.28-13.51-1.77
					c-8.79,1.19-31.28,7.98-32.23,8.27c-0.78,0.24-1.23,1.04-1.04,1.83c0.2,0.79,0.98,1.28,1.78,1.12
					c4.75-0.95,18.15-2.55,22.97,1.51c1.22,1.03,1.79,2.36,1.75,4.07c-0.01,0.48-0.53,1.11-1.41,1.75
					c-7.33,5.27-35.41,8.55-41.87,6.55c-13.48-4.15-87.52-35.13-100.76-44.71c-3.03-2.19-5.55-3.73-7.77-5.08
					c-7.85-4.8-13.04-7.97-30.15-32.78c-0.48-0.69-1.43-0.87-2.12-0.39c-0.69,0.48-0.87,1.43-0.39,2.12
					c17.48,25.34,22.88,28.65,31.07,33.65c2.28,1.39,4.64,2.84,7.58,4.95c13.85,10.02,87.77,40.88,101.65,45.15
					C900.43,360.87,902.99,361.1,906.12,361.1z"/>
			</g>
			<g>
				<path class="st0" d="M759.84,277.3C759.85,277.3,759.85,277.3,759.84,277.3c0.48,0,0.92-0.22,1.21-0.6
					c8.77-11.49,30.68-21.72,42.95-26.8c7.94-3.29,13.7-5.2,13.75-5.22c0.8-0.26,1.24-1.12,0.98-1.92c-0.26-0.8-1.11-1.24-1.92-0.98
					c-0.05,0.02-5.8,1.91-13.98,5.3c-14.66,6.06-33.68,15.43-42.97,26.25l-7.45-9.51c-0.43-0.58-1.22-0.79-1.89-0.47
					c-0.76,0.37-1.07,1.27-0.71,2.03c0.05,0.1,0.11,0.21,0.18,0.29l8.65,11.04C758.93,277.09,759.37,277.3,759.84,277.3z"/>
			</g>
			<g>
				<path class="st0" d="M817.3,244.75c0.24,0,0.48-0.06,0.7-0.17c0.75-0.39,1.04-1.31,0.65-2.05l-5.79-11.11
					c-0.39-0.75-1.31-1.03-2.05-0.65c-0.75,0.39-1.04,1.31-0.65,2.05l5.79,11.11C816.22,244.45,816.75,244.75,817.3,244.75z"/>
			</g>
			<g>
				<path class="st0" d="M685.96,245.16c0.49,0,0.97-0.24,1.27-0.68c0.47-0.7,0.28-1.64-0.42-2.11
					c-20.69-13.79-105.96-26.68-117.18-28.33c-0.14-0.77-0.27-1.53-0.39-2.3c-5.43-31.88-10.83-90.03,14.07-121.41
					c4.67-5.88,8.75-8.52,9.95-9.22c36.76,3.82,82.83,22.73,115.07,37.96c35.13,16.59,61.84,32.51,62.11,32.66
					c0.72,0.43,1.66,0.2,2.09-0.53c0.43-0.72,0.2-1.66-0.53-2.09c-0.27-0.16-27.11-16.15-62.37-32.8
					c-32.59-15.4-79.27-34.54-116.54-38.28c-0.28-0.03-0.57,0.02-0.82,0.15c-0.22,0.11-5.33,2.67-11.35,10.25
					c-5.41,6.82-12.68,19.27-16.57,39.85c-4.34,22.93-3.7,51.18,1.88,83.95c0.15,0.91,0.31,1.84,0.48,2.77l0.11,0.64
					c0.11,0.65,0.63,1.15,1.28,1.24c0.96,0.14,95.9,13.93,117.02,28C685.37,245.08,685.67,245.16,685.96,245.16z"/>
			</g>
			<g>
				<path class="st0" d="M484.23,139.3c0.45,0,0.9-0.2,1.21-0.59c0.21-0.27,20.71-26.66,39.5-41.33c2.47-1.92,5.42-3.55,8.78-4.83
					c10.73-4.12,24.04-4.21,33.31-3.56c8.62,0.61,14.7,1.88,14.76,1.9c0.93,0.2,1.85-0.54,1.85-1.49c0-0.76-0.56-1.4-1.29-1.51
					c-0.8-0.16-6.85-1.36-15.11-1.94c-9.58-0.67-23.36-0.57-34.61,3.75c-3.64,1.39-6.86,3.17-9.57,5.27
					c-19.09,14.92-39.82,41.6-40.03,41.87c-0.51,0.67-0.39,1.62,0.27,2.14C483.57,139.19,483.9,139.3,484.23,139.3z"/>
			</g>
			<g>
				<path class="st0" d="M404.69,245.16c2.01,0,4.09-0.08,6.25-0.24c4.59-0.35,10.47-1.06,17.48-2.1
					c35.91-5.38,93.38-18.42,124.45-25.72c9.43-2.22,15.2-3.63,15.2-3.63c0.82-0.2,1.32-1.02,1.12-1.84
					c-0.2-0.82-1.02-1.32-1.84-1.12c0,0-5.77,1.4-15.18,3.62c-31.02,7.29-88.4,20.31-124.2,25.67c-6.94,1.03-12.75,1.73-17.27,2.08
					c-34.01,2.58-47.76-16.47-58.79-31.79c-1.68-2.34-3.27-4.54-4.87-6.58C335.39,188.6,293.77,137,288.6,130.6
					c0.28-0.79,0.81-2.19,1.66-4.05c4.04-8.83,16.8-31.2,47.77-47.98c2.42-1.32,4.99-2.61,7.64-3.85
					c6.2,8.47,46.83,63.49,64.37,74.24c10.11,6.2,33.83,3.11,74.65-9.74c5.02-1.58,9.57-3.07,13.59-4.38
					c5.33-1.74,9.54-3.12,11.72-3.67c0.42-0.11,0.78-0.39,0.98-0.77l5.01-9.6c0.39-0.75,0.1-1.67-0.65-2.05
					c-0.75-0.39-1.66-0.1-2.05,0.64l-4.7,9c-2.39,0.65-6.36,1.95-11.26,3.55c-4.01,1.31-8.54,2.79-13.55,4.37
					c-14.47,4.55-58.51,18.41-72.15,10.05c-18.1-11.09-63.77-73.81-64.23-74.45c-0.43-0.59-1.21-0.79-1.87-0.49
					c-3.12,1.43-6.13,2.93-8.95,4.46c-31.78,17.21-44.91,40.27-49.09,49.39c-1.45,3.19-2.03,5.1-2.05,5.18
					c-0.14,0.48-0.04,1,0.27,1.39c0.46,0.58,46.58,57.72,58.95,73.53c1.56,2,3.13,4.18,4.8,6.49
					C359.67,226.06,373.43,245.16,404.69,245.16z"/>
			</g>
			<g>
				<path class="st0" d="M320.83,363.83c0.04,0,0.08,0,0.11,0c5.26-0.39,129.15-9.7,160.15-26.51
					c31.19-16.91,71.33-116.17,73.03-120.39c0.31-0.78-0.06-1.67-0.85-1.98c-0.77-0.31-1.67,0.06-1.98,0.85
					c-0.41,1.02-41.42,102.45-71.65,118.84c-28.92,15.69-145.33,25.09-157.84,26.06c-0.54-1.27-1.55-3.72-2.78-7
					c-14.3-37.9-12.4-59.11-10.92-66.47c0.79-3.93,2.02-7.42,3.67-10.36c8.1-0.8,76.95-7.45,93.41-2.61
					c0.63,0.18,1.29-0.05,1.67-0.57l22.6-31.46c0.49-0.68,0.33-1.63-0.35-2.12c-0.68-0.49-1.63-0.34-2.12,0.35l-21.99,30.61
					c-19.65-4.73-91.21,2.54-94.3,2.86c-0.48,0.05-0.9,0.32-1.15,0.73c-2.02,3.38-3.5,7.41-4.42,11.98
					c-4.43,22.04,5.03,52.16,11.06,68.14c1.88,5.01,3.21,8.02,3.27,8.15C319.68,363.48,320.23,363.83,320.83,363.83z"/>
			</g>
			<g>
				<path class="st0" d="M803.31,216.16c0-1.72,1.4-3.13,3.12-3.13c1.72,0,3.13,1.4,3.13,3.13c0,1.72-1.4,3.12-3.13,3.12
					C804.71,219.28,803.31,217.88,803.31,216.16z M806.36,216.16c0,0.08,0.16,0.08,0.16,0c0-0.04-0.04-0.08-0.08-0.08
					C806.39,216.08,806.36,216.12,806.36,216.16z"/>
			</g>
			<g>
				<path class="st0" d="M811.51,154.02c0.32,0,0.65-0.1,0.93-0.31c7.5-5.75,13.87-0.3,14.14-0.07c0.63,0.55,1.59,0.49,2.15-0.13
					c0.55-0.63,0.5-1.59-0.13-2.14c-0.09-0.07-8.49-7.38-18.02-0.07c-0.67,0.51-0.79,1.47-0.28,2.13
					C810.6,153.82,811.05,154.02,811.51,154.02z"/>
			</g>
			<g>
				<path class="st0" d="M853.61,177.65c0.62,0,1.2-0.38,1.43-0.99c0.04-0.11,3.77-10.6-6.51-16.79c-0.72-0.43-1.66-0.2-2.09,0.52
					c-0.43,0.72-0.2,1.66,0.52,2.09c8.09,4.87,5.34,12.8,5.22,13.13c-0.28,0.79,0.12,1.66,0.91,1.95
					C853.26,177.62,853.44,177.65,853.61,177.65z"/>
			</g>
			<g>
				<path class="st0" d="M805.89,442.76c0.43,0,0.85-0.18,1.16-0.53c10.9-12.69,27.2-15.73,27.37-15.76
					c0.83-0.15,1.38-0.94,1.23-1.77c-0.15-0.83-0.93-1.38-1.76-1.23c-0.71,0.13-17.52,3.24-29.14,16.78
					c-0.55,0.64-0.47,1.6,0.16,2.15C805.18,442.64,805.54,442.76,805.89,442.76z"/>
			</g>
			<g>
				<path class="st0" d="M751.18,262.3c0.09,0,0.19-0.01,0.28-0.03c7.56-1.41,13.03-6.75,13.26-6.98c0.6-0.59,0.6-1.56,0.01-2.15
					c-0.59-0.6-1.55-0.6-2.15-0.01l0,0c-0.05,0.05-5.06,4.92-11.67,6.15c-0.83,0.15-1.37,0.95-1.22,1.78
					C749.83,261.79,750.46,262.3,751.18,262.3z"/>
			</g>
			<g>
				<path class="st0" d="M806.44,253.8c0.24,0,0.48-0.06,0.7-0.17c8.55-4.44,11.15-9.01,11.48-9.65c0.32-0.58,0.23-1.32-0.26-1.81
					c-0.59-0.6-1.55-0.6-2.15,0l-0.01,0.01c-0.12,0.12-0.22,0.26-0.3,0.42c-0.02,0.04-2.14,4.16-10.18,8.34
					c-0.75,0.39-1.04,1.31-0.65,2.05C805.36,253.5,805.89,253.8,806.44,253.8z"/>
			</g>
			<g>
				<path class="st0" d="M288.87,127.44c0.37,0,0.75-0.14,1.04-0.41c0.61-0.58,0.64-1.54,0.07-2.15l-13.8-14.7
					c-0.28-0.33-0.69-0.53-1.16-0.53c-0.84,0-1.52,0.68-1.52,1.52v0.01c0,0.39,0.15,0.76,0.41,1.04l13.84,14.75
					C288.06,127.28,288.46,127.44,288.87,127.44z"/>
			</g>
			<g>
				<path class="st0" d="M201.43,126.53c-1.58-1.87-2.08-4.23-1.45-6.81c1.58-6.53,10.18-14.91,26.29-25.62
					c21.64-14.38,77.31-54.84,77.87-55.24c0.64-0.46,1.53-0.36,2.05,0.23l32.26,37.14c0.55,0.63,0.48,1.6-0.15,2.15
					c-0.63,0.55-1.6,0.48-2.15-0.15L304.8,42.14c-8.06,5.85-56.87,41.23-76.85,54.5c-18.97,12.62-24.08,19.91-25.02,23.8
					c-0.4,1.65-0.13,3,0.82,4.14c2.71,3.22,11.2,4.87,21.66,4.19c16.72-1.08,36.52-11.47,42.19-14.63c3.71-2.07,5.67-3.4,6.15-3.8
					c0.27-0.41,0.74-0.68,1.27-0.68c0.84,0,1.52,0.68,1.52,1.52c0,0.82,0,1.47-7.46,5.62c-5.81,3.24-26.11,13.88-43.47,15.01
					c-1.03,0.07-2.64,0.14-4.55,0.14C214.83,131.94,205.3,131.13,201.43,126.53z M273.5,111.17L273.5,111.17z"/>
			</g>
			<g>
				<path class="st0" d="M201.55,121.63c0.3,0,0.61-0.09,0.87-0.28L309.87,45.9c0.69-0.48,0.85-1.43,0.37-2.12
					c-0.48-0.69-1.43-0.85-2.12-0.37l-107.45,75.45c-0.69,0.48-0.85,1.43-0.37,2.12C200.6,121.4,201.07,121.63,201.55,121.63z"/>
			</g>
			<g>
				<path class="st0" d="M280.15,118.23c0.09,0,0.18-0.01,0.28-0.03c3.93-0.49,6.68-2.09,8.16-4.73c2.82-5.01-0.18-11.82-0.31-12.1
					c-0.34-0.77-1.24-1.11-2.01-0.76c-0.77,0.34-1.11,1.24-0.77,2.01l0,0c0.02,0.06,2.5,5.71,0.43,9.37
					c-0.99,1.76-2.98,2.84-5.91,3.2c-0.03,0-0.06,0.01-0.09,0.01c-0.74,0.11-1.3,0.74-1.3,1.51
					C278.63,117.54,279.31,118.23,280.15,118.23z"/>
			</g>
			<g>
				<path class="st0" d="M286.89,103.51c0.48,0,0.95-0.22,1.24-0.64c9.74-13.78,20.86-21.69,28.47-25.9
					c8.26-4.57,14.3-5.89,14.36-5.91c0.82-0.18,1.35-0.98,1.17-1.81c-0.18-0.82-0.98-1.35-1.8-1.17
					c-1.02,0.22-25.32,5.63-44.68,33.03c-0.49,0.69-0.32,1.64,0.36,2.12C286.28,103.42,286.59,103.51,286.89,103.51z"/>
			</g>
			<g>
				<path class="st0" d="M268.35,116.99c0.84,0,1.52-0.68,1.52-1.52c0-0.07,0-0.15-0.01-0.21l-1.51-11.14
					c-0.11-0.83-0.87-1.42-1.71-1.3c-0.83,0.11-1.42,0.88-1.3,1.71l1.51,11.12C266.93,116.4,267.57,116.99,268.35,116.99z"/>
			</g>
			<g>
				<path class="st0" d="M260.59,120.86c0.07,0,0.14,0,0.21-0.01c0.83-0.11,1.42-0.88,1.31-1.71l-1.5-11.15
					c-0.11-0.83-0.87-1.42-1.71-1.31c-0.83,0.11-1.42,0.88-1.31,1.71l1.5,11.15C259.19,120.31,259.84,120.86,260.59,120.86z"/>
			</g>
			<g>
				<path class="st0" d="M252.84,123.72c0.07,0,0.14,0,0.21-0.01c0.83-0.11,1.42-0.88,1.31-1.71l-1.5-11.15
					c-0.11-0.83-0.87-1.41-1.71-1.31c-0.83,0.11-1.42,0.88-1.31,1.71l1.5,11.15C251.44,123.16,252.09,123.72,252.84,123.72z"/>
			</g>
			<g>
				<path class="st0" d="M550.92,178.93c0.84,0,1.52-0.68,1.52-1.52v-32.49c0-0.84-0.68-1.52-1.52-1.52s-1.52,0.68-1.52,1.52v32.49
					C549.39,178.25,550.08,178.93,550.92,178.93z"/>
			</g>
			<g>
				<path class="st0" d="M532.52,177.39c-2.24-0.56-4.66-1.28-7.19-2.12c-1.81-0.6-3.37-1.56-4.64-2.85
					c-0.59-0.6-0.58-1.56,0.01-2.15c0.6-0.59,1.56-0.58,2.15,0.01c0.93,0.95,2.09,1.66,3.44,2.1c2.46,0.82,4.81,1.51,6.97,2.06
					c0.81,0.21,1.31,1.03,1.11,1.85c-0.17,0.69-0.79,1.15-1.48,1.15C532.77,177.43,532.64,177.42,532.52,177.39z M518.16,161.56
					c-0.84-0.02-1.51-0.72-1.49-1.56c0.1-4.23,1.18-8.87,2.88-12.41c0.36-0.76,1.27-1.08,2.03-0.71c0.76,0.36,1.08,1.27,0.71,2.03
					c-1.5,3.13-2.49,7.41-2.58,11.17c-0.02,0.83-0.7,1.49-1.52,1.49C518.19,161.56,518.17,161.56,518.16,161.56z M542.78,144.75
					c-0.04-0.01-4.4-0.68-9.05-0.68c-0.98,0-1.91,0.03-2.76,0.09c-0.82,0.06-1.57-0.57-1.62-1.41c-0.06-0.84,0.57-1.57,1.41-1.62
					c0.93-0.06,1.93-0.1,2.97-0.1c4.88,0,9.33,0.69,9.52,0.71c0.83,0.13,1.4,0.91,1.27,1.74c-0.12,0.75-0.77,1.29-1.5,1.29
					C542.93,144.77,542.85,144.76,542.78,144.75z"/>
			</g>
			<g>
				<path class="st0" d="M561.17,99.61c0.53,0,1.05-0.28,1.33-0.78l5.96-10.62c0.41-0.73,0.15-1.66-0.58-2.07
					c-0.73-0.41-1.66-0.15-2.07,0.58l-5.96,10.62c-0.41,0.73-0.15,1.66,0.58,2.07C560.66,99.55,560.91,99.61,561.17,99.61z"/>
			</g>
			<g>
				<path class="st0" d="M541.02,104.01c-0.84-0.07-1.46-0.81-1.38-1.65c0.07-0.84,0.82-1.46,1.65-1.38
					c0.97,0.08,2.03,0.13,3.14,0.13c4.49,0,8.57-0.69,8.61-0.7c0.83-0.14,1.62,0.41,1.76,1.24c0.14,0.83-0.41,1.62-1.24,1.76
					c-0.18,0.03-4.37,0.74-9.13,0.74C543.23,104.15,542.08,104.1,541.02,104.01z M530.18,96.71c-0.01-0.19-0.02-0.38-0.02-0.58
					c0-1.68,0.56-3.61,1.66-5.72c0.39-0.75,1.31-1.03,2.05-0.64c0.75,0.39,1.03,1.31,0.64,2.05c-0.87,1.67-1.32,3.12-1.32,4.31
					c0,0.12,0,0.23,0.01,0.34c0.07,0.84-0.56,1.57-1.4,1.64c-0.04,0-0.08,0-0.12,0C530.91,98.11,530.24,97.51,530.18,96.71z"/>
			</g>
			<g>
				<path class="st0" d="M403.51,201.52c-0.77-0.34-1.12-1.24-0.78-2.01l0.2-0.44c0.34-0.77,1.24-1.12,2.01-0.78
					c0.77,0.34,1.12,1.24,0.78,2.01l-0.2,0.44c-0.25,0.57-0.81,0.91-1.39,0.91C403.91,201.65,403.71,201.61,403.51,201.52z
					 M408.64,189.95c-0.77-0.34-1.11-1.24-0.77-2.01l4.94-11.13c0.34-0.77,1.24-1.12,2.01-0.77c0.77,0.34,1.11,1.24,0.77,2.01
					l-4.94,11.13c-0.25,0.57-0.81,0.91-1.39,0.91C409.05,190.08,408.84,190.04,408.64,189.95z"/>
			</g>
			<g>
				<path class="st0" d="M407.02,214.91c-0.77-0.34-1.12-1.24-0.78-2.01l0.2-0.44c0.34-0.77,1.24-1.12,2.01-0.78
					c0.77,0.34,1.12,1.24,0.78,2.01l-0.2,0.44c-0.25,0.57-0.81,0.91-1.39,0.91C407.43,215.04,407.22,214.99,407.02,214.91z
					 M412.15,203.33c-0.77-0.34-1.12-1.24-0.77-2.01l4.94-11.13c0.34-0.77,1.24-1.12,2.01-0.77c0.77,0.34,1.11,1.24,0.77,2.01
					l-4.94,11.13c-0.25,0.57-0.81,0.91-1.39,0.91C412.56,203.47,412.35,203.42,412.15,203.33z"/>
			</g>
			<g>
				<path class="st0" d="M769.4,182.99c0.84,0,1.52-0.68,1.52-1.52s-0.68-1.52-1.52-1.52c-6.27,0-11.37-5.1-11.37-11.37
					c0-2.69,0.91-5.21,2.64-7.29c0.54-0.65,0.45-1.61-0.2-2.14c-0.65-0.54-1.61-0.45-2.14,0.2c-2.16,2.59-3.35,5.87-3.35,9.24
					C754.99,176.52,761.46,182.99,769.4,182.99z"/>
			</g>
			<g>
				<path class="st0" d="M782.11,167.95c0.08,0,0.17-0.01,0.25-0.02c0.83-0.14,1.39-0.92,1.25-1.75
					c-1.17-6.96-7.15-12.01-14.21-12.01c-4.29,0-8.32,1.89-11.06,5.18c-0.54,0.65-0.45,1.61,0.2,2.14c0.65,0.54,1.61,0.45,2.14-0.2
					c2.16-2.59,5.33-4.08,8.71-4.08c5.57,0,10.28,3.98,11.2,9.47C780.73,167.42,781.38,167.95,782.11,167.95z"/>
			</g>
			<g>
				<path class="st0" d="M774.12,172.37c0.08,0,0.16-0.01,0.24-0.02c0.83-0.13,1.39-0.9,1.27-1.73c-0.03-0.2-0.79-4.92-5.5-7.26
					c-1.71-0.85-3.73-1.25-5.99-1.24c-0.84,0.01-1.52,0.7-1.51,1.54c0.01,0.84,0.72,1.51,1.54,1.51c1.83-0.03,3.33,0.3,4.61,0.93
					c3.25,1.61,3.82,4.85,3.84,4.99C772.74,171.83,773.39,172.37,774.12,172.37z"/>
			</g>
			<g>
				<path class="st0" d="M766.97,172.92c0.62,0,1.2-0.38,1.43-0.99l2.49-6.67c0.29-0.79-0.11-1.66-0.89-1.96
					c-0.79-0.29-1.67,0.11-1.96,0.89l-2.49,6.67c-0.29,0.79,0.11,1.66,0.89,1.96C766.61,172.89,766.79,172.92,766.97,172.92z"/>
			</g>
			<g>
				<path class="st0" d="M758.6,161.88c0.54,0,0.9-0.03,1.07-0.05c0.77-0.08,1.36-0.73,1.36-1.51c0-0.84-0.68-1.52-1.52-1.52h-0.01
					c-0.06,0-0.13,0-0.19,0.01c-0.28,0.03-7,0.77-15.44-6.89c-0.62-0.56-1.58-0.52-2.15,0.1c-0.56,0.62-0.52,1.59,0.1,2.15
					C749.47,161.09,756.02,161.88,758.6,161.88z"/>
			</g>
			<g>
				<path class="st0" d="M761.87,219.65c7.84,0,14.13-1.94,14.45-2.04c0.8-0.25,1.25-1.11,1-1.91c-0.25-0.8-1.1-1.25-1.91-1
					c-0.09,0.03-9.17,2.81-18.7,1.58c-0.83-0.12-1.6,0.48-1.71,1.31c-0.11,0.83,0.48,1.6,1.31,1.71
					C758.22,219.55,760.09,219.65,761.87,219.65z"/>
			</g>
			<g>
				<path class="st0" d="M262.33,423.84c-4.47-5-6.48-16.84-6.15-36.19c0.45-25.98-1.24-94.78-1.26-95.47
					c-0.02-0.79,0.57-1.46,1.35-1.55l48.91-5.46c0.84-0.09,1.59,0.51,1.68,1.34c0.09,0.84-0.51,1.59-1.34,1.68L258,293.51
					c0.24,9.95,1.64,70.22,1.23,94.2c-0.39,22.78,2.71,31.12,5.38,34.11c1.13,1.27,2.4,1.82,3.87,1.68
					c4.19-0.4,10.37-6.46,15.75-15.45c10.4-17.37,12.59-47.11,12.29-50.21c-0.08-0.19-0.13-0.4-0.13-0.63
					c0.01-0.75,0.56-1.38,1.29-1.49l19.67-2.97l0.33-0.05c0.83-0.12,1.61,0.44,1.74,1.27c0.13,0.83-0.44,1.61-1.27,1.74l-18.64,2.82
					c0.03,7.54-2.98,34.91-12.67,51.09c-2.26,3.78-10.26,16.18-18.07,16.92c-0.24,0.02-0.49,0.03-0.73,0.03
					C265.88,426.56,263.92,425.63,262.33,423.84z M297.66,358.71c-0.13-0.02-0.25-0.06-0.36-0.11
					C297.41,358.66,297.53,358.69,297.66,358.71z"/>
			</g>
			<g>
				<path class="st0" d="M263.54,424.29c0,0,0.01,0,0.01,0c0.84-0.01,1.52-0.69,1.51-1.54l-1.09-131.29
					c-0.01-0.84-0.69-1.51-1.52-1.51c0,0-0.01,0-0.01,0c-0.84,0.01-1.52,0.69-1.51,1.53l1.09,131.29
					C262.02,423.61,262.7,424.29,263.54,424.29z"/>
			</g>
			<g>
				<path class="st0" d="M305.38,357.66c0.57,0,1.11-0.32,1.38-0.87c1.84-3.54,2.09-6.71,0.75-9.44c-2.53-5.16-9.83-6.55-10.14-6.61
					c-0.82-0.15-1.62,0.4-1.77,1.22c-0.15,0.83,0.4,1.62,1.22,1.77l0,0c0.06,0.01,6.12,1.18,7.96,4.96
					c0.89,1.81,0.64,4.06-0.72,6.68c-0.01,0.02-0.05,0.09-0.05,0.11c-0.36,0.76-0.04,1.67,0.72,2.03
					C304.94,357.61,305.16,357.66,305.38,357.66z"/>
			</g>
			<g>
				<path class="st0" d="M297.09,343.77c0.17,0,0.35-0.03,0.52-0.09c0.79-0.29,1.19-1.16,0.9-1.95
					c-11.13-30.33-1.96-53.09-1.86-53.32c0.32-0.78-0.04-1.67-0.82-1.99c-0.78-0.32-1.67,0.04-1.99,0.82
					c-0.4,0.97-9.75,24.03,1.81,55.54C295.89,343.38,296.47,343.77,297.09,343.77z"/>
			</g>
			<g>
				<path class="st0" d="M297.66,366.68c0.56,0,1.09-0.3,1.36-0.83c0.38-0.75,0.08-1.67-0.67-2.05l-10.04-5.09
					c-0.75-0.38-1.67-0.08-2.05,0.67c-0.38,0.75-0.08,1.67,0.67,2.05l10.04,5.09C297.19,366.63,297.43,366.68,297.66,366.68z"/>
			</g>
			<g>
				<path class="st0" d="M296.44,375.26c0.56,0,1.09-0.3,1.36-0.83c0.38-0.75,0.08-1.67-0.67-2.05l-10.04-5.1
					c-0.75-0.38-1.67-0.08-2.05,0.67c-0.38,0.75-0.08,1.67,0.67,2.05l10.04,5.1C295.97,375.21,296.21,375.26,296.44,375.26z"/>
			</g>
			<g>
				<path class="st0" d="M294.39,383.26c0.56,0,1.09-0.3,1.36-0.83c0.38-0.75,0.08-1.67-0.67-2.05l-10.04-5.09
					c-0.75-0.38-1.67-0.08-2.05,0.67c-0.38,0.75-0.08,1.67,0.67,2.05l10.04,5.09C293.92,383.2,294.16,383.26,294.39,383.26z"/>
			</g>
		</g>
	</g>
	<g>
		<g>
			<path class="st0" d="M872.69,141.3c0.69,0,1.32-0.48,1.48-1.18c0.19-0.82-0.33-1.64-1.15-1.82l-57.05-12.98
				c-0.83-0.19-1.64,0.33-1.82,1.15c-0.19,0.82,0.33,1.64,1.15,1.82l57.05,12.98C872.46,141.28,872.57,141.3,872.69,141.3z"/>
		</g>
	</g>
	<g>
		<g>
			<path class="st0" d="M815.63,121.82c0.06,0,0.11,0,0.17-0.01l33.47-3.76c0.84-0.09,1.44-0.85,1.34-1.68
				c-0.09-0.84-0.84-1.44-1.68-1.34l-33.47,3.76c-0.84,0.09-1.44,0.85-1.34,1.68C814.21,121.24,814.87,121.82,815.63,121.82z"/>
		</g>
	</g>
	<g>
		<g>
			<path class="st0" d="M793.01,118.46c0.29,0,0.59-0.08,0.85-0.26c2.45-1.66,6.19-6.23,2.82-11.62c-0.45-0.71-1.38-0.93-2.1-0.49
				c-0.71,0.45-0.93,1.38-0.49,2.1c2.67,4.29-1.76,7.36-1.95,7.49c-0.7,0.47-0.88,1.42-0.41,2.11
				C792.04,118.23,792.52,118.46,793.01,118.46z"/>
		</g>
	</g>
	<g>
		<g>
			<path class="st0" d="M301.41,119.83c-0.66-0.52-0.78-1.48-0.26-2.14c1.52-1.94,3.1-3.86,4.69-5.72c0.55-0.64,1.51-0.71,2.15-0.16
				c0.64,0.55,0.71,1.51,0.16,2.15c-1.57,1.82-3.11,3.71-4.6,5.61c-0.3,0.38-0.75,0.58-1.2,0.58
				C302.02,120.15,301.69,120.05,301.41,119.83z M314.21,105.13c-0.59-0.6-0.59-1.56,0.01-2.15c2.95-2.92,6.01-5.71,9.1-8.28
				c0.65-0.54,1.61-0.45,2.14,0.2c0.54,0.65,0.45,1.61-0.2,2.14c-3.03,2.52-6.03,5.25-8.91,8.11c-0.3,0.29-0.68,0.44-1.07,0.44
				C314.9,105.58,314.51,105.43,314.21,105.13z M332.76,89.38c-0.47-0.7-0.29-1.64,0.41-2.11c6.45-4.37,10.58-6.21,10.75-6.28
				c0.77-0.34,1.67,0.01,2.01,0.78c0.34,0.77-0.01,1.67-0.78,2.01c-0.04,0.02-4.08,1.82-10.27,6.02c-0.26,0.18-0.56,0.26-0.85,0.26
				C333.53,90.05,333.05,89.81,332.76,89.38z"/>
		</g>
	</g>
	<g>
		<g>
			<path class="st0" d="M321.01,342.25c-1.2-3.88-2.25-7.88-3.14-11.89c-0.18-0.82,0.34-1.63,1.16-1.82
				c0.82-0.18,1.63,0.34,1.81,1.16c0.87,3.94,1.9,7.86,3.08,11.65c0.25,0.8-0.2,1.66-1.01,1.9c-0.15,0.05-0.3,0.07-0.45,0.07
				C321.81,343.32,321.21,342.9,321.01,342.25z M315.7,318.25c-0.56-4.05-0.97-8.17-1.21-12.24c-0.05-0.84,0.59-1.56,1.43-1.61
				c0.85-0.04,1.56,0.59,1.61,1.43c0.24,3.99,0.64,8.03,1.19,12c0.12,0.83-0.47,1.6-1.3,1.72c-0.07,0.01-0.14,0.01-0.21,0.01
				C316.45,319.56,315.8,319.01,315.7,318.25z M315.74,295.27c-0.84-0.02-1.51-0.72-1.49-1.56c0.18-7.62,0.89-12.16,0.93-12.35
				c0.13-0.83,0.91-1.4,1.74-1.26c0.83,0.13,1.39,0.91,1.26,1.74c-0.01,0.04-0.72,4.54-0.89,11.93c-0.02,0.83-0.7,1.49-1.52,1.49
				C315.76,295.27,315.75,295.27,315.74,295.27z"/>
		</g>
	</g>
	<g id="XMLID_5_">
		<g>
			<g>
				<path class="st0" d="M758.59,52.9c-2.98,6.94,1.75,18.29,1.75,18.29s-0.4-11.78,3.89-16.96
					C764.23,54.23,760.5,48.44,758.59,52.9z"/>
			</g>
			<g>
				<path class="st1" d="M802.5,30.78v0.01c-4.94,1.61-10.03,4.05-14.93,7.28c-18.31,12.07-27.31,30.7-20.12,41.63
					c2.82,4.28,7.69,6.74,13.69,7.42v0.01c0,0-6.78,1.35-15.34-6.53c-8.56-7.88-18.37-44.32,9.72-59.87
					C775.53,20.73,790.48,18.1,802.5,30.78z M764.23,54.23c0,0-3.72-5.78-5.63-1.33c-2.98,6.94,1.75,18.29,1.75,18.29
					S759.94,59.4,764.23,54.23z"/>
			</g>
			<g>
				<path class="st0" d="M787.57,38.07c-18.31,12.07-27.31,30.7-20.12,41.63c2.82,4.28,7.69,6.74,13.69,7.42
					c9.33,1.09,21.35-2.13,32.5-9.48c4.4-2.9,8.26-6.18,11.49-9.64c0,0,0.01,0,0.02-0.01c10.19-10.94,14.07-23.68,8.61-31.98
					c-4.06-6.15-12.38-8.55-22.16-7.31c-0.55,0.07-1.1,0.15-1.65,0.24c-2.42,0.4-4.92,1.01-7.45,1.85
					C797.56,32.41,792.47,34.84,787.57,38.07z"/>
			</g>
			<g>
				<path class="st1" d="M811.6,28.69c0.32-0.15,4.82-2.3,11.23-4.77l-0.55-1.41c-2.26-1.94-20.49-16.32-46.76-1.78
					c0,0,14.95-2.64,26.97,10.05v0.01c2.53-0.83,5.03-1.45,7.45-1.85c0.56-0.09,1.11-0.17,1.65-0.24V28.69z"/>
			</g>
			<g>
				<path class="st1" d="M811.6,28.69v0.01c9.77-1.24,18.1,1.16,22.16,7.31c5.46,8.3,1.58,21.04-8.61,31.98
					c0.91-0.27,25.93-7.9,35.74-11.33l-2.53-0.47c18.51-27.81-9.26-39.53-9.26-39.53c-9.02,1.16-18.91,4.42-26.28,7.26
					C816.42,26.39,811.93,28.54,811.6,28.69z"/>
			</g>
			<g>
				<path class="st1" d="M871.07,23.56c-3.36-6.94-12.15-8.16-21.96-6.89c0,0,27.77,11.72,9.26,39.53l2.53,0.47
					c1.63-0.57,2.85-1.03,3.46-1.31C872.69,51.49,879.41,40.77,871.07,23.56z"/>
			</g>
		</g>
		<g>
			<g>
				<path class="st0" d="M780.97,88.63c-6.69-0.76-11.8-3.56-14.79-8.09c-7.64-11.61,1.57-31.23,20.55-43.74
					c4.92-3.24,10.06-5.74,15.29-7.45c2.59-0.85,5.17-1.49,7.68-1.9c0.57-0.09,1.14-0.18,1.71-0.25
					c10.77-1.36,19.37,1.55,23.62,7.98c5.72,8.7,2.28,21.99-8.76,33.85c-0.04,0.04-0.07,0.07-0.11,0.11
					c-3.39,3.62-7.31,6.91-11.67,9.78c-9.64,6.36-20.46,9.93-29.71,9.93C783.47,88.85,782.2,88.77,780.97,88.63z M832.49,36.85
					c-3.58-5.43-11.12-7.85-20.69-6.64c-0.53,0.07-1.06,0.15-1.6,0.24c-2.35,0.39-4.78,0.99-7.22,1.79
					c-4.97,1.62-9.87,4.01-14.56,7.1c-17.57,11.58-26.4,29.31-19.68,39.52c2.47,3.76,6.83,6.09,12.6,6.74
					c9.3,1.08,21.07-2.37,31.48-9.24c4.2-2.77,7.97-5.93,11.21-9.41c0.03-0.04,0.07-0.07,0.11-0.1
					C834.11,56.08,837.4,44.31,832.49,36.85z"/>
			</g>
			<g>
				<path class="st0" d="M825.13,69.52c0.18,0,0.36-0.03,0.53-0.1c1.55-0.47,26.02-7.93,35.73-11.32c1.75-0.61,2.97-1.07,3.6-1.37
					c4.8-2.23,8.42-6.18,10.18-11.12c2.29-6.43,1.35-14.29-2.74-22.72c-3.26-6.73-11.17-9.33-23.53-7.74
					c-7.48,0.96-16.44,3.43-26.63,7.35c-5.59,2.15-9.75,4.06-11.27,4.79c-0.01,0.01-0.02,0.01-0.04,0.02
					c-0.54,0.23-0.92,0.77-0.92,1.4c0,0.84,0.68,1.52,1.52,1.52c0.23,0,0.46-0.06,0.67-0.16c1.57-0.74,5.64-2.61,11.13-4.72
					c9.96-3.83,18.68-6.24,25.92-7.17c10.92-1.41,17.78,0.62,20.4,6.04c3.72,7.69,4.62,14.73,2.61,20.37
					c-1.49,4.17-4.54,7.5-8.6,9.38c-0.38,0.18-1.25,0.53-3.32,1.25c-9.93,3.47-35.45,11.24-35.68,11.31
					c-0.09,0.03-0.18,0.06-0.26,0.11c-0.5,0.25-0.85,0.77-0.85,1.36C823.61,68.84,824.29,69.52,825.13,69.52z"/>
			</g>
			<g>
				<path class="st0" d="M779.91,88.74c0.91,0,1.45-0.1,1.53-0.12c0.82-0.16,1.36-0.97,1.2-1.79c-0.16-0.82-0.97-1.36-1.79-1.2
					c-0.24,0.04-6.21,1.02-14.01-6.15c-4.35-4.01-9.73-17.41-8.09-31.17c0.97-8.09,4.79-19.2,17.52-26.24
					c25.48-14.11,43.1-0.05,45.03,1.6l0.22,0.19c0.63,0.55,1.6,0.49,2.15-0.15c0.55-0.63,0.49-1.6-0.15-2.15l-0.24-0.21
					c-2.1-1.8-21.21-17.06-48.49-1.96c-13.85,7.66-18.01,19.75-19.06,28.55c-1.64,13.71,3.35,28.53,9.05,33.78
					C771.49,87.9,777.26,88.74,779.91,88.74z"/>
			</g>
			<g>
				<path class="st0" d="M758.93,71.77c-0.2-0.49-4.94-12.03-1.74-19.47c0.86-2.01,2.12-2.52,3.03-2.6c2.61-0.2,4.85,3.05,5.28,3.7
					c0.36,0.56,0.32,1.28-0.11,1.79c-3.86,4.67-3.54,15.83-3.54,15.94c0.02,0.73-0.48,1.38-1.2,1.54c-0.11,0.02-0.22,0.04-0.32,0.04
					C759.73,72.71,759.17,72.35,758.93,71.77z M760.5,52.73c-0.06,0.02-0.27,0.22-0.5,0.77c-1.1,2.57-1.01,5.88-0.52,8.91
					c0.5-2.86,1.37-5.89,2.87-8.18C761.6,53.34,760.78,52.7,760.5,52.73z"/>
			</g>
			<g>
				<path class="st0" d="M802.5,32.3c0.38,0,0.75-0.14,1.05-0.42c0.61-0.58,0.64-1.54,0.06-2.15
					c-12.44-13.13-27.69-10.61-28.33-10.5c-0.83,0.15-1.38,0.94-1.23,1.76c0.15,0.83,0.94,1.38,1.76,1.23l0,0
					c0.14-0.02,14.32-2.31,25.6,9.6C801.69,32.15,802.09,32.3,802.5,32.3z"/>
			</g>
			<g>
				<path class="st0" d="M857.81,57.04c-0.47-0.31-0.59-0.94-0.28-1.41c0.33-0.49,0.64-0.98,0.94-1.46c0.3-0.48,0.92-0.62,1.4-0.33
					c0.48,0.29,0.62,0.92,0.33,1.4c-0.31,0.5-0.64,1.01-0.98,1.52c-0.2,0.29-0.52,0.45-0.85,0.45
					C858.17,57.21,857.98,57.16,857.81,57.04z M861.77,50.26c-0.51-0.23-0.75-0.83-0.52-1.34c0.41-0.92,0.77-1.85,1.07-2.75
					c0.18-0.53,0.76-0.81,1.29-0.64c0.53,0.18,0.81,0.76,0.64,1.29c-0.33,0.96-0.71,1.94-1.14,2.92c-0.17,0.38-0.54,0.61-0.93,0.61
					C862.05,50.35,861.91,50.32,861.77,50.26z M864.51,41.58c-0.56-0.06-0.96-0.56-0.91-1.11c0.08-0.73,0.11-1.46,0.11-2.18
					c0-0.24,0-0.48-0.01-0.72c-0.02-0.56,0.42-1.03,0.98-1.05c0.52-0.03,1.03,0.42,1.05,0.98c0.01,0.26,0.01,0.53,0.01,0.79
					c0,0.79-0.04,1.59-0.12,2.39c-0.05,0.52-0.49,0.91-1.01,0.91C864.58,41.58,864.55,41.58,864.51,41.58z M862.65,31.9
					c-0.31-0.9-0.7-1.79-1.15-2.65c-0.26-0.5-0.07-1.11,0.43-1.37c0.5-0.26,1.11-0.07,1.37,0.43c0.49,0.95,0.92,1.93,1.27,2.93
					c0.18,0.53-0.1,1.11-0.63,1.29c-0.11,0.04-0.22,0.06-0.33,0.06C863.19,32.59,862.8,32.32,862.65,31.9z M858.15,24.5
					c-0.64-0.71-1.35-1.4-2.09-2.06c-0.42-0.37-0.46-1.01-0.09-1.43c0.37-0.42,1.01-0.46,1.43-0.08c0.8,0.71,1.55,1.45,2.24,2.22
					c0.38,0.42,0.35,1.06-0.07,1.43c-0.19,0.18-0.44,0.26-0.68,0.26C858.63,24.83,858.35,24.72,858.15,24.5z M851.3,18.96
					c-1.52-0.91-2.57-1.35-2.58-1.36c-0.52-0.22-0.76-0.81-0.54-1.33c0.22-0.52,0.81-0.76,1.33-0.54c0.05,0.02,1.18,0.5,2.83,1.48
					c0.48,0.29,0.64,0.91,0.35,1.39c-0.19,0.32-0.53,0.5-0.87,0.5C851.64,19.1,851.46,19.06,851.3,18.96z"/>
			</g>
		</g>
	</g>
	<g>
		<g>
			<path class="st0" d="M923.47,110.5c0.45,0,0.9-0.2,1.2-0.59l7.86-10.1c0.52-0.66,0.4-1.62-0.27-2.14
				c-0.66-0.52-1.62-0.4-2.14,0.27l-7.86,10.1c-0.52,0.66-0.4,1.62,0.27,2.14C922.82,110.39,923.15,110.5,923.47,110.5z"/>
		</g>
	</g>
	<g>
		<g>
			<path class="st0" d="M931.34,122.18c0.21,0,0.43-0.04,0.63-0.14l12.56-5.72c0.77-0.35,1.1-1.25,0.76-2.02
				c-0.35-0.76-1.25-1.1-2.02-0.76l-12.56,5.72c-0.77,0.35-1.1,1.25-0.76,2.02C930.21,121.85,930.76,122.18,931.34,122.18z"/>
		</g>
	</g>
	<g>
		<g>
			<path class="st0" d="M947.59,136.53c0.8,0,1.47-0.63,1.52-1.44c0.05-0.84-0.6-1.56-1.44-1.6l-11.91-0.66
				c-0.86-0.07-1.56,0.6-1.6,1.44c-0.05,0.84,0.6,1.56,1.44,1.6l11.91,0.66C947.54,136.53,947.56,136.53,947.59,136.53z"/>
		</g>
	</g>
	<g id="XMLID_7_">
		<g>
			<g>
				<path class="st0" d="M156.85,222.58c-78.46,0-142.07,63.6-142.07,142.07c0,78.45,63.6,142.07,142.07,142.07
					c56.41,0,105.14-32.88,128.08-80.52l0.38-0.93l-25.43-10.07l-0.39,0.96c-19.29,37.61-58.47,63.35-103.65,63.35
					c-64.3,0-116.43-52.13-116.43-116.43s52.13-116.43,116.43-116.43c38.75,0,71.98,17.44,93.14,46.55l21.44-13.78l-0.57-0.88
					C243.9,244.52,202.94,222.58,156.85,222.58z"/>
			</g>
			<g>
				<path class="st1" d="M155.84,246.64c-64.3,0-116.43,52.13-116.43,116.43S91.53,479.5,155.84,479.5
					c45.18,0,84.36-25.74,103.65-63.35l0.39-0.96l-11.49-4.54l-0.36,0.9c-17.65,33.83-53.05,56.91-93.84,56.91
					c-58.43,0-105.79-47.37-105.79-105.79s47.37-105.79,105.79-105.79c34.7,0,65.49,16.71,84.78,42.51l0.11,0.17l9.89-6.36
					C227.81,264.08,194.59,246.64,155.84,246.64z"/>
			</g>
			<g>
				<path class="st1" d="M163.82,347.93c3.76,2.39,6.56,6.14,7.71,10.55c0.4,1.46,0.6,3,0.6,4.59c0,1.11-0.1,2.19-0.29,3.25
					c-0.83,4.6-3.43,8.59-7.06,11.23c-2.96,2.18-6.63,3.46-10.59,3.46c-9.92,0-17.95-8.03-17.95-17.94s8.04-17.95,17.95-17.95
					C157.74,345.12,161.04,346.14,163.82,347.93z M154.19,376.15c7.23,0,13.08-5.86,13.08-13.08c0-7.23-5.86-13.08-13.08-13.08
					c-7.23,0-13.08,5.86-13.08,13.08C141.11,370.3,146.97,376.15,154.19,376.15z"/>
			</g>
			<g>
				<circle class="st1" cx="154.19" cy="363.07" r="13.08"/>
			</g>
			<g>
				<path class="st1" d="M239.09,299.56l-75.26,48.37c3.76,2.39,6.56,6.14,7.71,10.55h0.01l74.62-48.1l10-6.44l21.6-13.92
					l48.36-31.17l1.51-0.11l-1.13-15.12l-0.44,0.03l-55.65,35.76l-21.44,13.78L239.09,299.56z"/>
			</g>
			<g>
				<path class="st1" d="M164.78,377.55l0.01,0.01l83.6,33.09l11.49,4.54l25.43,10.07l20.19,7.99l0.14,0.05
					c1.43-4.22,3.48-8.16,6.04-11.71l-21.41-8.47l-25.57-10.12l-11-4.35l-81.56-32.26l-0.29-0.05
					C171.01,370.91,168.41,374.9,164.78,377.55z"/>
			</g>
			<g>
				<path class="st1" d="M246.16,310.39l0.16,0.24c8.93,15.52,13.66,32.85,13.66,52.03c0,12.4-2.13,24.31-6.06,35.37l-0.23,0.6
					l11,4.35l0.09-0.23c4.05-11.84,7.48-26.47,7.48-39.68c0-22.1-5.41-41.52-16.11-59.13L246.16,310.39z"/>
			</g>
			<g>
				<path class="st0" d="M277.76,290.02l-21.6,13.92c10.7,17.61,16.11,37.02,16.11,59.13c0,13.21-3.43,27.84-7.48,39.68l-0.09,0.23
					l25.57,10.12c4.89-14.36,8.66-32.45,8.66-48.46c0-28.04-7.04-52.46-21.07-74.48L277.76,290.02z"/>
			</g>
			<g>
				<path class="st0" d="M273.42,468.03c-1.67,1.72-2.51,3.94-2.51,6.17c0,2.29,0.88,4.59,2.64,6.3l26.22,25.65
					c3.46,3.39,9.07,3.33,12.46-0.13c1.67-1.72,2.51-3.94,2.51-6.17c0-1.6-0.44-3.2-1.3-4.61l-4.55,5.12
					c-0.96,1.08-2.3,1.62-3.65,1.62c-1.16,0-2.32-0.41-3.25-1.23c-2-1.78-2.18-4.88-0.4-6.89l4.88-5.49l-20.6-20.47
					C282.43,464.51,276.81,464.57,273.42,468.03z"/>
			</g>
			<g>
				<path class="st0" d="M283.17,150.27c-4.6,7.3-1.78,35.29,28.9,45.12c18.39,5.9,31.99,6.78,31.99,6.78l-44.27-55.26
					C299.79,146.91,287.75,142.97,283.17,150.27z"/>
			</g>
			<g>
				<path class="st1" d="M313.45,495.24l9.22-10.35l5.68-6.4l24.56-27.62c1.78-2.01,1.6-5.12-0.41-6.89
					c-0.92-0.82-2.09-1.23-3.25-1.23c-1.35,0-2.69,0.55-3.64,1.62l-24.74,27.83l-5.56,6.25l-8.82,9.92l-4.88,5.49
					c-1.79,2.01-1.6,5.12,0.4,6.89c0.92,0.82,2.09,1.23,3.25,1.23c1.35,0,2.69-0.55,3.65-1.62L313.45,495.24z"/>
			</g>
			<g>
				<path class="st0" d="M351.56,402.86c-1.06-0.07-2.13-0.11-3.21-0.11c-3.34,0-6.6,0.37-9.72,1.06
					c-11.05,2.43-20.57,8.89-26.96,17.77c-2.56,3.55-4.61,7.49-6.04,11.71c-1.56,4.58-2.42,9.48-2.42,14.58
					c0,11.49,4.29,21.97,11.36,29.93l0.73,0.65l5.56-6.25l-1.23-1.1c-5.3-6.41-8.47-14.62-8.47-23.59
					c0-20.48,16.6-37.07,37.08-37.07c8.32,0,15.99,2.74,22.19,7.37l0.75-1.63l4.09-4.52C368.57,406.67,360.42,403.48,351.56,402.86z
					"/>
			</g>
			<g>
				<path class="st1" d="M311.17,447.52c0,8.96,3.18,17.17,8.47,23.59l1.23,1.1l24.74-27.83c0.95-1.08,2.29-1.62,3.64-1.62
					c1.16,0,2.32,0.41,3.25,1.23c2.01,1.78,2.18,4.88,0.41,6.89l-24.56,27.62l1.14,1.01c5.5,3.24,11.91,5.09,18.77,5.09
					c20.47,0,37.07-16.59,37.07-37.07c0-8.96-3.18-17.17-8.46-23.59c-1.89-2.28-4.05-4.34-6.42-6.12
					c-6.19-4.63-13.86-7.37-22.19-7.37C327.77,410.44,311.17,427.04,311.17,447.52z"/>
			</g>
			<g>
				<polygon class="st0" points="316.66,198.02 318.2,216.51 324.43,215.99 337.5,214.89 343.9,214.37 342.14,202.17 				"/>
			</g>
			<g>
				<path class="st0" d="M392.71,439.57c-0.82-4.42-2.29-8.63-4.31-12.5c-1.64-3.16-3.64-6.1-5.96-8.77l-4.68,5.18l-0.9,0.46
					c5.29,6.41,8.46,14.62,8.46,23.59c0,20.48-16.6,37.07-37.07,37.07c-6.85,0-13.26-1.86-18.77-5.09l-1.14-1.01l-5.68,6.4
					l0.46,0.41c7.2,4.87,15.88,7.71,25.23,7.71c24.93,0,45.12-20.21,45.12-45.13C393.48,445.04,393.21,442.26,392.71,439.57z"/>
			</g>
			<g>
				<path class="st1" d="M340.71,257.74l-1.06-14.13l-2.15-28.72l-13.07,1.1l2.07,27.63l1.13,15.12l10.77,144.01l0.23,1.06
					c3.13-0.69,6.38-1.06,9.72-1.06c1.08,0,2.15,0.04,3.21,0.11L340.71,257.74z"/>
			</g>
			<g>
				<polygon class="st1" points="339.66,243.62 340.71,257.74 560.94,329.19 562.08,329.11 561.08,315.19 560.44,315.24 				"/>
			</g>
			<g>
				<path class="st0" d="M371.19,416.18l-0.75,1.63c2.37,1.78,4.54,3.84,6.42,6.12l0.9-0.46l4.68-5.18
					c-2.14-2.46-4.55-4.69-7.17-6.64L371.19,416.18z"/>
			</g>
			<g>
				<path class="st1" d="M387.52,398.11l-12.24,13.55c2.62,1.95,5.02,4.18,7.17,6.64l11.99-13.26l4.93-5.45
					c1.8-2,1.64-5.09-0.35-6.9c-0.93-0.84-2.11-1.25-3.28-1.25c-1.33,0-2.67,0.54-3.62,1.6L387.52,398.11z"/>
			</g>
			<g>
				<path class="st0" d="M386.26,393.56c0,1.58,0.42,3.17,1.26,4.56l4.6-5.07c0.95-1.07,2.29-1.6,3.62-1.6
					c1.17,0,2.34,0.41,3.28,1.25c1.99,1.81,2.14,4.9,0.35,6.9l-4.93,5.45l11.08,11.19l0.49,0.85l15.89-9.01l-0.35-0.62l-20.27-20.15
					c-3.43-3.42-9.04-3.4-12.46,0.04C387.11,389.06,386.26,391.3,386.26,393.56z"/>
			</g>
			<g>
				<path class="st1" d="M406,417.08l-17.6,9.99c2.02,3.88,3.49,8.08,4.31,12.5l24-13.71l12.7-7.26l132.74-75.86l0.87-0.5
					l-0.94-13.13l-1.14,0.08l-139.05,78.88L406,417.08z"/>
			</g>
			<g>
				<path class="st0" d="M416.72,425.86l0.97,1.69c3.21,1.33,7.05,0.68,9.64-1.92c1.71-1.72,2.55-3.96,2.56-6.21l-0.48-0.82
					L416.72,425.86z"/>
			</g>
			<g>
				<path class="st1" d="M548.08,255.62l-43.33,2.07l-24.82-25.76l-13.01,2.91l32.74,34.31l48.41-2.17l2.84,2.46
					c6.2-8.97,0-15.77,0-15.77l-2.84,1.82L548.08,255.62z"/>
			</g>
			<g>
				<path class="st0" d="M590.03,375.73c-2.44,0.3-4.86,0.71-7.3,1.22c-7,1.42-14,3.63-20.94,6.62l0.04,0.87l0.89,19.83
					c19.69-9.04,40.03-10.72,58.88-3.46c47.13,18.15,64.77,86.29,39.4,152.21c-25.37,65.92-84.16,104.66-131.29,86.51
					c-47.13-18.14-64.77-86.29-39.4-152.21c14.18-36.84,37.95-64.73,65.14-79.41l-0.86-20.69c-33.76,16.23-62.52,48.43-79.25,91.93
					c-29.51,76.68-5.88,157.13,52.78,179.71c58.67,22.58,130.15-21.26,159.66-97.94c29.5-76.67,5.87-157.13-52.79-179.71
					C620.33,375.56,605.19,373.8,590.03,375.73z"/>
			</g>
			<g>
				<path class="st1" d="M490.33,487.31c-25.37,65.93-7.73,134.08,39.4,152.21c47.13,18.15,105.91-20.59,131.29-86.51
					c25.37-65.93,7.73-134.07-39.4-152.21c-18.86-7.26-39.2-5.58-58.88,3.46l0.39,8.72l0.27-0.01c6.94-3.74,13.76-6.32,20.5-7.73
					c2.34-0.49,4.68-0.84,7.01-1.04c8.84-0.79,17.55,0.48,26.24,3.82c41.5,15.97,55.94,78.8,32.26,140.32
					c-23.68,61.52-76.52,98.44-118.02,82.47c-41.5-15.96-55.94-78.8-32.26-140.32c12.93-33.6,32.99-58.91,56.73-73.22l-0.39-9.36
					C528.27,422.58,504.5,450.47,490.33,487.31z"/>
			</g>
			<g>
				<path class="st0" d="M574.49,252.55l-23.58,1.13c0,0,6.2,6.8,0,15.77l6.87-0.32l14.8-0.71l4.29-0.2c0,0,0.93-1.1,1.55-2.94
					c0.85-2.54,1.13-6.5-2.4-10.97C575.59,253.72,575.08,253.14,574.49,252.55z"/>
			</g>
			<g>
				<path class="st1" d="M575.67,341.64c-1.57-0.52-3.23-0.77-4.91-0.72c-3.01,0.1-5.84,0.94-8.29,2.36
					c-5.4,3.11-9.03,8.94-9.03,15.54c0,0.19,0,0.39,0.01,0.59l1.16,27.8l0.86,20.69l0.39,9.36l4.58,110.11
					c0.04-2.18,0.36-4.47,0.98-6.77c1.41-5.14,4.11-9.4,7.34-12.15l-1.35-0.11l-4.28-95.36l-0.39-8.72l-0.89-19.83l-0.04-0.87
					l-0.84-18.81c0-0.12-0.01-0.23-0.01-0.36c0-5.65,4.54-10.37,10.23-10.57c5.82-0.19,10.9,5.96,11.09,11.77l0.47,11.34
					c2.44-0.51,4.86-0.91,7.3-1.22l-0.49-14.86C589.27,352.71,583.31,344.15,575.67,341.64z"/>
			</g>
			<g>
				<path class="st1" d="M557.79,269.12l0.05,1.15l3.24,44.92l1,13.92l0.94,13.13l-0.87,0.5l0.31,0.55
					c2.46-1.42,5.28-2.26,8.29-2.36c1.68-0.05,3.34,0.2,4.91,0.72l-2.99-71.38l-0.09-1.86L557.79,269.12z"/>
			</g>
			<g>
				<path class="st1" d="M560.43,527.37c-0.02,0.96,0.02,1.9,0.12,2.81L560.43,527.37z"/>
			</g>
			<g>
				<path class="st1" d="M560.43,527.37l0.12,2.81c0.63,6.3,3.74,11.3,8.54,12.6c1.15,0.31,2.31,0.4,3.48,0.28
					c6.05-0.63,12.07-6.81,14.43-15.46c1.94-7.07,0.93-13.96-2.17-18.23c-1.42-1.95-3.28-3.35-5.5-3.96
					c-3.54-0.96-7.33,0.26-10.58,3.02c-3.23,2.75-5.93,7.01-7.34,12.15C560.78,522.91,560.47,525.19,560.43,527.37z"/>
			</g>
			<g>
				<path class="st1" d="M572.56,543.07l0.02,0.27c1.45,2.12,3.02,2.68,5.37,3.32c7.06,1.94,15.08-4.86,17.9-15.17
					c1.74-6.33,1.12-12.51-1.26-16.8c-1.49-2.7-3.67-4.64-6.4-5.39c-1.68-0.47-1.56-0.46-3.27,0l-0.1,0.08
					c3.11,4.26,4.11,11.15,2.17,18.23C584.63,536.26,578.61,542.44,572.56,543.07z"/>
			</g>
			<g>
				<path class="st1" d="M600.57,253.12l-24.54,1.18c3.52,4.48,3.25,8.43,2.4,10.97l0.55,0.18l28.25-1.31l21.97-37.97l-11.66-2.35
					L600.57,253.12z"/>
			</g>
			<g>
				<path class="st1" d="M583.89,405.24l0.06,1.19l4.24,102.88c2.73,0.75,4.91,2.69,6.4,5.39L591,405.41l-0.1-1.21
					C588.57,404.4,586.23,404.75,583.89,405.24z"/>
			</g>
		</g>
		<g>
			<g>
				<path class="st0" d="M554.16,645.55c16.45,0,33.64-5.57,50.2-16.48c25.06-16.51,45.68-43.33,58.07-75.5
					c25.63-66.6,7.56-135.76-40.27-154.18c-18.67-7.19-39.44-5.97-60.07,3.5c-0.76,0.35-1.1,1.25-0.75,2.02
					c0.35,0.76,1.25,1.1,2.02,0.75c19.86-9.12,39.82-10.31,57.7-3.42c46.27,17.82,63.55,85.22,38.52,150.25
					c-12.16,31.59-32.37,57.89-56.9,74.05c-24.38,16.06-50.09,20.18-72.42,11.58c-22.32-8.59-38.65-28.89-45.96-57.15
					c-7.36-28.44-4.72-61.51,7.44-93.1c13.73-35.68,36.61-63.59,64.44-78.61c0.74-0.4,1.02-1.32,0.62-2.06
					c-0.4-0.74-1.33-1.01-2.06-0.62c-28.46,15.36-51.84,43.85-65.83,80.2c-12.38,32.18-15.06,65.9-7.54,94.96
					c7.57,29.24,24.55,50.27,47.82,59.22C537.17,644.02,545.56,645.54,554.16,645.55z"/>
			</g>
			<g>
				<path class="st0" d="M551.78,636.08c15,0,30.84-5.48,46.17-16.19c22.54-15.75,41.32-40.96,52.88-71
					c23.94-62.21,9.08-126.04-33.14-142.29c-8.85-3.4-17.9-4.72-26.92-3.91c-2.29,0.19-4.71,0.55-7.19,1.06
					c-6.83,1.43-13.87,4.08-20.91,7.88c-0.74,0.4-1.02,1.32-0.62,2.06c0.4,0.74,1.33,1.01,2.06,0.62
					c6.79-3.66,13.55-6.21,20.09-7.58c2.38-0.5,4.62-0.83,6.83-1.01c8.67-0.78,17.03,0.44,25.56,3.72
					c40.65,15.65,54.73,77.71,31.39,138.35c-11.34,29.47-29.73,54.19-51.78,69.6c-21.87,15.28-44.69,19.54-64.28,12
					c-19.58-7.53-33.66-26-39.64-52c-6.03-26.21-3.1-56.88,8.25-86.36c12.67-32.92,32.07-57.98,56.1-72.47
					c0.72-0.43,0.95-1.37,0.52-2.09c-0.43-0.72-1.37-0.95-2.09-0.52c-24.62,14.84-44.46,40.42-57.37,73.98
					c-11.56,30.04-14.53,61.34-8.37,88.13c6.21,27.01,20.95,46.25,41.51,54.16C537.52,634.8,544.55,636.08,551.78,636.08z"/>
			</g>
			<g>
				<path class="st0" d="M560.24,666.28c51.18,0,104.51-41.26,128.98-104.82c29.76-77.33,5.68-158.83-53.67-181.67
					c-14.75-5.68-30.13-7.55-45.71-5.57c-2.44,0.31-4.94,0.72-7.42,1.24c-7.06,1.43-14.2,3.69-21.23,6.71
					c-0.77,0.33-1.13,1.23-0.8,2c0.33,0.77,1.23,1.13,2,0.8c6.83-2.94,13.78-5.13,20.64-6.52c2.41-0.5,4.82-0.9,7.18-1.2
					c15.08-1.92,29.96-0.1,44.23,5.39c57.79,22.24,81.08,101.98,51.92,177.74c-29.16,75.76-99.91,119.3-157.7,97.06
					c-57.79-22.24-81.07-101.98-51.91-177.74c16.25-42.23,44.12-74.58,78.49-91.1c0.76-0.36,1.08-1.27,0.71-2.03
					c-0.36-0.76-1.27-1.08-2.03-0.71c-35.07,16.86-63.49,49.8-80.02,92.75c-29.76,77.33-5.69,158.83,53.66,181.67
					C538.16,664.34,549.15,666.28,560.24,666.28z"/>
			</g>
			<g>
				<path class="st0" d="M560.55,531.7c0.02,0,0.04,0,0.07,0c0.84-0.04,1.49-0.75,1.45-1.59l-0.12-2.81l-6.98-167.95
					c-0.01-0.19-0.01-0.36-0.01-0.53c0-5.84,3.17-11.28,8.27-14.22c2.29-1.33,4.91-2.07,7.58-2.16c1.46-0.04,2.95,0.17,4.38,0.65
					c6.93,2.28,12.57,10.11,12.83,17.83l0.52,15.79c0.03,0.82,0.7,1.47,1.52,1.47c0.02,0,0.03,0,0.05,0
					c0.84-0.03,1.5-0.73,1.47-1.57l-0.52-15.79c-0.3-8.92-6.85-17.97-14.92-20.62c-1.77-0.58-3.59-0.85-5.43-0.8
					c-3.18,0.11-6.29,1-9.01,2.57c-6.04,3.47-9.79,9.93-9.79,16.86c0,0.22,0,0.43,0.01,0.66l7.1,170.76
					C559.06,531.07,559.74,531.7,560.55,531.7z"/>
			</g>
			<g>
				<path class="st0" d="M594.6,516.22c0.02,0,0.03,0,0.05,0c0.84-0.03,1.5-0.73,1.47-1.57l-3.59-109.28
					c-0.03-0.84-0.77-1.51-1.57-1.47c-0.84,0.03-1.5,0.73-1.47,1.57l3.59,109.28C593.1,515.57,593.78,516.22,594.6,516.22z"/>
			</g>
			<g>
				<path class="st0" d="M567.4,509.86c0.02,0,0.05,0,0.07,0c0.84-0.04,1.49-0.75,1.45-1.59l-5.56-123.91
					c-0.04-0.84-0.74-1.53-1.59-1.45c-0.84,0.04-1.49,0.75-1.45,1.59l5.56,123.91C565.91,509.23,566.59,509.86,567.4,509.86z"/>
			</g>
			<g>
				<path class="st0" d="M561.84,385.96c0.02,0,0.05,0,0.07,0c0.84-0.04,1.49-0.75,1.45-1.59l-0.88-19.68c0-0.01,0-0.09,0-0.17
					l0-0.11c0-4.82,3.93-8.88,8.76-9.04c2.24-0.08,4.61,1.07,6.47,3.13c1.83,2.02,2.96,4.7,3.05,7.17l0.52,12.54
					c0.04,0.84,0.72,1.49,1.59,1.45c0.84-0.04,1.49-0.75,1.45-1.59l-0.52-12.52c-0.11-3.2-1.5-6.52-3.83-9.1
					c-2.47-2.73-5.67-4.24-8.84-4.13c-6.45,0.22-11.7,5.64-11.7,12.09c0,0.08,0,0.16,0.01,0.24l0,0.11l0.89,19.75
					C560.35,385.32,561.03,385.96,561.84,385.96z"/>
			</g>
			<g>
				<path class="st0" d="M588.19,510.83c0.02,0,0.04,0,0.06,0c0.84-0.03,1.49-0.74,1.46-1.58l-4.24-102.88
					c-0.03-0.84-0.74-1.5-1.58-1.46c-0.84,0.03-1.49,0.74-1.46,1.58l4.24,102.88C586.71,510.19,587.38,510.83,588.19,510.83z"/>
			</g>
			<g>
				<path class="st0" d="M568.68,544.26c-5.24-1.43-8.93-6.77-9.65-13.9c-0.11-0.98-0.15-1.99-0.13-3.01
					c0.04-2.38,0.39-4.78,1.04-7.14c1.44-5.26,4.22-9.84,7.82-12.9l0,0c3.79-3.22,8.04-4.41,11.96-3.33
					c2.47,0.68,4.66,2.24,6.33,4.53c3.48,4.77,4.4,12.26,2.41,19.52c-2.47,9.05-8.95,15.86-15.75,16.57
					c-0.38,0.04-0.75,0.05-1.13,0.05C570.59,544.64,569.62,544.51,568.68,544.26z M569.73,509.61L569.73,509.61
					c-3.14,2.67-5.57,6.72-6.86,11.39c-0.58,2.12-0.89,4.27-0.93,6.4c-0.02,0.89,0.02,1.77,0.11,2.63
					c0.59,5.87,3.43,10.2,7.42,11.29c0.93,0.25,1.92,0.33,2.92,0.24c5.57-0.58,10.97-6.48,13.12-14.34
					c1.75-6.4,1.01-12.88-1.93-16.93c-1.27-1.75-2.85-2.89-4.67-3.39c-0.67-0.18-1.36-0.27-2.06-0.27
					C574.51,506.62,572.05,507.65,569.73,509.61z"/>
			</g>
			<g>
				<path class="st0" d="M580.44,548.52c3.05,0,6.18-1.26,9.04-3.69c3.61-3.06,6.4-7.66,7.85-12.94c1.77-6.46,1.25-13.17-1.4-17.94
					c-1.75-3.16-4.28-5.28-7.33-6.12l-0.12-0.03c-1.75-0.48-2.03-0.49-3.73-0.03l-0.21,0.06c-0.81,0.22-1.29,1.05-1.08,1.86
					c0.22,0.81,1.05,1.29,1.86,1.08l0.22-0.06c1.04-0.28,1.04-0.28,2.13,0.02l0.12,0.03c2.24,0.62,4.13,2.23,5.48,4.66
					c2.27,4.09,2.69,9.95,1.12,15.66c-1.29,4.69-3.73,8.75-6.88,11.42c-2.99,2.53-6.24,3.48-9.15,2.69
					c-2.28-0.62-3.39-1.06-4.52-2.71c-0.47-0.69-1.42-0.87-2.12-0.4c-0.69,0.47-0.87,1.42-0.4,2.12c1.74,2.54,3.68,3.23,6.22,3.93
					C578.5,548.39,579.46,548.52,580.44,548.52z"/>
			</g>
			<g>
				<path class="st0" d="M575.67,343.17c0.01,0,0.02,0,0.03,0c0.83-0.02,1.49-0.69,1.49-1.52l-2.99-71.45
					c-0.04-0.84-0.74-1.49-1.58-1.46c-0.84,0.04-1.49,0.74-1.46,1.58l2.99,71.38C574.18,342.53,574.86,343.17,575.67,343.17z"/>
			</g>
			<g>
				<path class="st0" d="M563.02,343.77c0.04,0,0.07,0,0.11,0c0.84-0.06,1.47-0.79,1.41-1.63l-5.19-71.98
					c-0.06-0.84-0.82-1.46-1.63-1.41c-0.84,0.06-1.47,0.79-1.41,1.63l5.19,71.98C561.56,343.15,562.23,343.77,563.02,343.77z"/>
			</g>
			<g>
				<path class="st0" d="M549.58,270.18c-0.28-0.51-0.25-1.13,0.08-1.6c5.4-7.81,0.35-13.63,0.12-13.88
					c-0.39-0.44-0.5-1.06-0.28-1.6c0.23-0.55,0.75-0.91,1.34-0.94l23.58-1.13c0.43-0.02,0.85,0.14,1.15,0.45
					c0.58,0.58,1.12,1.2,1.66,1.88c3.94,5.01,3.61,9.51,2.64,12.4c-0.69,2.07-1.72,3.31-1.84,3.45c-0.27,0.32-0.67,0.51-1.09,0.53
					l-25.96,1.24c-0.02,0-0.05,0-0.07,0C550.36,270.97,549.85,270.67,549.58,270.18z M576.99,264.78c0.73-2.18,0.95-5.6-2.15-9.55
					c-0.32-0.4-0.64-0.78-0.96-1.13l-20.26,0.97c1.35,2.65,2.69,7.25,0.03,12.72l22.42-1.07
					C576.33,266.3,576.7,265.63,576.99,264.78z"/>
			</g>
			<g>
				<path class="st0" d="M504.76,259.22c0.02,0,0.05,0,0.07,0l46.16-2.2c0.84-0.04,1.49-0.75,1.45-1.59
					c-0.04-0.84-0.72-1.48-1.59-1.45l-46.16,2.2c-0.84,0.04-1.49,0.75-1.45,1.59C503.28,258.58,503.95,259.22,504.76,259.22z"/>
			</g>
			<g>
				<path class="st0" d="M576.03,255.82c0.02,0,0.05,0,0.07,0l24.54-1.18c0.84-0.04,1.49-0.75,1.45-1.59
					c-0.04-0.84-0.75-1.49-1.59-1.45l-24.54,1.18c-0.84,0.04-1.49,0.75-1.45,1.59C574.55,255.18,575.23,255.82,576.03,255.82z"/>
			</g>
			<g>
				<path class="st0" d="M578.98,266.97c0.02,0,0.05,0,0.07,0l28.25-1.31c0.84-0.04,1.49-0.75,1.45-1.59
					c-0.04-0.84-0.77-1.48-1.59-1.45l-28.25,1.31c-0.84,0.04-1.49,0.75-1.45,1.59C577.5,266.33,578.17,266.97,578.98,266.97z"/>
			</g>
			<g>
				<path class="st0" d="M499.66,270.68c0.02,0,0.05,0,0.07,0l51.25-2.3c0.84-0.04,1.49-0.75,1.45-1.59
					c-0.04-0.84-0.75-1.48-1.59-1.45l-2.84,0.13l-48.41,2.17c-0.84,0.04-1.49,0.75-1.45,1.59
					C498.18,270.05,498.85,270.68,499.66,270.68z"/>
			</g>
			<g>
				<path class="st0" d="M499.66,270.68c0.38,0,0.76-0.14,1.05-0.42c0.61-0.58,0.63-1.54,0.05-2.15l-30.88-32.37l9.55-2.14
					l24.23,25.14c0.58,0.61,1.55,0.62,2.15,0.04c0.61-0.58,0.62-1.55,0.04-2.15l-24.82-25.76c-0.37-0.38-0.91-0.55-1.43-0.43
					l-13.01,2.91c-0.54,0.12-0.96,0.52-1.12,1.04c-0.16,0.53-0.02,1.1,0.36,1.49l32.74,34.31
					C498.86,270.53,499.26,270.68,499.66,270.68z"/>
			</g>
			<g>
				<path class="st0" d="M607.23,265.66c0.53,0,1.04-0.27,1.32-0.76l21.97-37.97c0.25-0.42,0.27-0.94,0.07-1.39
					c-0.2-0.45-0.61-0.77-1.09-0.87l-11.66-2.35c-0.65-0.13-1.29,0.16-1.62,0.73l-16.97,29.3c-0.42,0.73-0.17,1.66,0.55,2.08
					c0.72,0.42,1.66,0.17,2.08-0.55l16.42-28.35l8.51,1.72l-20.91,36.13c-0.42,0.73-0.17,1.66,0.55,2.08
					C606.71,265.59,606.97,265.66,607.23,265.66z"/>
			</g>
			<g>
				<path class="st0" d="M560.94,330.71c0.64,0,1.24-0.41,1.45-1.05c0.26-0.8-0.18-1.66-0.98-1.92L341.18,256.3
					c-0.15-0.05-0.31-0.07-0.47-0.07c-0.84,0-1.53,0.68-1.53,1.52c0,0.71,0.49,1.31,1.14,1.48l220.15,71.42
					C560.63,330.69,560.79,330.71,560.94,330.71z"/>
			</g>
			<g>
				<path class="st0" d="M560.44,316.76c0.64,0,1.24-0.41,1.45-1.05c0.26-0.8-0.18-1.66-0.98-1.92l-220.78-71.62
					c-0.15-0.05-0.31-0.07-0.47-0.07c-0.84,0-1.53,0.68-1.53,1.52c0,0.71,0.49,1.31,1.14,1.48l220.69,71.59
					C560.12,316.74,560.28,316.76,560.44,316.76z"/>
			</g>
			<g>
				<path class="st0" d="M338.39,404.27c0.04,0,0.08,0,0.12,0c0.84-0.06,1.47-0.79,1.4-1.63l-13.96-186.76
					c-0.06-0.84-0.81-1.47-1.63-1.4c-0.84,0.06-1.47,0.79-1.4,1.63l13.96,186.76C336.94,403.66,337.61,404.27,338.39,404.27z"/>
			</g>
			<g>
				<path class="st0" d="M351.56,404.39c0.84,0,1.52-0.68,1.52-1.52v-0.01c0-0.04,0-0.08,0-0.11l-14.06-187.97
					c-0.06-0.84-0.81-1.47-1.63-1.4c-0.84,0.06-1.47,0.79-1.4,1.63l14.06,187.96C350.09,403.76,350.75,404.39,351.56,404.39z"/>
			</g>
			<g>
				<path class="st0" d="M392.71,441.1c0.29,0,0.59-0.09,0.84-0.26l170.22-97.28c0.73-0.42,0.99-1.35,0.57-2.08
					c-0.42-0.73-1.35-0.99-2.08-0.57l-0.87,0.5l-169.44,96.83c-0.12,0.07-0.23,0.15-0.32,0.25c-0.59,0.59-0.6,1.56,0,2.16
					C391.93,440.95,392.32,441.1,392.71,441.1z"/>
			</g>
			<g>
				<path class="st0" d="M388.4,428.59c0.25,0,0.51-0.06,0.75-0.2l172.54-97.88c0.73-0.41,0.99-1.34,0.57-2.08
					c-0.42-0.73-1.35-0.99-2.08-0.57l-172.54,97.88c-0.73,0.42-0.99,1.34-0.57,2.08C387.36,428.31,387.87,428.59,388.4,428.59z"/>
			</g>
			<g>
				<path class="st0" d="M305.49,434.76c0.61,0,1.18-0.36,1.42-0.96c0.31-0.78-0.07-1.67-0.86-1.98l-140.7-55.68
					c-0.77-0.31-1.67,0.07-1.98,0.86c-0.31,0.78,0.07,1.67,0.86,1.98l140.7,55.68C305.12,434.73,305.31,434.76,305.49,434.76z"/>
			</g>
			<g>
				<path class="st0" d="M311.67,423.1c0.61,0,1.18-0.36,1.42-0.96c0.31-0.78-0.07-1.67-0.86-1.98L172.7,364.95
					c-0.78-0.31-1.67,0.07-1.98,0.86c-0.31,0.78,0.07,1.67,0.86,1.98l139.54,55.21C311.3,423.07,311.49,423.1,311.67,423.1z"/>
			</g>
			<g>
				<path class="st0" d="M171.55,360c0.28,0,0.57-0.08,0.82-0.24l154.57-99.63c0.71-0.46,0.91-1.4,0.45-2.1
					c-0.46-0.71-1.4-0.91-2.1-0.45L170.72,357.2c-0.71,0.46-0.91,1.4-0.45,2.1C170.56,359.76,171.05,360,171.55,360z"/>
			</g>
			<g>
				<path class="st0" d="M163.83,349.45c0.28,0,0.57-0.08,0.82-0.24l162.24-104.28c0.71-0.45,0.91-1.4,0.46-2.1
					c-0.45-0.71-1.4-0.91-2.1-0.46L163,346.65c-0.71,0.45-0.91,1.4-0.46,2.1C162.83,349.2,163.33,349.45,163.83,349.45z"/>
			</g>
			<g>
				<path class="st0" d="M316.68,216.63l-1.54-18.49c-0.04-0.47,0.14-0.93,0.48-1.24c0.34-0.32,0.82-0.46,1.28-0.39l25.48,4.15
					c0.66,0.11,1.17,0.63,1.26,1.29l1.76,12.2c0.06,0.42-0.05,0.84-0.32,1.17c-0.26,0.33-0.65,0.53-1.07,0.57l-19.46,1.62
					c0,0,0,0,0,0l-6.23,0.52c-0.04,0-0.09,0.01-0.13,0.01C317.42,218.03,316.75,217.43,316.68,216.63z M342.16,212.98l-1.37-9.49
					l-22.46-3.66l1.25,15.03l4.71-0.39L342.16,212.98z"/>
			</g>
			<g>
				<path class="st0" d="M348.35,494.53c25.72,0,46.64-20.93,46.64-46.65c0-2.87-0.26-5.76-0.79-8.58
					c-0.84-4.51-2.34-8.86-4.46-12.93c-1.7-3.26-3.77-6.31-6.16-9.06c-2.23-2.55-4.72-4.86-7.41-6.86
					c-7.16-5.33-15.64-8.48-24.52-9.1c-1.14-0.08-2.25-0.12-3.31-0.12c-3.39,0-6.77,0.37-10.05,1.09
					c-11.22,2.46-21.12,8.99-27.86,18.37c-2.68,3.72-4.78,7.8-6.24,12.11c-1.66,4.85-2.5,9.92-2.5,15.07
					c0,11.42,4.17,22.41,11.74,30.94c0.56,0.63,1.52,0.68,2.15,0.13c0.63-0.56,0.69-1.52,0.13-2.15
					c-7.08-7.97-10.97-18.24-10.97-28.92c0-4.82,0.78-9.56,2.33-14.09c1.37-4.03,3.33-7.83,5.83-11.31
					c6.31-8.77,15.56-14.87,26.05-17.17c3.07-0.68,6.23-1.02,9.4-1.02c1,0,2.04,0.04,3.1,0.11c8.29,0.58,16.22,3.52,22.91,8.5
					c2.52,1.87,4.85,4.03,6.93,6.42c2.23,2.57,4.17,5.42,5.76,8.47c1.98,3.8,3.38,7.87,4.17,12.08c0.49,2.64,0.74,5.34,0.74,8.02
					c0,24.05-19.56,43.61-43.6,43.61c-8.75,0-17.18-2.58-24.38-7.45c-0.7-0.47-1.64-0.29-2.11,0.41c-0.47,0.7-0.29,1.64,0.41,2.11
					C329.98,491.77,339,494.53,348.35,494.53z"/>
			</g>
			<g>
				<path class="st0" d="M348.25,486.11c21.28,0,38.6-17.31,38.6-38.6c0-8.94-3.13-17.66-8.81-24.55c-1.97-2.38-4.22-4.52-6.69-6.37
					c-6.71-5.02-14.7-7.67-23.1-7.67c-21.29,0-38.61,17.31-38.61,38.6c0,8.95,3.13,17.67,8.82,24.55c0.53,0.65,1.49,0.74,2.14,0.2
					c0.65-0.54,0.74-1.49,0.2-2.14c-5.24-6.34-8.13-14.38-8.13-22.62c0-19.6,15.95-35.55,35.56-35.55c7.73,0,15.09,2.44,21.27,7.06
					c2.28,1.7,4.35,3.68,6.16,5.87c5.23,6.35,8.12,14.38,8.12,22.62c0,19.6-15.95,35.55-35.55,35.55c-6.34,0-12.56-1.69-17.99-4.88
					c-0.72-0.42-1.66-0.19-2.08,0.54c-0.43,0.72-0.18,1.66,0.54,2.08C334.61,484.28,341.37,486.11,348.25,486.11z"/>
			</g>
			<g>
				<path class="st0" d="M290.26,414.63c0.63,0,1.23-0.4,1.44-1.03c5.55-16.3,8.74-34.14,8.74-48.95c0-28.16-6.97-52.79-21.31-75.3
					c-0.45-0.71-1.39-0.92-2.1-0.47c-0.71,0.45-0.92,1.39-0.47,2.1c14.02,22.01,20.83,46.11,20.83,73.67
					c0,14.49-3.13,31.97-8.58,47.97c-0.27,0.8,0.15,1.66,0.95,1.93C289.93,414.6,290.1,414.63,290.26,414.63z"/>
			</g>
			<g>
				<path class="st0" d="M156.85,508.23c27.55,0,54.32-7.83,77.41-22.64c22.48-14.42,40.48-34.73,52.04-58.75
					c0.36-0.76,0.05-1.67-0.71-2.03c-0.76-0.36-1.67-0.05-2.03,0.71c-11.32,23.5-28.93,43.39-50.94,57.5
					c-22.6,14.49-48.8,22.16-75.77,22.16c-77.49,0-140.54-63.05-140.54-140.54c0-77.5,63.05-140.54,140.54-140.54
					c44.2,0,84.95,20.18,111.79,55.35c0.51,0.67,1.47,0.8,2.13,0.29c0.67-0.51,0.8-1.47,0.29-2.13
					c-27.42-35.94-69.05-56.55-114.21-56.55c-79.17,0-143.59,64.41-143.59,143.59C13.27,443.82,77.68,508.23,156.85,508.23z"/>
			</g>
			<g>
				<path class="st0" d="M264.79,404.27c0.63,0,1.22-0.4,1.44-1.03c2.82-8.26,7.56-24.47,7.56-40.17c0-22.23-5.34-41.83-16.33-59.92
					c-0.44-0.72-1.37-0.95-2.09-0.51c-0.72,0.44-0.95,1.37-0.51,2.09c10.69,17.6,15.89,36.68,15.89,58.34
					c0,15.27-4.64,31.11-7.4,39.19c-0.27,0.8,0.15,1.66,0.95,1.93C264.46,404.25,264.62,404.27,264.79,404.27z"/>
			</g>
			<g>
				<path class="st0" d="M155.84,481.02c44.46,0,84.7-24.59,105.01-64.18c0.38-0.75,0.09-1.67-0.66-2.05
					c-0.75-0.38-1.67-0.09-2.05,0.66c-19.78,38.57-58.98,62.52-102.3,62.52c-63.36,0-114.91-51.55-114.91-114.91
					s51.55-114.91,114.91-114.91c37.2,0,70.69,16.74,91.91,45.93c0.5,0.68,1.45,0.83,2.13,0.34c0.68-0.49,0.83-1.45,0.34-2.13
					c-21.79-29.98-56.19-47.18-94.37-47.18c-65.04,0-117.95,52.91-117.95,117.95S90.8,481.02,155.84,481.02z"/>
			</g>
			<g>
				<path class="st0" d="M253.93,399.55c0.63,0,1.21-0.39,1.43-1.01c4.08-11.49,6.15-23.56,6.15-35.88
					c0-19.05-4.66-36.81-13.86-52.79c-0.42-0.73-1.35-0.98-2.08-0.56c-0.73,0.42-0.98,1.35-0.56,2.08
					c8.93,15.52,13.46,32.77,13.46,51.27c0,11.97-2.01,23.7-5.97,34.86c-0.28,0.79,0.13,1.66,0.92,1.94
					C253.59,399.53,253.76,399.55,253.93,399.55z"/>
			</g>
			<g>
				<path class="st0" d="M154.19,469.98c40.14,0,76.61-22.12,95.19-57.72c0.39-0.75,0.1-1.66-0.65-2.05
					c-0.74-0.39-1.67-0.1-2.05,0.65c-18.05,34.6-53.49,56.09-92.49,56.09c-57.49,0-104.27-46.78-104.27-104.27
					c0-57.49,46.78-104.27,104.27-104.27c33.2,0,63.66,15.27,83.57,41.9c0.5,0.67,1.46,0.81,2.13,0.31c0.67-0.5,0.81-1.46,0.31-2.13
					c-20.49-27.41-51.83-43.12-86-43.12c-59.17,0-107.31,48.14-107.31,107.31C46.88,421.84,95.02,469.98,154.19,469.98z"/>
			</g>
			<g>
				<path class="st0" d="M134.72,363.07c0-10.74,8.74-19.48,19.48-19.48c3.73,0,7.34,1.06,10.45,3.05c4.15,2.64,7.12,6.7,8.36,11.44
					c0.43,1.6,0.65,3.28,0.65,4.99c0,1.17-0.11,2.36-0.32,3.52c-0.89,4.91-3.61,9.24-7.66,12.19c-3.34,2.46-7.31,3.76-11.49,3.76
					C143.45,382.53,134.72,373.8,134.72,363.07z M137.76,363.07c0,9.05,7.37,16.42,16.43,16.42c3.52,0,6.87-1.09,9.69-3.17
					c3.42-2.49,5.71-6.14,6.46-10.28c0.18-0.98,0.27-1.98,0.27-2.97c0-1.44-0.18-2.85-0.55-4.2c-1.05-4-3.56-7.43-7.06-9.66
					c0,0,0,0-0.01,0c-2.62-1.68-5.66-2.57-8.81-2.57C145.13,346.64,137.76,354.01,137.76,363.07z M163.81,347.93L163.81,347.93
					L163.81,347.93z"/>
			</g>
			<g>
				<path class="st0" d="M139.59,363.07c0-8.05,6.55-14.6,14.6-14.6c8.05,0,14.6,6.55,14.6,14.6s-6.55,14.6-14.6,14.6
					C146.14,377.67,139.59,371.12,139.59,363.07z M142.63,363.07c0,6.37,5.19,11.56,11.56,11.56c6.37,0,11.56-5.19,11.56-11.56
					c0-6.37-5.19-11.56-11.56-11.56C147.82,351.51,142.63,356.7,142.63,363.07z"/>
			</g>
			<g>
				<path class="st0" d="M300.99,501.89c-1.27-1.13-2.03-2.7-2.13-4.41c-0.1-1.71,0.47-3.36,1.6-4.63l4.88-5.49l0,0l39.12-44
					c1.2-1.36,2.95-2.13,4.78-2.13c1.58,0,3.09,0.57,4.26,1.61c1.28,1.13,2.04,2.69,2.13,4.41c0.1,1.71-0.47,3.35-1.6,4.63
					l-44.01,49.49c-1.21,1.35-2.96,2.13-4.79,2.13C303.67,503.5,302.16,502.93,300.99,501.89z M346.75,445.38l-44.01,49.49
					c-0.59,0.67-0.89,1.53-0.84,2.43c0.05,0.9,0.45,1.72,1.11,2.31c1.32,1.18,3.57,1.04,4.75-0.27l44-49.48
					c0.59-0.67,0.89-1.54,0.84-2.44c-0.05-0.9-0.45-1.72-1.11-2.31c-0.61-0.54-1.41-0.84-2.24-0.84
					C348.29,444.27,347.38,444.68,346.75,445.38z"/>
			</g>
			<g>
				<path class="st0" d="M305.94,510.17c0.04,0,0.08,0,0.11,0c2.77-0.03,5.35-1.13,7.28-3.09c1.9-1.94,2.94-4.51,2.94-7.24
					c0-1.89-0.52-3.74-1.49-5.35c-0.26-0.46-0.76-0.78-1.33-0.78c-0.84,0-1.52,0.68-1.52,1.52c0,0.28,0.08,0.56,0.22,0.8
					c0.7,1.15,1.08,2.47,1.08,3.81c0,1.92-0.74,3.74-2.07,5.11c-1.35,1.38-3.18,2.16-5.13,2.18c-1.94-0.01-3.79-0.71-5.18-2.07
					l-26.23-25.65c-1.41-1.37-2.18-3.23-2.18-5.21c0-1.92,0.74-3.74,2.07-5.11c1.35-1.38,3.18-2.16,5.13-2.18
					c1.98-0.02,3.79,0.71,5.18,2.07l20.59,20.46c0.6,0.59,1.56,0.59,2.15-0.01c0.59-0.6,0.59-1.56-0.01-2.15l-20.6-20.47
					c-1.97-1.93-4.58-2.96-7.35-2.95c-2.77,0.03-5.35,1.13-7.28,3.09c-1.9,1.94-2.94,4.51-2.94,7.24c0,2.81,1.1,5.44,3.1,7.39
					l26.22,25.65C300.65,509.13,303.21,510.17,305.94,510.17z"/>
			</g>
			<g>
				<path class="st0" d="M377.76,425c0.42,0,0.83-0.17,1.13-0.5l21.6-23.89c2.36-2.63,2.16-6.68-0.45-9.05
					c-1.18-1.06-2.7-1.64-4.3-1.64c-1.82,0-3.56,0.77-4.76,2.11l-20.92,23.13c-0.56,0.62-0.52,1.59,0.11,2.15
					c0.62,0.56,1.58,0.52,2.15-0.11l20.93-23.14c1.19-1.32,3.45-1.43,4.75-0.25c1.37,1.24,1.47,3.37,0.23,4.75l-21.59,23.89
					c-0.56,0.62-0.52,1.59,0.11,2.15C377.03,424.87,377.4,425,377.76,425z"/>
			</g>
			<g>
				<path class="st0" d="M421.55,408.97c0.39,0,0.78-0.15,1.08-0.45c0.59-0.6,0.59-1.56-0.01-2.15l-20.27-20.15
					c-1.94-1.94-4.52-3-7.3-3c-2.77,0.01-5.37,1.09-7.31,3.04c-1.94,1.95-3,4.53-3,7.28c0,1.9,0.51,3.75,1.48,5.35
					c0.44,0.72,1.37,0.95,2.09,0.51c0.72-0.44,0.95-1.37,0.51-2.09c-0.68-1.12-1.04-2.42-1.04-3.77c0-1.94,0.75-3.77,2.12-5.14
					c1.37-1.38,3.2-2.14,5.16-2.14c0,0,0.01,0,0.02,0c1.94,0,3.77,0.75,5.13,2.11l20.27,20.15
					C420.77,408.83,421.16,408.97,421.55,408.97z"/>
			</g>
			<g>
				<path class="st0" d="M421.09,429.76c2.69,0,5.33-1.06,7.32-3.05c1.92-1.93,2.99-4.52,3-7.28c0-0.84-0.67-1.53-1.52-1.53
					c0,0,0,0-0.01,0c-0.84,0-1.52,0.68-1.52,1.52c-0.01,1.96-0.76,3.78-2.11,5.14c-2.1,2.1-5.23,2.73-7.98,1.59
					c-0.78-0.32-1.67,0.05-1.99,0.82c-0.32,0.78,0.05,1.67,0.82,1.99C418.4,429.5,419.75,429.76,421.09,429.76z"/>
			</g>
			<g>
				<path class="st0" d="M405.51,417.75c0.39,0,0.77-0.15,1.07-0.44c0.6-0.59,0.6-1.56,0.01-2.15l-11.08-11.19
					c-0.59-0.6-1.55-0.6-2.15-0.01c-0.6,0.59-0.6,1.56-0.01,2.15l11.08,11.19C404.73,417.6,405.12,417.75,405.51,417.75z"/>
			</g>
			<g>
				<path class="st0" d="M550.92,270.97c0.43,0,0.85-0.18,1.15-0.53c0.55-0.64,0.48-1.6-0.16-2.15l-2.84-2.46
					c-0.63-0.55-1.6-0.48-2.15,0.16s-0.48,1.6,0.16,2.15l2.84,2.46C550.21,270.85,550.56,270.97,550.92,270.97z"/>
			</g>
			<g>
				<path class="st0" d="M548.08,257.01c0.28,0,0.56-0.08,0.82-0.24l2.84-1.82c0.71-0.45,0.92-1.39,0.46-2.1
					c-0.45-0.71-1.4-0.91-2.1-0.46l-2.84,1.82c-0.71,0.45-0.92,1.39-0.46,2.1C547.08,256.76,547.57,257.01,548.08,257.01z"/>
			</g>
		</g>
	</g>
	<g>
		<g>
			<path class="st0" d="M569.06,538.94c-2.84-0.84-4.95-3.32-5.94-7.01c-0.92-3.42-0.77-7.53,0.42-11.57l0,0
				c2.57-8.75,9.03-14.29,14.7-12.62c2.84,0.84,4.95,3.32,5.94,7.01c0.92,3.42,0.77,7.53-0.42,11.57
				c-2.27,7.7-7.54,12.92-12.64,12.92C570.42,539.24,569.74,539.14,569.06,538.94z M566.45,521.23c-1.03,3.51-1.17,7.03-0.4,9.92
				c0.71,2.62,2.08,4.35,3.86,4.88c3.9,1.15,8.9-3.69,10.92-10.56c1.03-3.51,1.17-7.03,0.4-9.92c-0.71-2.62-2.08-4.35-3.86-4.88
				c-0.39-0.11-0.78-0.17-1.19-0.17C572.51,510.5,568.27,515.04,566.45,521.23z"/>
		</g>
	</g>
	<g>
		<g>
			<g>
				<path class="st1" d="M681.75,550.93c0.67,0,1.28-0.44,1.47-1.12c0.52-1.88,0.98-3.67,1.41-5.38l0.14-0.53
					c0.21-0.81-0.28-1.64-1.1-1.85c-0.82-0.21-1.64,0.28-1.85,1.1l-0.14,0.53c-0.43,1.69-0.89,3.47-1.4,5.33
					c-0.22,0.81,0.25,1.65,1.06,1.87C681.47,550.92,681.61,550.93,681.75,550.93z"/>
			</g>
		</g>
		<g>
			<g>
				<path class="st1" d="M673.26,572.63c0.55,0,1.07-0.29,1.35-0.81c1.49-2.82,2.85-5.7,4.04-8.57c0.32-0.78-0.04-1.67-0.82-1.99
					c-0.78-0.32-1.67,0.04-1.99,0.82c-1.16,2.78-2.48,5.58-3.92,8.32c-0.39,0.74-0.11,1.66,0.64,2.06
					C672.78,572.57,673.02,572.63,673.26,572.63z"/>
			</g>
		</g>
		<g>
			<g>
				<path class="st1" d="M662.43,589.54c0.46,0,0.92-0.21,1.22-0.61c1.25-1.67,2.46-3.35,3.59-5c0.48-0.69,0.3-1.64-0.39-2.12
					c-0.69-0.48-1.64-0.3-2.12,0.39c-1.11,1.62-2.3,3.27-3.52,4.9c-0.5,0.67-0.37,1.63,0.31,2.13
					C661.8,589.44,662.12,589.54,662.43,589.54z"/>
			</g>
		</g>
	</g>
	<g>
		<g>
			<g>
				<path class="st1" d="M666.37,416.6c0.33,0,0.66-0.11,0.94-0.32c0.66-0.52,0.78-1.47,0.26-2.14c-2.4-3.07-3.98-4.7-4.05-4.76
					c-0.59-0.6-1.55-0.61-2.15-0.03c-0.6,0.59-0.61,1.55-0.03,2.15c0.01,0.02,1.54,1.59,3.83,4.51
					C665.47,416.4,665.92,416.6,666.37,416.6z"/>
			</g>
		</g>
		<g>
			<g>
				<path class="st1" d="M687.84,469.37c-0.56-3.84-1.34-7.7-2.3-11.48c-0.21-0.81,0.28-1.64,1.1-1.85c0.82-0.21,1.64,0.28,1.85,1.1
					c0.99,3.89,1.79,7.85,2.37,11.8c0.12,0.83-0.45,1.6-1.29,1.73c-0.08,0.01-0.15,0.02-0.22,0.02
					C688.6,470.67,687.95,470.13,687.84,469.37z M679.91,441.25c-1.53-3.59-3.25-7.13-5.12-10.54c-0.4-0.74-0.13-1.66,0.6-2.07
					c0.74-0.4,1.66-0.13,2.07,0.6c1.92,3.5,3.69,7.14,5.25,10.82c0.33,0.77-0.03,1.67-0.8,2c-0.19,0.08-0.4,0.12-0.59,0.12
					C680.71,442.17,680.15,441.83,679.91,441.25z"/>
			</g>
		</g>
		<g>
			<g>
				<path class="st1" d="M690.34,494.53c0.8,0,1.47-0.62,1.52-1.43c0.13-2.03,0.2-4.11,0.22-6.17c0.01-0.84-0.67-1.53-1.51-1.54
					c-0.01,0-0.01,0-0.02,0c-0.83,0-1.51,0.67-1.52,1.51c-0.02,2.01-0.09,4.03-0.22,6.01c-0.05,0.84,0.58,1.56,1.42,1.61
					C690.27,494.53,690.3,494.53,690.34,494.53z"/>
			</g>
		</g>
	</g>
	<g>
		<g>
			<path class="st1" d="M571.77,266.31c0.73,0,1.37-0.52,1.5-1.26c0.16-0.92,0.24-1.84,0.24-2.73c0-4.13-1.74-6.53-1.81-6.63
				c-0.5-0.68-1.46-0.82-2.13-0.32c-0.67,0.5-0.82,1.44-0.33,2.12c0.06,0.09,1.22,1.78,1.22,4.83c0,0.72-0.07,1.46-0.2,2.21
				c-0.14,0.83,0.41,1.62,1.24,1.76C571.59,266.31,571.68,266.31,571.77,266.31z"/>
		</g>
	</g>
	<g>
		<g>
			<path class="st1" d="M321.05,181.53c-4.18-1.25-8.08-2.7-11.6-4.31c-0.76-0.35-1.1-1.25-0.75-2.02c0.35-0.76,1.25-1.1,2.02-0.75
				c3.39,1.55,7.15,2.95,11.2,4.16c0.8,0.24,1.26,1.09,1.02,1.9c-0.2,0.66-0.8,1.09-1.46,1.09
				C321.34,181.59,321.19,181.57,321.05,181.53z M293.89,166.84c-5.86-5.88-6.81-10.78-6.85-10.98c-0.15-0.82,0.39-1.61,1.21-1.77
				c0.82-0.16,1.62,0.38,1.78,1.2c0.01,0.04,0.89,4.24,6.02,9.4c0.59,0.6,0.59,1.56,0,2.15c-0.3,0.3-0.69,0.44-1.07,0.44
				C294.58,167.29,294.19,167.14,293.89,166.84z"/>
		</g>
	</g>
	<g>
		<g>
			<path class="st1" d="M93.21,248.74c-0.41-0.74-0.14-1.66,0.59-2.07c3.61-2,7.32-3.85,11.02-5.48c0.77-0.34,1.67,0.01,2.01,0.78
				c0.34,0.77-0.01,1.67-0.78,2.01c-3.62,1.6-7.25,3.41-10.78,5.36c-0.23,0.13-0.49,0.19-0.74,0.19
				C94,249.53,93.48,249.25,93.21,248.74z M121.14,236.8c-0.23-0.81,0.24-1.65,1.05-1.88c3.98-1.12,8.02-2.04,12.02-2.74
				c0.83-0.14,1.62,0.41,1.76,1.24c0.14,0.83-0.41,1.62-1.24,1.76c-3.9,0.68-7.84,1.58-11.72,2.67c-0.14,0.04-0.28,0.06-0.41,0.06
				C121.94,237.91,121.33,237.47,121.14,236.8z M164.5,234.31c-0.04-0.01-4.23-0.8-11.25-0.8l-0.59,0
				c-0.86-0.02-1.53-0.67-1.53-1.51c-0.01-0.84,0.67-1.53,1.51-1.53l0.61,0c7.35,0,11.65,0.82,11.83,0.85
				c0.82,0.16,1.36,0.96,1.2,1.78c-0.14,0.73-0.78,1.23-1.49,1.23C164.69,234.34,164.59,234.33,164.5,234.31z"/>
		</g>
	</g>
	<g>
		<g>
			<path class="st1" d="M338.4,213.01c0.06,0,0.11,0,0.17-0.01c0.84-0.09,1.44-0.84,1.35-1.68l-1.1-10.11
				c-0.09-0.84-0.83-1.44-1.68-1.35c-0.84,0.09-1.44,0.84-1.35,1.68l1.1,10.11C336.97,212.43,337.63,213.01,338.4,213.01z"/>
		</g>
	</g>
	<g>
		<g>
			<path class="st1" d="M296.57,494.53c0.39,0,0.79-0.15,1.08-0.45c0.59-0.6,0.58-1.56-0.01-2.15l-8.67-8.55
				c-0.6-0.59-1.56-0.58-2.15,0.01c-0.59,0.6-0.58,1.56,0.01,2.15l8.67,8.55C295.8,494.38,296.19,494.53,296.57,494.53z"/>
		</g>
	</g>
	<g>
		<g>
			<path class="st1" d="M412.87,409.71c0.36,0,0.72-0.13,1.01-0.38c0.63-0.56,0.68-1.52,0.13-2.15l-8.1-9.1
				c-0.56-0.63-1.52-0.68-2.15-0.13c-0.63,0.56-0.68,1.52-0.13,2.15l8.1,9.1C412.03,409.54,412.45,409.71,412.87,409.71z"/>
		</g>
	</g>
	<g>
		<g>
			<path class="st0" d="M700.49,642.24c2.54,0,4.96-1.47,6.04-3.94c1.47-3.33-0.05-7.23-3.38-8.69l-47.44-20.87
				c-3.33-1.47-7.23,0.05-8.69,3.38c-1.47,3.33,0.05,7.23,3.38,8.69l47.44,20.87C698.71,642.06,699.61,642.24,700.49,642.24z"/>
		</g>
	</g>
	<g>
		<g>
			<path class="st0" d="M613.67,604.07c2.54,0,4.38-1.76,5.46-4.23c1.47-3.33,5.17-4.66,1.83-6.12l-191.64-84.59
				c-3.34-1.47-7.23,0.05-8.7,3.38c-1.47,3.33,0.05,7.23,3.38,8.69l188.66,82.94C613.54,604.52,612.78,604.07,613.67,604.07z"/>
		</g>
	</g>
	<g>
		<g>
			<path class="st0" d="M408.49,573.34c0.53,0,1.06-0.06,1.59-0.2l83.86-20.83c3.54-0.88,5.69-4.46,4.81-7.99
				c-0.88-3.54-4.46-5.69-7.99-4.81l-83.86,20.83c-3.54,0.88-5.69,4.46-4.81,7.99C402.84,571.34,405.53,573.34,408.49,573.34z"/>
		</g>
	</g>
	<g>
		<g>
			<path class="st0" d="M526.78,564.77c0.94,0,1.9-0.2,2.82-0.64c3.29-1.56,4.7-5.49,3.14-8.78l-20.96-44.31
				c-1.56-3.29-5.49-4.7-8.78-3.14c-3.29,1.56-4.7,5.49-3.14,8.78l20.96,44.31C521.94,563.38,524.31,564.77,526.78,564.77z"/>
		</g>
	</g>
	<g>
		<g>
			<g>
				<path class="st1" d="M610.94,593.9c0.2,0,0.38-0.11,0.46-0.3c0.11-0.26,0-0.56-0.26-0.67l-5.58-2.43
					c-0.26-0.11-0.56,0-0.67,0.26c-0.11,0.26,0,0.56,0.26,0.67l5.58,2.43C610.8,593.89,610.87,593.9,610.94,593.9z"/>
			</g>
		</g>
		<g>
			<g>
				<path class="st1" d="M586.59,583.34l-11.14-4.85c-0.26-0.11-0.37-0.41-0.26-0.67c0.11-0.26,0.41-0.37,0.67-0.26l11.14,4.85
					c0.26,0.11,0.37,0.41,0.26,0.67c-0.08,0.19-0.27,0.3-0.46,0.3C586.72,583.38,586.66,583.37,586.59,583.34z M556.89,570.39
					l-11.14-4.85c-0.26-0.11-0.37-0.41-0.26-0.67c0.11-0.26,0.41-0.37,0.67-0.26l11.14,4.85c0.26,0.11,0.37,0.41,0.26,0.67
					c-0.08,0.19-0.27,0.3-0.46,0.3C557.03,570.43,556.96,570.42,556.89,570.39z M527.19,557.44l-11.14-4.86
					c-0.26-0.11-0.37-0.41-0.26-0.67c0.11-0.26,0.41-0.37,0.67-0.26l11.14,4.86c0.26,0.11,0.37,0.41,0.26,0.67
					c-0.08,0.19-0.27,0.3-0.46,0.3C527.33,557.49,527.26,557.47,527.19,557.44z M497.49,544.5l-11.14-4.85
					c-0.26-0.11-0.37-0.41-0.26-0.67c0.11-0.26,0.41-0.37,0.67-0.26l11.14,4.85c0.26,0.11,0.37,0.41,0.26,0.67
					c-0.08,0.19-0.27,0.3-0.46,0.3C497.63,544.54,497.56,544.53,497.49,544.5z M467.79,531.55l-11.14-4.86
					c-0.26-0.11-0.37-0.41-0.26-0.67c0.11-0.26,0.41-0.37,0.67-0.26l11.14,4.86c0.26,0.11,0.37,0.41,0.26,0.67
					c-0.08,0.19-0.27,0.3-0.46,0.3C467.93,531.59,467.86,531.58,467.79,531.55z"/>
			</g>
		</g>
		<g>
			<g>
				<path class="st1" d="M438.3,518.65c0.2,0,0.38-0.11,0.46-0.3c0.11-0.26,0-0.56-0.26-0.67l-5.58-2.43
					c-0.26-0.11-0.56,0-0.67,0.26c-0.11,0.26,0,0.56,0.26,0.67l5.58,2.43C438.16,518.63,438.23,518.65,438.3,518.65z"/>
			</g>
		</g>
	</g>
	<g>
		<g>
			<g>
				<path class="st1" d="M694.45,630.31c0.2,0,0.38-0.12,0.47-0.31c0.11-0.26-0.01-0.56-0.27-0.67l-5.6-2.39
					c-0.26-0.11-0.56,0.01-0.67,0.27c-0.11,0.26,0.01,0.56,0.27,0.67l5.6,2.39C694.32,630.3,694.39,630.31,694.45,630.31z"/>
			</g>
		</g>
		<g>
			<g>
				<path class="st1" d="M670.93,620.29c0.2,0,0.38-0.12,0.47-0.31c0.11-0.26-0.01-0.56-0.27-0.67l-5.6-2.39
					c-0.26-0.11-0.56,0.01-0.67,0.27c-0.11,0.26,0.01,0.56,0.27,0.67l5.6,2.39C670.79,620.28,670.86,620.29,670.93,620.29z"/>
			</g>
		</g>
	</g>
	<g>
		<g>
			<g>
				<path class="st1" d="M499.48,550.68c0.2,0,0.38-0.11,0.46-0.3c0.11-0.26,0-0.56-0.26-0.67l-5.58-2.43
					c-0.26-0.11-0.56,0-0.67,0.26c-0.11,0.26,0,0.56,0.26,0.67l5.58,2.43C499.34,550.67,499.41,550.68,499.48,550.68z"/>
			</g>
		</g>
		<g>
			<g>
				<path class="st1" d="M487.53,545.52l-12.33-5.37c-0.26-0.11-0.37-0.41-0.26-0.67c0.11-0.26,0.41-0.37,0.67-0.26l12.33,5.37
					c0.26,0.11,0.37,0.41,0.26,0.67c-0.08,0.19-0.27,0.3-0.46,0.3C487.67,545.56,487.6,545.54,487.53,545.52z M469.04,537.45
					l-12.33-5.37c-0.26-0.11-0.37-0.41-0.26-0.67c0.11-0.26,0.41-0.37,0.67-0.26l12.33,5.37c0.26,0.11,0.37,0.41,0.26,0.67
					c-0.08,0.19-0.27,0.3-0.46,0.3C469.17,537.5,469.1,537.48,469.04,537.45z M450.54,529.39l-12.33-5.37
					c-0.26-0.11-0.37-0.41-0.26-0.67c0.11-0.26,0.41-0.37,0.67-0.26l12.33,5.37c0.26,0.11,0.37,0.41,0.26,0.67
					c-0.08,0.19-0.27,0.3-0.46,0.3C450.68,529.44,450.61,529.42,450.54,529.39z"/>
			</g>
		</g>
		<g>
			<g>
				<path class="st1" d="M432.25,521.37c0.2,0,0.38-0.11,0.46-0.3c0.11-0.26,0-0.56-0.26-0.67l-5.58-2.43
					c-0.26-0.11-0.56,0-0.67,0.26c-0.11,0.26,0,0.56,0.26,0.67l5.58,2.43C432.12,521.36,432.19,521.37,432.25,521.37z"/>
			</g>
		</g>
	</g>
	<g>
		<g>
			<path class="st1" d="M600.75,596.23l-11.16-4.87c-0.26-0.11-0.37-0.41-0.26-0.67c0.11-0.26,0.41-0.37,0.67-0.26l11.16,4.87
				c0.26,0.11,0.37,0.41,0.26,0.67c-0.08,0.19-0.27,0.3-0.46,0.3C600.88,596.27,600.82,596.26,600.75,596.23z M572.84,584.07
				l-11.16-4.87c-0.26-0.11-0.37-0.41-0.26-0.67c0.11-0.26,0.41-0.37,0.67-0.26l11.16,4.87c0.26,0.11,0.37,0.41,0.26,0.67
				c-0.08,0.19-0.27,0.3-0.46,0.3C572.97,584.11,572.91,584.09,572.84,584.07z M544.93,571.9l-10.76-4.69
				c-0.26-0.11-0.37-0.41-0.26-0.67c0.11-0.26,0.41-0.37,0.67-0.26l10.76,4.69c0.26,0.11,0.37,0.41,0.26,0.67
				c-0.08,0.19-0.27,0.3-0.46,0.3C545.06,571.94,545,571.93,544.93,571.9z"/>
		</g>
	</g>
	<g>
		<g>
			<path class="st1" d="M521.71,548.2l-2.76-6.06c-0.12-0.26,0-0.56,0.25-0.67c0.25-0.11,0.56,0,0.67,0.25l2.76,6.06
				c0.12,0.26,0,0.56-0.25,0.67c-0.07,0.03-0.14,0.05-0.21,0.05C521.98,548.5,521.8,548.39,521.71,548.2z M510.56,523.66
				l-5.04-11.09c-0.12-0.26,0-0.56,0.25-0.67c0.25-0.11,0.56,0,0.67,0.25l5.04,11.09c0.12,0.26,0,0.56-0.25,0.67
				c-0.07,0.03-0.14,0.05-0.21,0.05C510.83,523.96,510.64,523.85,510.56,523.66z"/>
		</g>
	</g>
	<g>
		<g>
			<path class="st1" d="M404.61,568.07c-0.07-0.27,0.1-0.55,0.38-0.61l11.84-2.84c0.28-0.07,0.55,0.1,0.61,0.38
				c0.07,0.27-0.1,0.55-0.38,0.61l-11.84,2.84c-0.04,0.01-0.08,0.01-0.12,0.01C404.88,568.46,404.67,568.3,404.61,568.07z
				 M436.2,560.51c-0.07-0.27,0.1-0.55,0.38-0.61l11.84-2.84c0.28-0.07,0.55,0.1,0.61,0.38c0.07,0.27-0.1,0.55-0.38,0.61
				l-11.84,2.84c-0.04,0.01-0.08,0.01-0.12,0.01C436.46,560.9,436.25,560.74,436.2,560.51z M467.78,552.95
				c-0.07-0.27,0.1-0.55,0.38-0.61L480,549.5c0.27-0.07,0.55,0.1,0.61,0.38c0.07,0.27-0.1,0.55-0.38,0.61l-11.84,2.83
				c-0.04,0.01-0.08,0.01-0.12,0.01C468.04,553.34,467.84,553.18,467.78,552.95z"/>
		</g>
	</g>
	<g id="XMLID_6_">
		<g>
			<g>
				<path class="st3" d="M427.63,510.63c0,0,8.15-9.31,6.02-17.72c-2.12-8.41-13.72-12.74-13.72-12.74s-8.14,9.31-6.02,17.72
					C416.05,506.3,427.63,510.63,427.63,510.63z"/>
			</g>
		</g>
		<g>
			<g>
				<path class="st0" d="M427.1,512.05c-0.5-0.19-12.36-4.71-14.66-13.79c-2.29-9.08,5.99-18.69,6.35-19.1
					c0.42-0.48,1.08-0.64,1.68-0.42c0.5,0.19,12.37,4.71,14.66,13.79c2.29,9.08-6,18.69-6.35,19.1c-0.29,0.34-0.72,0.52-1.15,0.52
					C427.46,512.15,427.28,512.12,427.1,512.05z M415.4,497.52c1.56,6.15,9.04,10.03,11.77,11.26c1.82-2.38,6.57-9.35,5.01-15.5
					c-1.56-6.16-9.04-10.03-11.78-11.26C418.59,484.4,413.84,491.36,415.4,497.52z"/>
			</g>
			<g>
				<path class="st0" d="M427.63,512.15c0.12,0,0.25-0.01,0.37-0.05c0.82-0.21,1.31-1.03,1.1-1.85l-4.31-17.07
					c-0.21-0.81-1.03-1.31-1.85-1.1c-0.82,0.21-1.31,1.03-1.1,1.85l4.31,17.07C426.33,511.69,426.95,512.15,427.63,512.15z"/>
			</g>
		</g>
	</g>
	<g>
		<g>
			<path class="st0" d="M157.73,469.92c0.02,0,0.04,0,0.06,0c0.84-0.03,1.49-0.74,1.46-1.58l-3.54-87.38
				c-0.03-0.84-0.74-1.49-1.58-1.46c-0.84,0.03-1.49,0.74-1.46,1.58l3.54,87.38C156.24,469.28,156.91,469.92,157.73,469.92z"/>
		</g>
	</g>
	<g>
		<g>
			<path class="st0" d="M152.43,346.64c0.01,0,0.03,0,0.04,0c0.84-0.02,1.5-0.72,1.48-1.56l-2.26-87.15
				c-0.02-0.84-0.7-1.52-1.56-1.48c-0.84,0.02-1.5,0.72-1.48,1.56l2.26,87.15C150.93,345.99,151.6,346.64,152.43,346.64z"/>
		</g>
	</g>
	<g>
		<g>
			<path class="st0" d="M231.05,436.89c0.41,0,0.81-0.16,1.11-0.49c0.57-0.62,0.54-1.58-0.08-2.15l-58.4-54.35
				c-0.61-0.57-1.58-0.54-2.15,0.08c-0.57,0.62-0.54,1.58,0.08,2.15l58.4,54.35C230.3,436.75,230.68,436.89,231.05,436.89z"/>
		</g>
	</g>
	<g>
		<g>
			<path class="st0" d="M140.13,352.28c0.41,0,0.81-0.16,1.11-0.49c0.57-0.62,0.54-1.58-0.08-2.15l-63.32-58.93
				c-0.61-0.57-1.58-0.54-2.15,0.08c-0.57,0.62-0.54,1.58,0.08,2.15l63.32,58.93C139.38,352.14,139.76,352.28,140.13,352.28z"/>
		</g>
	</g>
	<g>
		<g>
			<path class="st0" d="M172.14,364.59c0.02,0,0.04,0,0.06,0l86.97-3.22c0.84-0.03,1.5-0.74,1.46-1.58
				c-0.03-0.84-0.69-1.51-1.58-1.46l-86.97,3.22c-0.84,0.03-1.5,0.74-1.46,1.58C170.65,363.95,171.33,364.59,172.14,364.59z"/>
		</g>
	</g>
	<g>
		<g>
			<path class="st0" d="M48.5,368.94c0.02,0,0.03,0,0.05,0l87.05-2.78c0.84-0.03,1.5-0.73,1.47-1.57c-0.03-0.84-0.77-1.51-1.57-1.47
				l-87.05,2.78c-0.84,0.03-1.5,0.73-1.47,1.57C47.01,368.29,47.69,368.94,48.5,368.94z"/>
		</g>
	</g>
	<g>
		<g>
			<path class="st0" d="M175.64,341.86c0.41,0,0.81-0.16,1.11-0.49L227,287.38c0.57-0.62,0.54-1.58-0.08-2.15
				c-0.61-0.57-1.58-0.54-2.15,0.08l-50.24,53.99c-0.57,0.62-0.54,1.58,0.08,2.15C174.9,341.72,175.27,341.86,175.64,341.86z"/>
		</g>
	</g>
	<g>
		<g>
			<path class="st0" d="M82.48,441.96c0.41,0,0.81-0.16,1.11-0.49l58.63-63c0.57-0.62,0.54-1.58-0.08-2.15
				c-0.61-0.57-1.58-0.54-2.15,0.08l-58.63,63c-0.57,0.62-0.54,1.58,0.08,2.15C81.73,441.83,82.11,441.96,82.48,441.96z"/>
		</g>
	</g>
	<g>
		<g>
			<path class="st0" d="M522.17,627.77c0.54,0,1.07-0.29,1.34-0.8l44.57-82.72c0.4-0.74,0.12-1.66-0.62-2.06s-1.66-0.12-2.06,0.62
				l-44.57,82.72c-0.4,0.74-0.12,1.66,0.62,2.06C521.68,627.71,521.93,627.77,522.17,627.77z"/>
		</g>
	</g>
	<g>
		<g>
			<path class="st0" d="M585.86,509.56c0.54,0,1.07-0.29,1.34-0.8l48.29-89.64c0.4-0.74,0.12-1.66-0.62-2.06
				c-0.74-0.4-1.67-0.12-2.06,0.62l-48.29,89.64c-0.4,0.74-0.12,1.66,0.62,2.06C585.36,509.5,585.61,509.56,585.86,509.56z"/>
		</g>
	</g>
	<g>
		<g>
			<path class="st0" d="M604.71,614.33c0.14,0,0.29-0.02,0.44-0.06c0.81-0.24,1.26-1.09,1.02-1.9l-22.63-75.5
				c-0.24-0.81-1.09-1.26-1.9-1.02c-0.81,0.24-1.26,1.09-1.02,1.9l22.63,75.5C603.45,613.9,604.06,614.33,604.71,614.33z"/>
		</g>
	</g>
	<g>
		<g>
			<path class="st0" d="M572.69,507.51c0.14,0,0.29-0.02,0.44-0.06c0.81-0.24,1.26-1.09,1.02-1.9l-6.35-21.17
				c-0.24-0.81-1.09-1.26-1.9-1.02c-0.81,0.24-1.26,1.09-1.02,1.89l6.35,21.17C571.43,507.08,572.04,507.51,572.69,507.51z"/>
		</g>
	</g>
	<g>
		<g>
			<path class="st0" d="M557.42,456.57c0.14,0,0.29-0.02,0.44-0.06c0.81-0.24,1.26-1.09,1.02-1.89l-9.64-32.18
				c-0.24-0.81-1.09-1.26-1.9-1.02c-0.81,0.24-1.26,1.09-1.02,1.9l9.64,32.18C556.16,456.14,556.77,456.57,557.42,456.57z"/>
		</g>
	</g>
	<g>
		<g>
			<path class="st0" d="M644.84,560.65c0.54,0,1.07-0.29,1.34-0.8c0.4-0.74,0.12-1.66-0.62-2.06l-57.92-31.2
				c-0.74-0.4-1.66-0.12-2.06,0.62c-0.4,0.74-0.12,1.66,0.62,2.06l57.92,31.2C644.34,560.59,644.59,560.65,644.84,560.65z"/>
		</g>
	</g>
	<g>
		<g>
			<path class="st0" d="M558.43,514.1c0.54,0,1.07-0.29,1.34-0.8c0.4-0.74,0.12-1.66-0.62-2.06l-55.97-30.16
				c-0.74-0.4-1.66-0.12-2.06,0.62c-0.4,0.74-0.12,1.66,0.62,2.06l55.97,30.16C557.94,514.04,558.18,514.1,558.43,514.1z"/>
		</g>
	</g>
	<g>
		<g>
			<path class="st0" d="M588.32,521.37c0.14,0,0.29-0.02,0.44-0.06l72.2-21.64c0.81-0.24,1.26-1.09,1.02-1.89
				c-0.24-0.81-1.09-1.26-1.9-1.02l-72.2,21.64c-0.81,0.24-1.26,1.09-1.02,1.9C587.06,520.95,587.66,521.37,588.32,521.37z"/>
		</g>
	</g>
	<g>
		<g>
			<path class="st0" d="M487.73,551.53c0.14,0,0.29-0.02,0.44-0.06l71.58-21.46c0.81-0.24,1.26-1.09,1.02-1.9
				c-0.24-0.81-1.09-1.26-1.9-1.02l-71.58,21.46c-0.81,0.24-1.26,1.09-1.02,1.89C486.47,551.1,487.07,551.53,487.73,551.53z"/>
		</g>
	</g>
</g>
</svg>
