<?xml version="1.0" encoding="utf-8"?>
<!-- Generator: Adobe Illustrator 25.4.1, SVG Export Plug-In . SVG Version: 6.00 Build 0)  -->
<svg version="1.1" id="Capa_1" xmlns="http://www.w3.org/2000/svg" xmlns:xlink="http://www.w3.org/1999/xlink" x="0px" y="0px"
	 viewBox="0 0 842.41 676.68" style="enable-background:new 0 0 842.41 676.68;" xml:space="preserve">
<style type="text/css">
	.st0{fill:#003398;}
	.st1{fill:#FFFFFF;}
	.st2{fill:#E9A3E0;}
	.st3{fill:none;stroke:#FFFFFF;stroke-width:3;stroke-linecap:round;stroke-linejoin:round;stroke-miterlimit:10;}
</style>
<g>
	<path class="st0" d="M153.31,614.79c-0.34,1.22-0.81,2.47-1.42,3.73c-4.57,9.46-13.99,13.14-24.61,9.58
		c-9.43-3.16-19.59-11.94-26.86-25.67c-2.01,0.58-4.06,1.23-6.12,1.98c-14.42,5.21-48.15,21.92-49.94,64.85
		c-0.08,2.09-1.84,3.68-3.91,3.6c-2.08-0.09-3.68-1.83-3.6-3.91c1.98-47.47,39.05-65.88,54.9-71.6c1.81-0.66,3.63-1.25,5.45-1.8
		c-6.47-15.82-9.2-36.83-4.12-62.29c6.85-34.31,24.61-51.55,38.3-59.98c14.93-9.19,28.19-10.15,28.75-10.19
		c2.07-0.13,3.85,1.44,4,3.51c0.13,2.07-1.44,3.85-3.5,3.99c-1.96,0.13-48.19,4.01-60.17,64.15c-4.84,24.26-2.01,44.23,4.22,58.91
		c19.52-4.17,37.8-1.75,45.48,6.76C153.74,604.38,154.81,609.39,153.31,614.79z M108.09,600.6c6.14,10.91,14.21,17.91,21.58,20.38
		c4.08,1.37,11.53,2.44,15.46-5.73c1.95-4.03,1.76-7.24-0.55-9.81C139.6,599.91,125.3,597.28,108.09,600.6z"/>
</g>
<g>
	<g>
		<g>
			<g>
				<path class="st0" d="M594.29,182.33c-0.46,0-0.9-0.22-1.17-0.61c-0.36-0.52-0.33-1.22,0.07-1.71l34.71-42.05
					c-10.61-14.04-15.56-29.73-15.56-49.27c0-47.15,38.36-85.52,85.52-85.52s85.52,38.36,85.52,85.52s-38.36,85.52-85.52,85.52
					c-15.42,0-30.51-4.14-43.69-11.98l-59.43,20.03C594.59,182.3,594.44,182.33,594.29,182.33z M697.86,6.01
					c-45.59,0-82.68,37.09-82.68,82.68c0,19.3,4.98,34.68,15.66,48.43c0.41,0.52,0.4,1.26-0.03,1.77l-32.26,39.08l55.34-18.65
					c0.4-0.13,0.83-0.09,1.19,0.13c12.86,7.79,27.66,11.91,42.78,11.91c45.59,0,82.68-37.09,82.68-82.68S743.45,6.01,697.86,6.01z"
					/>
			</g>
		</g>
		<g>
			<g>
				<path class="st0" d="M738.64,88.25c-1.83,0-3.31-1.48-3.31-3.31V74.05c0-1.83,1.48-3.31,3.31-3.31
					c5.73,0,10.38-4.66,10.38-10.38c0-5.73-4.66-10.38-10.38-10.38c-2.89,0-5.68,1.22-7.64,3.35c-1.24,1.35-3.33,1.43-4.68,0.19
					s-1.43-3.33-0.19-4.68c3.21-3.49,7.77-5.49,12.51-5.49c9.38,0,17.01,7.63,17.01,17c0,8.24-5.9,15.14-13.69,16.68v7.9
					C741.96,86.77,740.47,88.25,738.64,88.25z"/>
			</g>
		</g>
		<g>
			<g>
				<path class="st0" d="M738.65,99.13c-0.14,0-0.28-0.01-0.42-0.02c-1.12-0.11-2.13-0.65-2.84-1.52c-0.71-0.87-1.05-1.96-0.94-3.08
					s0.65-2.13,1.52-2.85c0.87-0.71,1.97-1.05,3.09-0.94c1.12,0.11,2.13,0.65,2.84,1.52l0,0c0.71,0.87,1.05,1.97,0.94,3.09
					c-0.11,1.12-0.65,2.13-1.52,2.84C740.56,98.8,739.62,99.13,738.65,99.13z M739.34,94.35l-2.56,2.1c0.4,0.49,0.99,0.81,1.63,0.87
					c0.63,0.06,1.28-0.13,1.77-0.54c0.49-0.4,0.81-0.99,0.87-1.63c0.06-0.63-0.13-1.28-0.54-1.77c-0.4-0.49-0.99-0.8-1.62-0.87
					c-0.63-0.06-1.27,0.13-1.76,0.53s-0.81,0.99-0.87,1.63c-0.06,0.63,0.13,1.27,0.53,1.76L739.34,94.35z"/>
			</g>
		</g>
		<g>
			<g id="XMLID_4_">
				<g>
					<g>
						<path class="st1" d="M720.44,110.75c6.68,8.14,5.49,20.27-2.66,26.96c-8.14,6.68-20.27,5.49-26.95-2.66l-47.7-58.11
							c-6.68-8.14-5.49-20.26,2.66-26.95c3.55-2.9,7.84-4.32,12.13-4.32c5.54,0,11.05,2.38,14.82,6.98L720.44,110.75z
							 M706.97,124.54c0.52-0.43,0.6-1.19,0.17-1.71s-1.19-0.6-1.71-0.17s-0.6,1.19-0.17,1.71
							C705.69,124.89,706.45,124.97,706.97,124.54z M706.8,107.72c0.52-0.43,0.6-1.19,0.17-1.71s-1.19-0.6-1.71-0.17
							s-0.6,1.19-0.17,1.71C705.52,108.07,706.28,108.15,706.8,107.72z M690.77,120.88c0.52-0.43,0.6-1.19,0.17-1.71
							s-1.19-0.6-1.71-0.17s-0.6,1.19-0.17,1.71C689.48,121.23,690.25,121.31,690.77,120.88z M671.81,65.08
							c0.52-0.43,0.6-1.19,0.17-1.71c-0.44-0.52-1.2-0.6-1.72-0.17c-0.52,0.43-0.6,1.19-0.17,1.71
							C670.53,65.43,671.29,65.51,671.81,65.08z M655.78,78.24c0.52-0.43,0.6-1.19,0.17-1.71s-1.2-0.6-1.72-0.17
							c-0.52,0.43-0.6,1.2-0.17,1.72C654.49,78.6,655.26,78.67,655.78,78.24z M655.34,61.64c0.52-0.43,0.6-1.19,0.17-1.71
							s-1.19-0.6-1.71-0.17s-0.6,1.19-0.17,1.71S654.82,62.06,655.34,61.64z"/>
					</g>
				</g>
				<g>
					<g>
						<path class="st0" d="M705.69,143.46c-0.69,0-1.38-0.03-2.07-0.1c-5.49-0.54-10.42-3.17-13.89-7.4l-47.7-58.11
							c-7.19-8.76-5.91-21.75,2.85-28.95c3.66-3,8.29-4.65,13.03-4.65c6.2,0,12.01,2.73,15.92,7.5l47.7,58.1
							c7.19,8.77,5.91,21.76-2.85,28.96l0,0C714.98,141.84,710.44,143.46,705.69,143.46z M657.92,47.09c-4.09,0-8.08,1.42-11.23,4
							c-7.56,6.21-8.66,17.4-2.46,24.95l47.7,58.11c2.99,3.65,7.24,5.91,11.97,6.38s9.34-0.92,12.98-3.91l0,0
							c7.56-6.2,8.66-17.4,2.46-24.96l-47.69-58.1C668.27,49.44,663.27,47.09,657.92,47.09z M717.78,137.71L717.78,137.71
							L717.78,137.71z"/>
					</g>
					<g>
						<path class="st0" d="M665.9,97.75c-0.41,0-0.82-0.18-1.1-0.52c-1.48-1.8-2.16-4.07-1.93-6.4c0.23-2.32,1.35-4.41,3.14-5.88
							l10.12-8.31c3.72-3.05,9.22-2.51,12.28,1.21c0.5,0.61,0.41,1.5-0.19,2c-0.61,0.5-1.5,0.41-2-0.19
							c-2.06-2.51-5.78-2.87-8.29-0.82l-10.12,8.31c-1.21,0.99-1.96,2.4-2.12,3.96c-0.16,1.57,0.31,3.11,1.3,4.32
							c0.5,0.61,0.41,1.5-0.2,2C666.54,97.65,666.22,97.75,665.9,97.75z"/>
					</g>
					<g>
						<path class="st0" d="M679.87,110.54c-2.52,0-5.03-1.08-6.75-3.18c-0.5-0.61-0.41-1.5,0.19-2s1.5-0.41,2,0.19
							c2.06,2.51,5.78,2.87,8.29,0.82c0.61-0.5,1.5-0.41,2,0.2s0.41,1.5-0.2,2C683.77,109.89,681.81,110.54,679.87,110.54z"/>
					</g>
					<g>
						<path class="st0" d="M684.26,109.08c-0.41,0-0.81-0.17-1.09-0.51c-0.5-0.6-0.42-1.5,0.18-2l0.23-0.19l10.13-8.31
							c1.21-1,1.97-2.41,2.12-3.98s-0.31-3.1-1.3-4.3c-0.5-0.61-0.41-1.5,0.19-2s1.5-0.41,2,0.19c1.48,1.79,2.16,4.06,1.94,6.38
							c-0.23,2.33-1.34,4.42-3.14,5.9l-10.34,8.49C684.91,108.97,684.58,109.08,684.26,109.08z"/>
					</g>
					<g>
						<path class="st0" d="M654.58,63.33c-0.09,0-0.18,0-0.26-0.01c-0.7-0.07-1.33-0.41-1.78-0.95c-0.92-1.13-0.75-2.79,0.37-3.71
							c0.54-0.45,1.23-0.65,1.93-0.58s1.33,0.41,1.78,0.95l0,0c0.45,0.54,0.65,1.23,0.58,1.93s-0.41,1.33-0.95,1.78
							C655.77,63.12,655.18,63.33,654.58,63.33z M654.73,60.57l-0.31,0.26c0.07,0.09,0.2,0.1,0.28,0.03
							C654.79,60.78,654.8,60.65,654.73,60.57L654.73,60.57z M654.57,60.49c-0.05,0-0.09,0.02-0.13,0.05
							c-0.04,0.03-0.07,0.08-0.07,0.14c-0.01,0.05,0.01,0.11,0.04,0.15l0.31-0.26c-0.03-0.04-0.08-0.07-0.14-0.07
							C654.59,60.49,654.58,60.49,654.57,60.49z"/>
					</g>
					<g>
						<path class="st0" d="M655.01,79.94c-0.76,0-1.51-0.32-2.04-0.95c-0.46-0.56-0.66-1.24-0.59-1.95c0.07-0.7,0.41-1.34,0.95-1.78
							c1.13-0.92,2.8-0.76,3.72,0.37l0,0c0.45,0.54,0.65,1.23,0.58,1.93s-0.41,1.33-0.95,1.78
							C656.19,79.74,655.6,79.94,655.01,79.94z M654.85,77.43c0.07,0.09,0.19,0.1,0.27,0.03c0.07-0.06,0.09-0.2,0.03-0.27
							c-0.08-0.09-0.2-0.1-0.29-0.03c-0.03,0.02-0.06,0.07-0.06,0.13C654.8,77.33,654.82,77.38,654.85,77.43z M654.85,77.43
							L654.85,77.43L654.85,77.43z"/>
					</g>
					<g>
						<path class="st0" d="M671.05,66.77c-0.76,0-1.52-0.32-2.04-0.95c-0.45-0.56-0.66-1.24-0.59-1.94c0.07-0.7,0.41-1.33,0.95-1.78
							c1.12-0.91,2.78-0.75,3.71,0.36l0.01,0.01c0.92,1.12,0.75,2.79-0.37,3.71C672.23,66.58,671.63,66.77,671.05,66.77z
							 M671.2,64.02l-0.3,0.25c0.06,0.08,0.18,0.08,0.26,0.02c0.04-0.03,0.07-0.08,0.07-0.14C671.24,64.11,671.23,64.06,671.2,64.02
							z M671.04,63.94c-0.04,0-0.09,0.01-0.12,0.04c-0.09,0.07-0.1,0.2-0.03,0.28l0.31-0.25l0,0
							C671.15,63.96,671.09,63.94,671.04,63.94z"/>
					</g>
					<g>
						<path class="st0" d="M706.21,126.24c-0.09,0-0.18,0-0.26-0.01c-0.7-0.07-1.33-0.41-1.78-0.95c-0.92-1.13-0.75-2.79,0.37-3.71
							c0.54-0.45,1.23-0.66,1.93-0.58c0.7,0.07,1.33,0.41,1.78,0.95l0,0c0.45,0.55,0.65,1.23,0.58,1.93s-0.41,1.33-0.95,1.78
							C707.4,126.03,706.82,126.24,706.21,126.24z M706.36,123.47l-0.31,0.26c0.07,0.09,0.2,0.1,0.28,0.03
							C706.42,123.69,706.43,123.56,706.36,123.47C706.36,123.48,706.36,123.47,706.36,123.47z M706.2,123.4
							c-0.05,0-0.09,0.02-0.13,0.05s-0.07,0.08-0.07,0.14c-0.01,0.05,0.01,0.11,0.04,0.15l0.31-0.26
							C706.32,123.44,706.27,123.41,706.2,123.4C706.22,123.4,706.21,123.4,706.2,123.4z"/>
					</g>
					<g>
						<path class="st0" d="M690,122.58c-0.76,0-1.52-0.33-2.04-0.96c-0.45-0.54-0.65-1.23-0.58-1.93s0.41-1.33,0.95-1.78
							c0.54-0.45,1.23-0.65,1.93-0.58s1.33,0.41,1.78,0.95l0,0c0.92,1.12,0.75,2.79-0.37,3.71
							C691.18,122.38,690.59,122.58,690,122.58z M690.16,119.81l-0.31,0.26c0.03,0.04,0.08,0.07,0.14,0.07
							c0.05,0,0.11-0.01,0.15-0.04c0.04-0.03,0.07-0.08,0.07-0.14C690.21,119.91,690.19,119.85,690.16,119.81L690.16,119.81z
							 M690,119.74c-0.04,0-0.09,0.01-0.13,0.05c-0.09,0.07-0.1,0.2-0.03,0.28l0.31-0.26C690.12,119.76,690.06,119.74,690,119.74z"
							/>
					</g>
					<g>
						<path class="st0" d="M706.04,109.42c-0.09,0-0.18,0-0.26-0.01c-0.7-0.07-1.33-0.41-1.78-0.95c-0.44-0.54-0.65-1.23-0.58-1.93
							s0.41-1.33,0.95-1.78c1.13-0.92,2.79-0.75,3.71,0.37l0,0c0.45,0.54,0.65,1.23,0.58,1.93s-0.41,1.33-0.95,1.78
							C707.23,109.21,706.64,109.42,706.04,109.42z M705.88,106.91c0.07,0.09,0.2,0.1,0.28,0.03c0.04-0.03,0.07-0.09,0.07-0.14
							c0.01-0.05-0.01-0.11-0.04-0.15s-0.08-0.07-0.14-0.07c-0.05-0.01-0.11,0.01-0.15,0.04
							C705.82,106.7,705.81,106.82,705.88,106.91z M705.88,106.91L705.88,106.91L705.88,106.91z"/>
					</g>
				</g>
			</g>
		</g>
		<g id="XMLID_3_">
			<g>
				<g>
					<path class="st1" d="M249.39,459.46c-11.26,1.11-31.64,4.57-44.95,12.57c-10.28,6.18-21.62,16.33-14.4,22.75l0.07-0.08
						l133.6,0.89l1.08,0.02l0.71-33.92h-0.16c0,0-20.08,10.1-52.34-1.68c0,0-2.71-14.63-14.33-8.5l-1.25,0.03l0.16,7.66
						C257.53,458.95,254.35,458.98,249.39,459.46z"/>
				</g>
				<g>
					<path class="st1" d="M190.11,494.71l-0.07,0.08c4.26,3.78,14.98,6.27,36.21,5.87c27.1-0.51,98.4,1.14,98.4,1.14l0.13-6.18
						l-1.08-0.02L190.11,494.71z"/>
				</g>
				<g>
					<path class="st2" d="M340.51,376.79L340.51,376.79c40.46,68.75,74.69,69.52,93.51,79.17c11.76,6.04,34.44,28.8,59.12,54.43
						l-68.34-7.04c-2.74,4.44-4.71,10.53-6.08,17.55c-4.11,20.88-3.02,50.01-1.64,68.74c0.8,11.02,1.71,18.44,1.71,18.44
						s143.39,7.93,197.78,9.79s50.1-53.95,35.38-78.14c-14.41-23.66-93.03-120.46-93.03-120.46s-78.24,5.1-111.73-17.23
						s-28.41-53.47-28.41-53.47c0.98-1.92,2.15-4.72,3.41-8.06l-0.92-0.19c0,0-15.58-17.56-36.45-39.2
						c-11.11-11.5-23.72-24.17-36.26-35.97c-4.45-4.17-8.87-8.23-13.23-12.09c-29.5-26.13-56.41-23.72-67.81-13.47l3.07,3.06
						l0.97,0.82l26.7,22.48l-10.89,3.63l10.46,9.5l-12.83,6.2l10.39,8.43L252,294.07l-6.18,0.05c0,0,2.49,127.8,2.08,135.86
						c-0.09,1.77,3.51,3.32,9.4,4.63c15.56,3.46,47.08,5.23,68.64,4.77c7.54-0.16,13.87-0.6,17.86-1.33L340.51,376.79z"/>
				</g>
				<g>
					<path class="st1" d="M349.21,615.37c-2.05,21.14-0.4,32.03,3.06,36.57l0.09-0.07l9.48-133.27l0.06-1.08l-6.17-0.35
						C355.72,517.17,351.83,588.39,349.21,615.37z"/>
				</g>
				<g>
					<path class="st1" d="M392.08,595.5c0.87-4.9,1.14-8.08,0.9-8.14l7.63,0.76l0.12-1.25c7.02-11.12-7.37-14.95-7.37-14.95
						c-9.24-33.08,2.38-52.31,2.38-52.31l0.01-0.17l-33.88-1.92l-0.06,1.08l-9.48,133.27l-0.09,0.07c5.85,7.68,16.85-2.83,23.8-12.6
						C385.06,626.7,390.1,606.63,392.08,595.5z"/>
				</g>
				<g>
					<path class="st0" d="M576.38,349.47l35.22,43.29c1.34-3.61,2.98-7.08,4.83-10.39c10.27-18.41,27.13-31.99,37.37-39.09v-0.01
						c5.25-3.63,8.76-5.56,8.76-5.56s-46.82-64.25-67.81-74.5s-55.2-19.04-55.2-19.04l0.31,7.56c0,0-35.29,29.06-53.37-5.28
						l-0.79-14.97l-0.62,0.04c0,0-22.42-5.49-35.4,0c-12.98,5.5-21.68,7.82-21.68,7.82h-0.01l-28.97,41.62c0,0,9.08,18.68,32,28.86
						l1.14,0.28c-3.1,10.25-6.84,22.05-9.97,30.41c-1.26,3.34-2.42,6.14-3.41,8.06c0,0-5.08,31.14,28.41,53.47
						s111.73,17.23,111.73,17.23C570.65,397.18,574.9,369.28,576.38,349.47z"/>
				</g>
				<g>
					<path class="st0" d="M435.6,186.35l-0.44,0.84l1.11,0.28c-0.89,3.24,0.44,6.81,3.45,8.6l20.35,12.12
						c1.2,0.72,3.46,1.05,4.78,1.06l0.88-0.37c-4.03-6.31-3.26-15-0.18-26.32c2.46-9.01,4.67-23.23,6.23-34.92l-0.38-0.01
						l-2.08-1.24c-2.65-1.57-4.19-2.23-6.57-0.59c0.26,0.29,0.47,0.61,0.64,0.97c1.21,2.56,0.96,5.05-7.95,8.93
						c0,0,5.85,0.09,4.88,5.6c-0.58,3.32-3.93,5.4-12.29,8.49c0,0,6.8-0.09,6.39,4.83C454.06,179.15,449.21,181.5,435.6,186.35z"/>
				</g>
				<g>
					<path class="st1" d="M464.67,98.69c-14.13,0.01-16.27,15.3,1.47,24.17c2.77,1.39,6.4,2.75,10.55,4.07
						c22.41,7.09,59.98,12.74,59.98,12.74s-2.18,35.46-2.32,39.59c3.95-4.39,10.6-5.4,15.75-2.13c0.7-2.28,8.02-35.51,8.02-35.51
						c6.39-2.01,6.66-7.46,2.45-9.68c-4.21-2.21-9.61,1.84-9.61,1.84s-24.42-21.65-33.2-30.05c-8.8-8.41-19.56-21.11-26.82-14.27
						c-5.99,5.65,6.09,19.47,6.09,19.47C491.17,104.87,473.62,98.69,464.67,98.69z"/>
				</g>
				<g>
					<path class="st1" d="M536.87,197.91l2.69,17.46l4.45-15.53v-0.01C541.57,199.93,539.08,199.32,536.87,197.91z"/>
				</g>
				<g>
					<path class="st0" d="M616.44,382.37c-1.85,3.31-3.49,6.77-4.83,10.39c0,0,10.08-3.78,9.65-4.37l0.1-0.09
						C618.23,384.54,616.44,382.37,616.44,382.37z"/>
				</g>
				<g>
					<path class="st0" d="M653.8,343.28L653.8,343.28l0.26,0.37l3.94,4.71l0.22-0.18c2.36-3.38,4.35-10.46,4.35-10.46
						S659.05,339.64,653.8,343.28z"/>
				</g>
			</g>
			<g>
				<g>
					<path class="st0" d="M504.47,223.89c2.36,0,4.73-0.11,7.14-0.33c0.78-0.07,1.35-0.76,1.28-1.54s-0.76-1.36-1.54-1.28
						c-8.91,0.82-17.38,0.07-25.89-2.28c-2.59-0.71-5.21-1.58-8.01-2.65c-3.87-1.48-6.78-3.3-8.89-5.57
						c-0.62-0.67-1.17-1.38-1.62-2.1c-3.38-5.29-3.38-12.82-0.01-25.19c2.56-9.37,4.82-24.26,6.27-35.1
						c0.22-1.62,0.42-3.19,0.62-4.7l0.11-0.87c1.03-8.14,1.65-14.09,1.66-14.15c0.08-0.78-0.48-1.48-1.26-1.56
						c-0.78-0.09-1.48,0.48-1.56,1.26c-0.01,0.06-0.63,5.98-1.65,14.08l-0.11,0.87c-0.19,1.5-0.39,3.06-0.61,4.68
						c-1.44,10.76-3.68,25.51-6.2,34.73c-3.6,13.22-3.5,21.43,0.35,27.45c0.54,0.85,1.19,1.7,1.93,2.51
						c2.42,2.6,5.67,4.66,9.96,6.29c2.89,1.11,5.6,2,8.27,2.74C491.25,222.99,497.77,223.89,504.47,223.89z"/>
				</g>
				<g>
					<path class="st0" d="M534.36,180.68c0.76,0,1.39-0.6,1.42-1.37c0.14-4.07,2.29-39.2,2.32-39.55c0.05-0.73-0.48-1.38-1.21-1.49
						c-0.38-0.06-37.72-5.71-59.77-12.69c-4.33-1.38-7.81-2.72-10.34-3.98c-9.52-4.76-12.74-11.29-11.71-15.65
						c0.86-3.65,4.45-5.83,9.61-5.84c8.83,0,26.13,6.23,31.55,9.98c0.59,0.41,1.39,0.31,1.87-0.22c0.48-0.53,0.48-1.34,0.01-1.88
						c-3.11-3.56-10.28-13.64-6.19-17.5c4.94-4.66,12.3,1.87,21.4,10.88c1.18,1.17,2.34,2.31,3.46,3.39
						c8.71,8.32,33,29.87,33.24,30.09c0.5,0.45,1.26,0.48,1.79,0.07c0.04-0.03,4.74-3.49,8.1-1.72c1.39,0.73,2.16,1.92,2.05,3.16
						c-0.15,1.65-1.74,3.11-4.26,3.9c-0.48,0.15-0.85,0.55-0.96,1.05c-2.53,11.47-7.45,33.64-7.99,35.4
						c-0.23,0.75,0.19,1.54,0.94,1.77c0.75,0.23,1.54-0.19,1.77-0.94c0.66-2.14,6.75-29.72,7.88-34.85c3.2-1.23,5.21-3.46,5.45-6.08
						c0.21-2.39-1.15-4.67-3.55-5.93c-3.82-2.01-8.22,0.14-10.15,1.32c-4.32-3.84-24.59-21.87-32.35-29.29
						c-1.11-1.07-2.26-2.2-3.43-3.36c-8.44-8.36-18.01-17.83-25.34-10.92c-2.07,1.95-3.66,5.89,0.53,13.56
						c0.51,0.93,1.05,1.83,1.59,2.66c-8.14-3.7-20.48-7.38-27.42-7.38c-6.47,0-11.21,3.08-12.37,8.02
						c-1.19,5.05,1.55,13.01,13.21,18.83c2.66,1.33,6.27,2.73,10.75,4.15c19.93,6.31,52.12,11.53,58.92,12.59
						c-0.4,6.5-2.11,34.63-2.24,38.34c-0.03,0.78,0.59,1.44,1.37,1.47C534.32,180.68,534.34,180.68,534.36,180.68z"/>
				</g>
				<g>
					<path class="st0" d="M487.19,191.34c0.61,0,1.17-0.39,1.36-1.01c0.23-0.75-0.2-1.54-0.95-1.77c-3.1-0.94-5.66-2.84-6.53-4.85
						c-0.38-0.87-0.38-1.69-0.02-2.42c0.23-0.47,1.36-1.21,2.35-1.86c2.12-1.39,5.01-3.3,6.22-6.51c1.39-3.7,1.97-9.18,2.32-12.46
						c0.09-0.88,0.16-1.57,0.23-1.97c0.12-0.77-0.4-1.5-1.18-1.63c-0.77-0.13-1.5,0.4-1.63,1.18c-0.07,0.44-0.15,1.18-0.25,2.12
						c-0.33,3.14-0.89,8.4-2.16,11.76c-0.88,2.35-3.14,3.83-5.12,5.14c-1.48,0.98-2.76,1.82-3.33,2.97
						c-0.75,1.49-0.76,3.16-0.05,4.81c1.2,2.78,4.38,5.25,8.31,6.44C486.91,191.32,487.05,191.34,487.19,191.34z"/>
				</g>
				<g>
					<path class="st0" d="M508.1,169.6c0.73,0,1.35-0.56,1.41-1.3c0-0.03,0.23-2.6,0.95-6.77c0.13-0.77-0.39-1.51-1.16-1.64
						c-0.77-0.14-1.51,0.39-1.64,1.16c-0.74,4.29-0.97,6.9-0.98,7c-0.07,0.78,0.51,1.47,1.29,1.54
						C508.01,169.59,508.05,169.6,508.1,169.6z"/>
				</g>
				<g>
					<path class="st0" d="M477.85,167.49c0.73,0,1.35-0.56,1.41-1.3c0-0.03,0.22-2.6,0.94-6.76c0.13-0.77-0.39-1.51-1.16-1.64
						c-0.77-0.14-1.51,0.38-1.64,1.16c-0.74,4.3-0.96,6.9-0.97,7.01c-0.07,0.78,0.51,1.47,1.3,1.53
						C477.77,167.48,477.81,167.49,477.85,167.49z"/>
				</g>
				<g>
					<path class="st0" d="M487.62,209.35c-1.37-0.88-1.77-2.7-0.89-4.07c0.88-1.37,2.7-1.78,4.07-0.9c1.37,0.87,1.77,2.7,0.9,4.07
						c-0.42,0.67-1.08,1.13-1.84,1.3c-0.21,0.05-0.43,0.07-0.64,0.07C488.66,209.81,488.11,209.65,487.62,209.35z M489.12,206.81
						c-0.03,0.05-0.02,0.12,0.03,0.15c0.04,0.03,0.12,0.01,0.15-0.03c0,0,0-0.01,0.01-0.01c0.03-0.04,0.01-0.12-0.03-0.15
						c-0.01-0.01-0.03-0.01-0.05-0.01C489.18,206.75,489.14,206.77,489.12,206.81z"/>
				</g>
				<g>
					<path class="st0" d="M539.56,216.79c0.07,0,0.14-0.01,0.22-0.02c0.77-0.12,1.31-0.84,1.19-1.62l-2.27-14.76
						c1.71,0.64,3.52,0.93,5.38,0.85c4.48-0.2,8.6-2.57,11.01-6.35c4.07-6.39,2.18-14.89-4.21-18.96
						c-5.68-3.61-13.07-2.62-17.57,2.38c-0.52,0.58-0.48,1.48,0.1,2c0.58,0.52,1.48,0.48,2-0.1c3.57-3.96,9.43-4.75,13.93-1.88
						c5.07,3.23,6.57,9.97,3.34,15.04c-1.91,3-5.18,4.88-8.74,5.04c-2.23,0.09-4.41-0.49-6.31-1.7c-0.47-0.3-1.07-0.3-1.54,0.01
						c-0.47,0.3-0.71,0.85-0.63,1.4l2.69,17.46C538.26,216.29,538.87,216.79,539.56,216.79z"/>
				</g>
				<g>
					<path class="st0" d="M538.52,188.34c0.39,0,0.78-0.16,1.06-0.48c0.1-0.12,2.24-2.43,5.7-2.06c1.35,0.14,2.76,0.69,4.18,1.63
						c0.65,0.43,1.53,0.25,1.97-0.41c0.43-0.65,0.25-1.53-0.41-1.97c-1.81-1.19-3.64-1.89-5.45-2.08c-4.98-0.53-8.01,2.87-8.13,3.01
						c-0.52,0.59-0.46,1.49,0.14,2C537.85,188.23,538.18,188.34,538.52,188.34z"/>
				</g>
				<g>
					<path class="st0" d="M544,192.47c0.65,0,1.24-0.46,1.39-1.12l1.43-6.66c0.16-0.77-0.32-1.52-1.09-1.69
						c-0.77-0.16-1.52,0.32-1.68,1.09l-1.43,6.66c-0.16,0.77,0.32,1.52,1.09,1.69C543.81,192.46,543.91,192.47,544,192.47z"/>
				</g>
				<g>
					<path class="st0" d="M550.96,135.21c0.03,0,0.07,0,0.1,0c0.78-0.06,1.37-0.73,1.31-1.52c-0.33-4.65,3.84-6.65,4.01-6.74
						c0.71-0.33,1.02-1.17,0.69-1.88s-1.16-1.02-1.87-0.7c-0.25,0.11-6.13,2.88-5.66,9.52C549.6,134.64,550.23,135.21,550.96,135.21
						z"/>
				</g>
				<g>
					<path class="st0" d="M538.52,133.53c0.41,0,0.81-0.18,1.09-0.51c0.5-0.6,0.42-1.5-0.19-2l-29.46-24.38
						c-0.6-0.5-1.5-0.42-2,0.19c-0.5,0.6-0.42,1.5,0.19,2l29.46,24.38C537.88,133.43,538.2,133.53,538.52,133.53z"/>
				</g>
				<g>
					<path class="st0" d="M520.8,131.14c0.58,0,1.13-0.36,1.34-0.95c0.26-0.74-0.12-1.55-0.86-1.81l-48.5-17.2
						c-0.74-0.26-1.55,0.12-1.81,0.86s0.12,1.55,0.86,1.81l48.5,17.2C520.48,131.12,520.64,131.14,520.8,131.14z"/>
				</g>
				<g>
					<path class="st0" d="M513.16,154.55c0.75,0,1.38-0.59,1.42-1.34c0.04-0.78-0.56-1.45-1.34-1.49
						c-7.82-0.42-10.67-7.84-10.69-7.91c-0.27-0.73-1.09-1.11-1.82-0.84s-1.11,1.09-0.84,1.82c0.14,0.38,3.54,9.24,13.2,9.76
						C513.1,154.55,513.13,154.55,513.16,154.55z"/>
				</g>
				<g>
					<path class="st0" d="M472.3,148.1c0.08,0,0.16-0.01,0.23-0.02c7.6-1.26,11.9-6.24,12.08-6.45c0.51-0.6,0.43-1.49-0.16-2
						c-0.6-0.51-1.49-0.43-2,0.16c-0.06,0.07-3.87,4.41-10.38,5.49c-0.77,0.13-1.3,0.86-1.17,1.63
						C471.01,147.61,471.62,148.1,472.3,148.1z"/>
				</g>
				<g>
					<path class="st0" d="M511.12,264.63c15.11,0,29-11.27,29.65-11.81c0.34-0.28,0.53-0.71,0.52-1.15l-1.34-32.49l0.98-3.4
						c0.01-0.03,0.01-0.06,0.02-0.08l4.43-15.46c0.22-0.75-0.22-1.54-0.97-1.75c-0.75-0.22-1.54,0.22-1.75,0.97l-4.45,15.53
						c-0.01,0.03-0.01,0.05-0.02,0.08l-1.02,3.55c-0.04,0.15-0.06,0.3-0.05,0.45l1.32,31.99c-3.03,2.31-18.13,13.11-32.3,10.25
						c-7.49-1.51-13.62-6.64-18.22-15.25l-1.4-26.32c-0.04-0.78-0.72-1.39-1.49-1.34c-0.78,0.04-1.38,0.71-1.34,1.49l1.42,26.63
						c0.01,0.2,0.07,0.4,0.16,0.59c5.04,9.57,11.88,15.28,20.33,16.99C507.42,264.46,509.28,264.63,511.12,264.63z"/>
				</g>
				<g>
					<path class="st0" d="M611.6,394.18c0.08,0,0.15-0.01,0.23-0.02c0.5-0.08,0.92-0.43,1.1-0.91c1.26-3.39,2.86-6.82,4.74-10.19
						c10.3-18.46,27.56-32.12,36.94-38.61c0.04-0.03,0.08-0.06,0.12-0.09c5.05-3.49,8.48-5.38,8.52-5.4c0.36-0.2,0.61-0.54,0.7-0.93
						c0.09-0.4,0-0.81-0.24-1.14c-0.12-0.16-11.89-16.3-26.08-33.47c-19.14-23.17-33.36-37.13-42.25-41.47
						c-20.88-10.2-55.12-19.05-55.47-19.14c-0.76-0.19-1.53,0.26-1.73,1.02c-0.2,0.76,0.26,1.53,1.02,1.73
						c0.34,0.09,34.31,8.87,54.93,18.94c18.82,9.19,59.65,63.73,66.35,72.79c-1.5,0.89-4.14,2.51-7.48,4.83
						c-0.04,0.03-0.08,0.06-0.12,0.1c-9.6,6.67-27.14,20.6-37.67,39.48c-1.53,2.74-2.88,5.52-4.03,8.3l-33.68-41.4
						c-0.5-0.61-1.39-0.7-2-0.21c-0.61,0.49-0.7,1.39-0.21,2l35.22,43.29C610.77,393.99,611.18,394.18,611.6,394.18z"/>
				</g>
				<g>
					<path class="st0" d="M428,240.76c0.12,0,0.24-0.02,0.37-0.05c0.09-0.02,8.95-2.42,21.87-7.89c12.39-5.24,34.29,0.02,34.51,0.07
						c0.76,0.19,1.53-0.28,1.72-1.04s-0.28-1.53-1.04-1.72c-0.93-0.23-23.03-5.53-36.29,0.07c-12.72,5.39-21.41,7.74-21.5,7.76
						c-0.76,0.2-1.21,0.98-1,1.74C426.8,240.34,427.37,240.76,428,240.76z"/>
				</g>
				<g>
					<path class="st0" d="M824.53,496.66c1.12,0,2.25-0.23,3.21-0.87c1.62-1.08,2.37-3.02,2.22-5.75
						c-0.25-4.64-4.64-13.12-11.32-18.73c-7.55-6.35-18.36-11.43-25.7-12.09c-11.81-1.05-29.7,5.99-34.11,7.82L655.15,342.73
						c-0.5-0.6-1.4-0.68-2-0.18s-0.68,1.4-0.18,2l3.94,4.71l100.42,120.41c0.4,0.48,1.08,0.65,1.66,0.39
						c0.21-0.09,21.16-9.12,33.71-8.01c6.83,0.61,16.97,5.41,24.13,11.43c6.35,5.34,10.13,13.27,10.31,16.71
						c0.09,1.66-0.24,2.75-0.96,3.24c-1.48,0.99-4.63-0.13-5.62-0.6c-0.71-0.33-1.55-0.04-1.89,0.67c-0.34,0.71-0.04,1.55,0.67,1.89
						C819.7,495.57,822.08,496.66,824.53,496.66z"/>
				</g>
				<g>
					<path class="st0" d="M816.62,509.83c0.96,0,1.91-0.19,2.78-0.63c1.62-0.82,3.48-2.76,3.15-7.34c-0.19-2.67-0.78-5.38-1.73-8.07
						c-1.8-5.07-4.83-9.62-8.54-12.81c-8.09-6.97-18.44-9.77-18.88-9.89c-0.76-0.2-1.53,0.25-1.73,1.01
						c-0.2,0.76,0.25,1.53,1.01,1.73c0.1,0.03,10.17,2.76,17.75,9.3c3.33,2.87,6.07,6.99,7.72,11.61c0.87,2.44,1.4,4.9,1.58,7.32
						c0.12,1.67-0.06,3.83-1.6,4.6c-1.44,0.73-3.67,0.14-4.84-0.87c-0.56-0.48-1.51-1.82-2.62-3.37c-1.92-2.69-4.56-6.38-8.07-9.87
						c-5.32-5.3-11.21-8.57-17.51-9.71c-0.77-0.14-1.51,0.37-1.65,1.14c-0.14,0.77,0.37,1.51,1.14,1.65
						c5.8,1.06,11.04,3.98,16.02,8.94c3.34,3.31,5.9,6.89,7.76,9.5c1.31,1.84,2.26,3.17,3.09,3.87
						C812.7,509.03,814.66,509.83,816.62,509.83z"/>
				</g>
				<g>
					<path class="st0" d="M760.89,530.99c1.8,0,2.97-0.55,3.84-1.29c2.25-1.89,3.42-4.32,3.49-7.2c0.17-7.9-8.28-17.12-11.47-20.32
						c3.68-2.84,6.32-3.47,13.72-2.67c8.36,0.91,15.82,6.53,22.39,11.49c7.39,5.57,13.77,10.38,19.11,6.19
						c1.24-0.97,1.95-2.4,2.06-4.14c0.43-6.54-7.28-16.25-11.42-20.47c-0.55-0.56-1.45-0.57-2.01-0.02
						c-0.56,0.55-0.57,1.45-0.02,2.01c5.37,5.48,10.92,13.75,10.62,18.3c-0.06,0.94-0.38,1.62-0.98,2.09
						c-3.45,2.7-8.19-0.6-15.65-6.22c-6.87-5.18-14.65-11.05-23.79-12.04c-9.1-0.98-12.1,0.15-17.08,4.3
						c-0.31,0.26-0.5,0.65-0.51,1.05c-0.01,0.41,0.16,0.8,0.46,1.08c0.12,0.11,11.92,11.07,11.74,19.31
						c-0.05,2.06-0.86,3.73-2.48,5.09c-2.08,1.76-10.06,1.21-40.07-22.2c-6.55-5.11-78.49-91.56-100.38-117.94l-4.92-5.93
						c-0.5-0.6-1.39-0.69-2-0.19c-0.6,0.5-0.69,1.39-0.19,2l4.92,5.93c28.12,33.88,94.23,113.23,100.82,118.37
						C745.06,526.27,755.64,530.99,760.89,530.99z"/>
				</g>
				<g>
					<path class="st0" d="M770.18,487.85c-0.64-0.46-0.78-1.35-0.32-1.98l2.2-3.05c0.46-0.64,1.35-0.78,1.98-0.32
						c0.64,0.46,0.78,1.35,0.32,1.98l-2.2,3.05c-0.28,0.38-0.71,0.59-1.15,0.59C770.72,488.12,770.43,488.04,770.18,487.85z
						 M779.03,475.6c-0.64-0.46-0.78-1.35-0.32-1.98l6.65-9.2c0.46-0.63,1.34-0.78,1.98-0.32c0.64,0.46,0.78,1.35,0.32,1.98
						l-6.65,9.2c-0.28,0.38-0.71,0.59-1.15,0.59C779.57,475.87,779.28,475.78,779.03,475.6z"/>
				</g>
				<g>
					<path class="st0" d="M658.21,349.59c0.45,0,0.89-0.21,1.17-0.61c2.46-3.53,4.47-10.59,4.55-10.89
						c0.21-0.75-0.23-1.54-0.98-1.75c-0.75-0.22-1.54,0.23-1.75,0.98c-0.02,0.07-1.96,6.9-4.15,10.04
						c-0.45,0.64-0.29,1.53,0.35,1.98C657.65,349.51,657.93,349.59,658.21,349.59z"/>
				</g>
				<g>
					<path class="st0" d="M610.27,393.26c-0.28-0.73,0.1-1.55,0.83-1.83c3.61-1.36,7.85-3.11,8.93-3.77
						c0.09-0.16,0.22-0.3,0.37-0.41c0.63-0.47,1.52-0.33,1.98,0.29c0.27,0.36,0.36,0.89,0.23,1.31c-0.21,0.71-0.42,1.44-10.52,5.23
						c-0.16,0.06-0.33,0.09-0.5,0.09C611.03,394.18,610.49,393.83,610.27,393.26z M620.11,389.23c-0.06-0.08-0.11-0.17-0.16-0.27
						C619.99,389.06,620.05,389.14,620.11,389.23z"/>
				</g>
				<g>
					<path class="st0" d="M318.77,440.86c2.5,0,4.92-0.02,7.21-0.07c7.95-0.17,14.2-0.64,18.09-1.36c0.7-0.13,1.2-0.76,1.16-1.47
						l-6.34-117.8l3.81,1.18c0.75,0.23,1.54-0.19,1.77-0.94c0.23-0.75-0.19-1.54-0.94-1.77l-5.75-1.78
						c-0.44-0.14-0.93-0.05-1.29,0.24c-0.37,0.29-0.57,0.73-0.54,1.19l6.38,118.57c-3.78,0.58-9.41,0.96-16.4,1.1
						c-20.62,0.45-52.6-1.24-68.3-4.73c-7.75-1.72-8.29-3.2-8.3-3.21c0.39-7.61-1.76-119.69-2.05-134.48l48.12-0.4
						c0.6-0.01,1.13-0.39,1.33-0.95c0.2-0.56,0.02-1.19-0.45-1.57l-8.65-7.02l10.84-5.21c0.43-0.2,0.72-0.61,0.79-1.07
						c0.07-0.47-0.1-0.94-0.45-1.26l-8.67-7.87l8.59-2.87c0.49-0.16,0.85-0.58,0.94-1.08c0.1-0.5-0.09-1.02-0.48-1.35l-27.62-23.26
						l-1.93-1.93c10.83-8.38,35.93-11.1,64.76,14.44c4.14,3.66,8.46,7.61,13.2,12.06c11.05,10.39,23.23,22.48,36.21,35.92
						c20.61,21.37,36.25,38.98,36.41,39.16c0.52,0.59,1.42,0.64,2,0.12c0.59-0.52,0.64-1.42,0.12-2
						c-0.16-0.18-15.84-17.83-36.49-39.24c-13.01-13.47-25.23-25.59-36.31-36.01c-4.77-4.48-9.11-8.44-13.27-12.12
						c-28-24.81-56.26-25.55-69.7-13.46c-0.29,0.26-0.46,0.63-0.47,1.02s0.14,0.77,0.42,1.04l3.07,3.07
						c0.03,0.03,0.06,0.05,0.09,0.08l0.97,0.82l24.76,20.85l-8.49,2.83c-0.48,0.16-0.84,0.56-0.94,1.05s0.06,1,0.43,1.34l8.9,8.08
						L284.38,284c-0.44,0.21-0.74,0.63-0.79,1.11c-0.06,0.48,0.14,0.96,0.52,1.27l7.32,5.94l-45.61,0.37
						c-0.38,0-0.74,0.16-1.01,0.43c-0.26,0.27-0.41,0.64-0.4,1.02c0.02,1.28,2.48,127.84,2.08,135.76
						c-0.13,2.6,3.02,4.42,10.51,6.08C271.38,439.18,298.09,440.86,318.77,440.86z"/>
				</g>
				<g>
					<path class="st0" d="M619.13,619.34c17.66,0,30.69-6.37,37.79-18.51c10.39-17.77,6.25-45.39-3.75-61.83
						c-14.29-23.47-92.35-119.65-93.14-120.62c-0.49-0.61-1.39-0.7-2-0.21c-0.61,0.49-0.7,1.39-0.21,2
						c0.79,0.97,78.72,97,92.92,120.3c9.57,15.73,13.58,42.07,3.73,58.92c-6.98,11.94-19.71,17.68-37.85,17.06
						c-51.13-1.75-182.61-8.96-196.56-9.72c-0.28-2.51-0.96-8.84-1.57-17.19c-1.47-19.98-2.39-48.06,1.61-68.37
						c1.34-6.87,3.17-12.35,5.45-16.32l147.38,15.18c0.78,0.07,1.48-0.49,1.56-1.27s-0.49-1.48-1.27-1.56l-148.28-15.27
						c-0.54-0.05-1.07,0.2-1.35,0.67c-2.66,4.31-4.77,10.37-6.27,18.02c-4.06,20.62-3.15,48.97-1.66,69.12
						c0.8,10.93,1.71,18.43,1.72,18.51c0.08,0.68,0.64,1.21,1.33,1.24c1.43,0.08,144.03,7.95,197.81,9.79
						C617.41,619.32,618.28,619.34,619.13,619.34z"/>
				</g>
				<g>
					<path class="st0" d="M493.14,511.81c0.35,0,0.71-0.13,0.98-0.4c0.56-0.54,0.58-1.44,0.04-2.01
						c-22.26-23.12-47.05-48.32-59.5-54.71c-3.5-1.79-7.39-3.24-11.9-4.92c-19.19-7.13-48.19-17.9-81.02-73.71
						c-0.4-0.67-1.27-0.9-1.94-0.5c-0.68,0.4-0.9,1.27-0.5,1.94c33.34,56.68,62.91,67.66,82.48,74.93c4.42,1.64,8.25,3.06,11.6,4.78
						c12.06,6.19,36.65,31.2,58.75,54.15C492.39,511.66,492.77,511.81,493.14,511.81z"/>
				</g>
				<g>
					<path class="st0" d="M424.15,196.73l2.83-0.19l-0.79-11.73c-0.76-11.1,0.83-20.61,4.61-27.51c2.92-5.34,6.43-7.81,7.87-8.37
						c7.46-2.88,17-4.98,21.51-3.16c0.65,0.25,1.15,0.58,1.51,0.99c0.17,0.2,0.31,0.41,0.42,0.64c0.4,0.86,0.48,1.4,0.28,1.95
						c-0.54,1.43-3.06,3.14-7.51,5.07c-0.61,0.27-0.96,0.92-0.82,1.58c0.13,0.65,0.7,1.13,1.37,1.14c0.57,0.01,2.23,0.27,3.04,1.27
						c0.52,0.63,0.67,1.5,0.46,2.67c-0.44,2.56-3.32,4.42-11.38,7.4c-0.65,0.24-1.03,0.91-0.9,1.59s0.72,1.12,1.41,1.16
						c0.85,0.01,3.3,0.24,4.4,1.43c0.45,0.48,0.63,1.08,0.56,1.87c-0.3,3.63-4.74,5.81-17.9,10.49c-0.74,0.26-1.12,1.07-0.86,1.81
						s1.08,1.12,1.81,0.86c13.69-4.87,19.31-7.41,19.77-12.93c0.13-1.58-0.33-2.98-1.32-4.05c-0.5-0.53-1.08-0.94-1.7-1.26
						c5.4-2.29,8.3-4.46,8.9-7.89c0.35-2.01-0.01-3.68-1.08-4.97c-0.39-0.48-0.85-0.85-1.32-1.15c3.26-1.73,5.06-3.35,5.71-5.1
						c0.63-1.69,0.09-3.18-0.37-4.16c-0.22-0.46-0.51-0.9-0.86-1.3c-0.67-0.76-1.55-1.35-2.6-1.75c-5.56-2.25-16.18,0.29-23.57,3.15
						c-4.59,1.77-16.11,12.18-14.29,38.72L424.15,196.73z"/>
				</g>
				<g>
					<path class="st0" d="M349.08,264.14c0.33,0,0.66-0.11,0.92-0.34l76.04-65.21c0.59-0.51,0.66-1.41,0.15-2s-1.41-0.66-2-0.15
						l-76.04,65.21c-0.59,0.51-0.66,1.41-0.15,2C348.28,263.97,348.68,264.14,349.08,264.14z"/>
				</g>
				<g>
					<path class="st0" d="M431.02,311.25c0.54,0,1.06-0.31,1.3-0.84c0.32-0.72-0.01-1.55-0.72-1.87c-22.19-9.85-31.21-28-31.3-28.18
						c-0.34-0.7-1.19-1-1.9-0.66c-0.7,0.34-1,1.19-0.66,1.9c0.38,0.78,9.57,19.27,32.7,29.54
						C430.64,311.21,430.83,311.25,431.02,311.25z"/>
				</g>
				<g>
					<path class="st0" d="M539.59,421.19c11.55,0,19.31-0.49,19.43-0.5c0.49-0.03,0.93-0.32,1.16-0.75
						c11.88-22.39,16.13-50.62,17.61-70.36c1.11-14.71,0.7-25.14,0.69-25.24c-0.03-0.78-0.67-1.4-1.48-1.36
						c-0.78,0.03-1.39,0.69-1.36,1.48c0,0.1,0.41,10.38-0.69,24.91c-1.44,19.26-5.56,46.69-16.92,68.54
						c-8.29,0.45-79.14,3.58-110.06-17.04c-16.88-11.25-23.53-24.79-26.14-34.16c-2.58-9.26-1.84-16.41-1.68-17.69
						c0.93-1.85,2.06-4.53,3.36-7.99c3.32-8.88,7.27-21.49,10-30.5c3.56-11.78,6.33-21.67,6.36-21.77c0.21-0.75-0.23-1.54-0.98-1.75
						c-0.76-0.21-1.54,0.23-1.75,0.98c-0.03,0.1-2.79,9.96-6.34,21.71c-2.72,8.97-6.64,21.52-9.94,30.33
						c-1.32,3.49-2.44,6.15-3.34,7.91c-0.07,0.13-0.11,0.27-0.14,0.42c-0.05,0.33-1.29,8.22,1.68,18.97
						c2.72,9.88,9.68,24.13,27.34,35.91c14.1,9.4,37.35,15.19,69.12,17.22C524.37,421.01,532.66,421.19,539.59,421.19z"/>
				</g>
				<g>
					<path class="st0" d="M324.62,503.21c-0.71-0.02-71.58-1.65-98.34-1.14c-19.88,0.37-32.04-1.67-37.18-6.23
						c-2.04-1.81-2.95-4-2.72-6.5c0.75-7.98,13.45-16.2,17.33-18.53c15.29-9.2,38.73-12.1,45.55-12.77c3.3-0.32,5.45-0.47,6.87-0.44
						l-0.47-21.96c-0.02-0.78,0.6-1.43,1.39-1.45c0.82,0.01,1.43,0.61,1.45,1.39l0.5,23.58c0.02,0.74-0.54,1.36-1.27,1.44
						c-0.26,0.03-0.51-0.02-0.74-0.12c-0.66-0.06-3.1-0.04-7.46,0.39c-6.67,0.65-29.57,3.49-44.36,12.38
						c-7.39,4.44-15.47,11.07-15.97,16.36c-0.15,1.57,0.44,2.92,1.78,4.11c3.1,2.76,11.74,5.95,35.24,5.52
						c24.71-0.46,86.84,0.88,97.04,1.1l1.28-60.48c0.02-0.78,0.67-1.41,1.45-1.39s1.41,0.67,1.39,1.45l-1.31,61.9
						c-0.01,0.38-0.17,0.73-0.44,0.99c-0.26,0.25-0.62,0.39-0.98,0.39C324.64,503.21,324.63,503.21,324.62,503.21z M256.21,459.6
						L256.21,459.6L256.21,459.6z M256.21,459.6c-0.01-0.04-0.02-0.09-0.03-0.13C256.19,459.51,256.2,459.56,256.21,459.6z"/>
				</g>
				<g>
					<path class="st0" d="M323.71,497.01c0.78,0,1.41-0.63,1.42-1.41s-0.63-1.42-1.41-1.43l-133.6-0.89h-0.01
						c-0.78,0-1.41,0.63-1.42,1.41s0.63,1.42,1.41,1.43L323.71,497.01C323.7,497.01,323.7,497.01,323.71,497.01z"/>
				</g>
				<g>
					<path class="st0" d="M272.99,461.43c0.09,0,0.17-0.01,0.26-0.02c0.77-0.14,1.28-0.88,1.14-1.65
						c-0.06-0.32-1.49-7.78-6.76-10.33c-2.79-1.35-6.03-1.07-9.63,0.83c-0.69,0.37-0.96,1.22-0.59,1.92
						c0.37,0.69,1.22,0.96,1.92,0.59c2.76-1.45,5.13-1.72,7.06-0.79c3.97,1.92,5.2,8.23,5.21,8.3
						C271.72,460.95,272.32,461.43,272.99,461.43z"/>
				</g>
				<g>
					<path class="st0" d="M303.37,467.18c13.97,0,22.07-3.95,22.6-4.22c0.7-0.35,0.98-1.2,0.63-1.9c-0.35-0.7-1.2-0.98-1.9-0.63
						c-0.24,0.12-20.03,9.65-51.22-1.75c-0.74-0.27-1.55,0.11-1.82,0.85c-0.27,0.74,0.11,1.55,0.85,1.82
						C284.63,465.77,295.04,467.18,303.37,467.18z"/>
				</g>
				<g>
					<path class="st0" d="M254.65,471.21c0.22,0,0.44-0.05,0.64-0.15c0.7-0.36,0.98-1.21,0.62-1.91l-5.26-10.33
						c-0.36-0.7-1.21-0.97-1.91-0.62c-0.7,0.36-0.98,1.21-0.62,1.91l5.26,10.33C253.64,470.93,254.13,471.21,254.65,471.21z"/>
				</g>
				<g>
					<path class="st0" d="M245.82,472.48c0.22,0,0.44-0.05,0.64-0.16c0.7-0.36,0.98-1.21,0.62-1.91l-5.27-10.33
						c-0.36-0.7-1.21-0.98-1.91-0.62c-0.7,0.36-0.98,1.21-0.62,1.91l5.27,10.33C244.81,472.19,245.31,472.48,245.82,472.48z"/>
				</g>
				<g>
					<path class="st0" d="M237.59,474.6c0.22,0,0.44-0.05,0.64-0.16c0.7-0.36,0.98-1.21,0.62-1.91l-5.27-10.33
						c-0.36-0.7-1.21-0.97-1.91-0.62c-0.7,0.36-0.98,1.21-0.62,1.91l5.27,10.33C236.57,474.32,237.07,474.6,237.59,474.6z"/>
				</g>
				<g>
					<path class="st0" d="M351.14,652.8c-4.17-5.48-5.26-17.77-3.34-37.57c2.59-26.64,6.46-97.42,6.5-98.13
						c0.02-0.38,0.19-0.73,0.47-0.98s0.65-0.37,1.03-0.36l61.83,3.5c0.78,0.04,1.38,0.71,1.34,1.5c-0.04,0.78-0.72,1.36-1.5,1.34
						l-60.41-3.42c-0.56,10.19-4.05,72.24-6.43,96.83c-2.27,23.4,0.25,32.26,2.77,35.58c1.07,1.41,2.34,2.09,3.88,2.09
						c0.03,0,0.06,0,0.08,0c5.31-0.09,12.55-7.63,17.55-14.65c10.01-14.06,14.6-36.67,15.77-43.26c0.76-4.29,0.97-6.72,0.96-7.4
						c-0.08-0.22-0.11-0.47-0.07-0.72c0.12-0.74,0.79-1.25,1.54-1.18l23.47,2.33c0.78,0.08,1.35,0.77,1.27,1.55
						c-0.08,0.78-0.78,1.35-1.55,1.27l-21.85-2.17c-0.1,1.42-0.4,3.55-0.98,6.81c-1.2,6.74-5.91,29.87-16.26,44.41
						c-2.62,3.69-11.8,15.72-19.82,15.84c-0.04,0-0.09,0-0.13,0C354.82,656,352.76,654.92,351.14,652.8z M392.66,588.75
						c-0.12-0.03-0.23-0.07-0.33-0.12C392.42,588.68,392.53,588.72,392.66,588.75z"/>
				</g>
				<g>
					<path class="st0" d="M352.35,653.29c0.74,0,1.36-0.57,1.41-1.32l9.48-133.27c0.06-0.78-0.53-1.46-1.31-1.52
						c-0.78-0.07-1.46,0.53-1.52,1.31l-9.48,133.27c-0.06,0.78,0.53,1.46,1.31,1.52C352.28,653.29,352.32,653.29,352.35,653.29z"/>
				</g>
				<g>
					<path class="st0" d="M400.73,588.29c0.47,0,0.93-0.23,1.2-0.66c2.18-3.44,2.71-6.65,1.58-9.54c-2.14-5.45-9.47-7.46-9.78-7.54
						c-0.76-0.21-1.53,0.25-1.74,1.01c-0.2,0.76,0.25,1.53,1,1.74c0.09,0.02,6.27,1.74,7.87,5.84c0.78,2,0.33,4.34-1.33,6.98
						c-0.42,0.66-0.22,1.54,0.44,1.96C400.21,588.22,400.48,588.29,400.73,588.29z"/>
				</g>
				<g>
					<path class="st0" d="M393.37,573.34c0.13,0,0.25-0.02,0.38-0.05c0.75-0.21,1.2-0.99,0.98-1.75
						c-8.97-32.12,2.12-51.01,2.23-51.2c0.41-0.67,0.19-1.54-0.48-1.95c-0.67-0.41-1.54-0.19-1.95,0.48
						c-0.49,0.81-11.84,20.14-2.54,53.43C392.18,572.93,392.75,573.34,393.37,573.34z"/>
				</g>
				<g>
					<path class="st0" d="M392.08,596.92c0.48,0,0.94-0.24,1.21-0.68c0.41-0.67,0.2-1.54-0.47-1.95l-9.89-6.05
						c-0.67-0.41-1.54-0.2-1.95,0.47s-0.2,1.54,0.47,1.95l9.89,6.05C391.57,596.85,391.83,596.92,392.08,596.92z"/>
				</g>
				<g>
					<path class="st0" d="M390.13,605.62c0.48,0,0.94-0.24,1.21-0.68c0.41-0.67,0.2-1.54-0.47-1.95l-9.89-6.04
						c-0.67-0.41-1.54-0.2-1.95,0.47s-0.2,1.54,0.47,1.95l9.89,6.04C389.62,605.55,389.88,605.62,390.13,605.62z"/>
				</g>
				<g>
					<path class="st0" d="M387.37,613.67c0.48,0,0.94-0.24,1.21-0.68c0.41-0.67,0.2-1.54-0.47-1.95l-9.89-6.05
						c-0.67-0.41-1.54-0.2-1.95,0.47s-0.2,1.54,0.47,1.95l9.89,6.05C386.86,613.6,387.12,613.67,387.37,613.67z"/>
				</g>
				<g>
					<path class="st0" d="M251.99,294.35C251.99,294.35,252,294.35,251.99,294.35c0.79,0,1.42-0.64,1.42-1.43
						c-0.09-18.71,4.8-30.51,8.92-37.12c4.44-7.13,8.96-9.91,9.01-9.94c0.67-0.4,0.89-1.27,0.49-1.95c-0.4-0.67-1.27-0.89-1.94-0.49
						c-0.8,0.47-19.48,12.02-19.31,49.51C250.58,293.72,251.21,294.35,251.99,294.35z"/>
				</g>
				<g>
					<path class="st0" d="M438.96,160.78c0.1,0,0.2-0.01,0.31-0.03l16.49-3.64c0.76-0.17,1.25-0.93,1.08-1.69
						c-0.17-0.77-0.93-1.25-1.69-1.08l-16.49,3.64c-0.76,0.17-1.25,0.93-1.08,1.69C437.72,160.33,438.31,160.78,438.96,160.78z"/>
				</g>
				<g>
					<path class="st0" d="M434.01,174.64c0.11,0,0.22-0.01,0.34-0.04l14.03-3.42c0.76-0.19,1.23-0.95,1.04-1.71
						c-0.19-0.76-0.95-1.23-1.71-1.04l-14.03,3.42c-0.76,0.19-1.23,0.95-1.04,1.71C432.79,174.2,433.38,174.64,434.01,174.64z"/>
				</g>
				<g>
					<path class="st0" d="M444.28,206.84c0-1.71,1.39-3.09,3.09-3.09c1.71,0,3.09,1.39,3.09,3.09c0,1.71-1.39,3.09-3.09,3.09
						S444.28,208.54,444.28,206.84z M447.12,206.84c0,0.29,0.51,0.29,0.51,0c0-0.14-0.11-0.26-0.25-0.26S447.12,206.7,447.12,206.84
						z"/>
				</g>
				<g>
					<path class="st0" d="M385.28,302.13c0.45,0,0.89-0.21,1.17-0.61l55.39-79.58c0.03-0.04,0.05-0.08,0.07-0.12l5.03-9.01
						c0.38-0.68,0.14-1.55-0.55-1.93c-0.68-0.38-1.55-0.14-1.93,0.55l-5,8.95l-55.35,79.52c-0.45,0.64-0.29,1.53,0.35,1.98
						C384.72,302.04,385,302.13,385.28,302.13z"/>
				</g>
				<g>
					<path class="st0" d="M458.48,219.9c3.09,0,6.11-1.58,7.81-4.42l1.91-3.36c0.39-0.68,0.15-1.55-0.53-1.93
						c-0.68-0.39-1.55-0.15-1.93,0.53l-1.89,3.33c-1.75,2.92-5.58,3.9-8.53,2.14l-21.03-12.53c-1.42-0.85-2.43-2.2-2.85-3.82
						c-0.41-1.62-0.17-3.29,0.68-4.71l4.28-7.2c0.4-0.67,0.18-1.54-0.5-1.94c-0.68-0.4-1.54-0.18-1.94,0.5l-4.28,7.2
						c-1.24,2.07-1.59,4.51-0.99,6.86c0.6,2.36,2.07,4.33,4.14,5.56l21.03,12.53C455.3,219.49,456.9,219.9,458.48,219.9z"/>
				</g>
				<g>
					<path class="st0" d="M460.88,145.47c0.48,0,0.96-0.25,1.22-0.69c1.75-2.95,5.58-3.92,8.54-2.16l1.15,0.69
						c0.22,0.13,0.47,0.2,0.73,0.2c0.78,0,1.42-0.64,1.42-1.42c0-0.56-0.32-1.04-0.79-1.27l-1.06-0.63
						c-4.3-2.56-9.88-1.14-12.43,3.15c-0.4,0.67-0.18,1.54,0.5,1.94C460.38,145.41,460.63,145.47,460.88,145.47z"/>
				</g>
				<g>
					<path class="st0" d="M464.85,210.67c0.78,0,1.41-0.63,1.42-1.41s-0.63-1.42-1.41-1.43c-1.28-0.01-3.22-0.36-4.06-0.86
						l-20.35-12.12c-2.4-1.42-3.55-4.3-2.81-7c0.21-0.76-0.24-1.54-0.99-1.74c-0.75-0.21-1.54,0.24-1.74,0.99
						c-1.08,3.93,0.61,8.12,4.1,10.19l20.35,12.12C460.99,210.39,463.67,210.66,464.85,210.67
						C464.85,210.67,464.85,210.67,464.85,210.67z"/>
				</g>
				<g>
					<path class="st0" d="M471.41,149.06c0.48,0,0.96-0.25,1.22-0.69c0.4-0.67,0.18-1.54-0.49-1.95l-2.08-1.24
						c-2.8-1.66-5.02-2.67-8.11-0.54c-0.65,0.45-0.81,1.33-0.36,1.97s1.33,0.81,1.97,0.36c1.65-1.14,2.48-0.88,5.04,0.64l2.08,1.24
						C470.91,148.99,471.16,149.06,471.41,149.06z"/>
				</g>
			</g>
		</g>
		<g>
			<g>
				<path class="st1" d="M466.35,167.91c0.15,0,0.3-0.02,0.45-0.07c0.74-0.25,1.14-1.05,0.9-1.8l-3.6-10.77
					c-0.25-0.74-1.05-1.15-1.8-0.9c-0.74,0.25-1.14,1.05-0.9,1.8l3.6,10.77C465.2,167.53,465.75,167.91,466.35,167.91z"/>
			</g>
		</g>
		<g>
			<g>
				<path class="st1" d="M464.88,177.51c0.15,0,0.3-0.02,0.45-0.07c0.74-0.25,1.14-1.05,0.9-1.8l-3.6-10.77
					c-0.25-0.74-1.05-1.15-1.8-0.9c-0.74,0.25-1.14,1.05-0.9,1.8l3.6,10.77C463.73,177.14,464.28,177.51,464.88,177.51z"/>
			</g>
		</g>
		<g>
			<g>
				<path class="st0" d="M279.15,264.13c0.56,0,1.09-0.34,1.32-0.89c0.29-0.73-0.06-1.55-0.79-1.85l-11.81-4.75
					c-0.73-0.29-1.55,0.06-1.85,0.79c-0.29,0.73,0.06,1.55,0.79,1.85l11.81,4.75C278.79,264.1,278.97,264.13,279.15,264.13z"/>
			</g>
		</g>
		<g>
			<g>
				<path class="st0" d="M270.6,271.3c0.67,0,1.26-0.48,1.39-1.16c0.15-0.77-0.36-1.51-1.13-1.66l-6.25-1.18
					c-0.77-0.15-1.51,0.36-1.66,1.13c-0.15,0.77,0.36,1.51,1.13,1.66l6.25,1.18C270.43,271.29,270.52,271.3,270.6,271.3z"/>
			</g>
		</g>
		<g>
			<g>
				<path class="st0" d="M276.86,272.48c0.67,0,1.26-0.48,1.39-1.16c0.15-0.77-0.36-1.51-1.13-1.66l-1.38-0.26
					c-0.77-0.15-1.51,0.36-1.66,1.13c-0.15,0.77,0.36,1.51,1.13,1.66l1.38,0.26C276.68,272.47,276.77,272.48,276.86,272.48z"/>
			</g>
		</g>
		<g>
			<g>
				<path class="st0" d="M262.3,281.26h0.01l1.59-0.01c0.78-0.01,1.41-0.65,1.41-1.43c-0.01-0.78-0.64-1.41-1.42-1.41h-0.01
					l-1.59,0.01c-0.78,0.01-1.41,0.65-1.41,1.43C260.88,280.63,261.52,281.26,262.3,281.26z"/>
			</g>
		</g>
		<g>
			<g>
				<path class="st0" d="M270.6,281.19h0.01l4.42-0.03c0.78-0.01,1.41-0.65,1.41-1.43c-0.01-0.78-0.64-1.41-1.42-1.41h-0.01
					l-4.42,0.03c-0.78,0.01-1.41,0.65-1.41,1.43C269.19,280.57,269.82,281.19,270.6,281.19z"/>
			</g>
		</g>
		<g>
			<g>
				<g>
					<path class="st1" d="M456.19,373.88c0.17,0,0.35-0.03,0.51-0.1c0.73-0.28,1.09-1.11,0.81-1.84l-8.08-20.76
						c-0.28-0.73-1.1-1.09-1.84-0.81c-0.73,0.28-1.09,1.11-0.81,1.84l8.08,20.76C455.09,373.54,455.63,373.88,456.19,373.88z"/>
				</g>
			</g>
			<g>
				<g>
					<path class="st1" d="M444.91,344.89c0.17,0,0.35-0.03,0.51-0.1c0.73-0.28,1.09-1.11,0.81-1.84l-3.04-7.83
						c-0.28-0.73-1.1-1.09-1.84-0.81c-0.73,0.28-1.09,1.11-0.81,1.84l3.04,7.83C443.81,344.54,444.35,344.89,444.91,344.89z"/>
				</g>
			</g>
		</g>
		<g>
			<g>
				<path class="st1" d="M452.36,383.72c0.17,0,0.35-0.03,0.52-0.1c0.73-0.29,1.09-1.11,0.8-1.84l-3.46-8.81
					c-0.29-0.73-1.11-1.09-1.84-0.8s-1.09,1.11-0.8,1.84l3.46,8.81C451.26,383.37,451.79,383.72,452.36,383.72z"/>
			</g>
		</g>
		<g>
			<g>
				<path class="st3" d="M448.9,373.48"/>
			</g>
		</g>
		<g>
			<g>
				<path class="st1" d="M446.91,369.84c0.17,0,0.35-0.03,0.52-0.1c0.73-0.29,1.09-1.11,0.8-1.84l-4.03-10.29
					c-0.29-0.73-1.11-1.09-1.84-0.8s-1.09,1.11-0.8,1.84l4.03,10.29C445.81,369.49,446.35,369.84,446.91,369.84z"/>
			</g>
		</g>
		<g>
			<g>
				<path class="st3" d="M442.88,358.13"/>
			</g>
		</g>
		<g>
			<g>
				<path class="st1" d="M440.96,354.65c0.17,0,0.35-0.03,0.52-0.1c0.73-0.29,1.09-1.11,0.8-1.84l-0.59-1.5
					c-0.29-0.73-1.11-1.09-1.84-0.8s-1.09,1.11-0.8,1.84l0.59,1.5C439.86,354.31,440.39,354.65,440.96,354.65z"/>
			</g>
		</g>
		<g>
			<g>
				<path class="st0" d="M433.38,457.23c-0.35-0.17-0.59-0.47-0.71-0.81c-0.14-0.42-1.37-4.13-1.65-10.51
					c-0.03-0.78,0.57-1.45,1.35-1.48c0.78-0.07,1.45,0.57,1.48,1.35c0.27,6.1,1.45,9.56,1.5,9.71c0.12,0.36,0.1,0.76-0.07,1.1
					c-0.25,0.5-0.75,0.78-1.27,0.78C433.8,457.38,433.59,457.33,433.38,457.23z M432.79,435.93c-0.78-0.1-1.32-0.82-1.22-1.59
					c0.49-3.7,1.28-7.5,2.35-11.3c0.21-0.76,1-1.2,1.75-0.98c0.75,0.21,1.19,1,0.98,1.75c-1.04,3.67-1.8,7.34-2.27,10.91
					c-0.09,0.71-0.7,1.23-1.41,1.23C432.92,435.95,432.85,435.94,432.79,435.93z"/>
			</g>
		</g>
		<g>
			<g>
				<path class="st0" d="M423.82,601.26l-0.03-0.58c-0.04-0.78,0.56-1.45,1.35-1.49c0.78-0.02,1.45,0.56,1.49,1.35l0.03,0.57
					c0.04,0.78-0.56,1.45-1.34,1.49c-0.03,0-0.05,0-0.08,0C424.48,602.6,423.86,602.01,423.82,601.26z M423.3,589.31
					c-0.13-3.87-0.23-7.69-0.28-11.37c-0.01-0.78,0.61-1.43,1.4-1.44c0.74-0.02,1.43,0.62,1.44,1.4c0.05,3.66,0.15,7.47,0.28,11.32
					c0.03,0.78-0.59,1.44-1.37,1.47c-0.02,0-0.03,0-0.05,0C423.96,590.68,423.33,590.08,423.3,589.31z M424.38,567.98
					c-0.78-0.01-1.41-0.65-1.41-1.43c0.03-3.9,0.11-7.73,0.23-11.38c0.03-0.78,0.68-1.4,1.47-1.37c0.78,0.03,1.4,0.68,1.37,1.47
					c-0.12,3.63-0.2,7.43-0.23,11.31C425.8,567.36,425.17,567.99,424.38,567.98C424.39,567.98,424.39,567.98,424.38,567.98z
					 M425.1,545.3c-0.78-0.05-1.37-0.73-1.32-1.51c0.27-3.99,0.61-7.81,1.02-11.36c0.09-0.78,0.79-1.35,1.57-1.25
					c0.78,0.09,1.34,0.79,1.25,1.57c-0.4,3.51-0.74,7.29-1.01,11.24c-0.05,0.75-0.67,1.32-1.41,1.32
					C425.17,545.31,425.13,545.31,425.1,545.3z M427.58,522.76c-0.77-0.14-1.28-0.88-1.14-1.65c1.46-7.95,2.84-11.15,2.9-11.28
					c0.31-0.72,1.15-1.04,1.86-0.73c0.72,0.31,1.05,1.15,0.74,1.87c-0.01,0.03-1.32,3.11-2.71,10.66c-0.13,0.68-0.72,1.16-1.39,1.16
					C427.76,522.78,427.67,522.77,427.58,522.76z"/>
			</g>
		</g>
		<g>
			<g>
				<path class="st0" d="M303.06,433.52c-0.78-0.02-1.4-0.67-1.39-1.45c0.02-0.78,0.64-1.37,1.45-1.39
					c3.76,0.09,7.69,0.11,11.31,0.08h0.01c0.78,0,1.41,0.63,1.42,1.41s-0.62,1.42-1.41,1.43c-1.09,0.01-2.2,0.02-3.34,0.02
					C308.44,433.61,305.72,433.58,303.06,433.52z M324.38,431.96c-0.03-0.78,0.58-1.44,1.36-1.48c6.91-0.28,11.22-0.67,11.27-0.67
					c0.77-0.06,1.47,0.5,1.54,1.29c0.07,0.78-0.5,1.47-1.28,1.54c-0.04,0-4.42,0.4-11.41,0.68c-0.02,0-0.04,0-0.06,0
					C325.04,433.32,324.41,432.72,324.38,431.96z M291.67,433.06c-3.88-0.23-7.71-0.53-11.38-0.9c-0.78-0.08-1.35-0.77-1.27-1.55
					c0.08-0.78,0.78-1.36,1.55-1.27c3.63,0.36,7.42,0.66,11.26,0.89c0.78,0.05,1.38,0.72,1.33,1.5c-0.04,0.75-0.67,1.34-1.42,1.34
					C291.72,433.06,291.7,433.06,291.67,433.06z M268.95,430.75c-3.91-0.59-7.7-1.28-11.26-2.05c-0.77-0.17-1.25-0.92-1.09-1.69
					c0.17-0.77,0.92-1.25,1.69-1.09c3.5,0.76,7.23,1.43,11.08,2.01c0.78,0.12,1.31,0.84,1.19,1.61c-0.11,0.7-0.71,1.21-1.4,1.21
					C269.1,430.77,269.03,430.76,268.95,430.75z"/>
			</g>
		</g>
		<g>
			<g>
				<path class="st0" d="M573.11,519.14c0.3,0,0.59-0.09,0.85-0.28c0.63-0.47,0.76-1.36,0.29-1.99l-3.03-4.07
					c-0.47-0.63-1.36-0.76-1.99-0.29c-0.63,0.47-0.76,1.36-0.29,1.99l3.03,4.07C572.25,518.94,572.67,519.14,573.11,519.14z"/>
			</g>
		</g>
		<g>
			<g>
				<path class="st0" d="M591.46,593.56c-0.6-0.51-0.68-1.4-0.17-2l2.68-3.19c0.5-0.6,1.4-0.67,2-0.17c0.6,0.51,0.68,1.4,0.17,2
					l-2.69,3.19c-0.28,0.33-0.68,0.5-1.09,0.5C592.05,593.89,591.72,593.78,591.46,593.56z M601.45,581.69
					c-0.6-0.51-0.68-1.4-0.17-2l7.31-8.68c0.5-0.6,1.4-0.67,2-0.17c0.6,0.51,0.68,1.4,0.17,2l-7.31,8.68
					c-0.28,0.33-0.68,0.5-1.09,0.5C602.05,582.02,601.72,581.91,601.45,581.69z"/>
			</g>
		</g>
		<g>
			<g>
				<path class="st0" d="M593.37,583.28c-0.6-0.51-0.68-1.4-0.17-2l2.69-3.19c0.5-0.6,1.4-0.67,2-0.17c0.6,0.51,0.68,1.4,0.17,2
					l-2.68,3.19c-0.28,0.33-0.68,0.5-1.09,0.5C593.97,583.62,593.64,583.51,593.37,583.28z M603.37,571.41
					c-0.6-0.51-0.68-1.4-0.17-2l7.31-8.68c0.5-0.6,1.4-0.67,2-0.17c0.6,0.51,0.68,1.4,0.17,2l-7.31,8.68
					c-0.28,0.33-0.68,0.5-1.09,0.5C603.96,571.75,603.64,571.64,603.37,571.41z"/>
			</g>
		</g>
		<g>
			<g>
				<path class="st0" d="M250.6,298.59c0-0.78,0.64-1.42,1.42-1.42h4.42c0.78,0,1.42,0.64,1.42,1.42s-0.64,1.42-1.42,1.42h-4.42
					C251.24,300.01,250.6,299.38,250.6,298.59z M266.38,298.59c0-0.78,0.64-1.42,1.42-1.42h11.35c0.78,0,1.42,0.64,1.42,1.42
					s-0.64,1.42-1.42,1.42H267.8C267.01,300.01,266.38,299.38,266.38,298.59z"/>
			</g>
		</g>
		<g>
			<g>
				<path class="st0" d="M292.43,257.45l-1.74-1.62c-0.57-0.53-0.61-1.43-0.07-2.01c0.53-0.57,1.43-0.61,2.01-0.07l1.74,1.62
					c0.57,0.53,0.61,1.43,0.07,2.01c-0.28,0.3-0.66,0.45-1.04,0.45C293.05,257.83,292.71,257.7,292.43,257.45z M282.37,248.11
					l-8.32-7.73c-0.57-0.53-0.61-1.43-0.07-2.01c0.53-0.57,1.43-0.61,2.01-0.07l8.32,7.73c0.57,0.53,0.61,1.43,0.07,2.01
					c-0.28,0.3-0.66,0.45-1.04,0.45C282.99,248.49,282.65,248.36,282.37,248.11z"/>
			</g>
		</g>
	</g>
	<g>
		<path class="st0" d="M247.88,242.02c0.38,0,0.75-0.15,1.03-0.45c0.54-0.57,0.51-1.47-0.06-2.01l-17.44-16.45
			c-0.57-0.54-1.47-0.51-2.01,0.06c-0.54,0.57-0.51,1.47,0.06,2.01l17.44,16.45C247.18,241.89,247.53,242.02,247.88,242.02z"/>
	</g>
	<g>
		<path class="st0" d="M240.57,255.99c0.6,0,1.15-0.38,1.35-0.97c0.25-0.74-0.16-1.55-0.9-1.79l-22.77-7.52
			c-0.75-0.25-1.55,0.16-1.79,0.9c-0.25,0.74,0.16,1.55,0.9,1.79l22.77,7.52C240.27,255.97,240.42,255.99,240.57,255.99z"/>
	</g>
	<g>
		<path class="st0" d="M216.06,274.58c0.06,0,0.11,0,0.17-0.01l23.81-2.83c0.78-0.09,1.33-0.8,1.24-1.58s-0.8-1.34-1.58-1.24
			l-23.81,2.83c-0.78,0.09-1.33,0.8-1.24,1.58C214.74,274.05,215.35,274.58,216.06,274.58z"/>
	</g>
</g>
</svg>
