<svg width="32" height="40" viewBox="0 0 24 39" fill="none" xmlns="http://www.w3.org/2000/svg">
<g clip-path="url(#clip0_30:2791)">
<path d="M23.7562 20.3305C23.7562 16.4079 20.7177 15.1177 20.7177 15.1177C20.5763 10.299 19.8935 8.5019 19.8935 8.5019C19.8935 8.5019 18.3377 1.66096 12.0902 1.82518C6.94981 1.96124 5.49644 7.92479 5.21845 8.86319C4.94046 9.8016 4.70148 14.6813 4.70148 14.6813C0.453567 15.4742 0.312133 23.8166 0.312133 23.8166L8.58307e-06 35.5467C8.58307e-06 35.5467 2.52145 39 12.1927 39C21.8639 39 24.0049 34.9461 24.0049 34.9461L23.7562 20.3305ZM6.19874 26.5661C5.98442 26.5668 5.77208 26.5267 5.57389 26.4482C5.37569 26.3697 5.19554 26.2544 5.04376 26.1088C4.89198 25.9632 4.77155 25.7903 4.68938 25.5998C4.60722 25.4094 4.56493 25.2052 4.56493 24.999C4.56493 24.7928 4.60722 24.5886 4.68938 24.3982C4.77155 24.2078 4.89198 24.0348 5.04376 23.8892C5.19554 23.7436 5.37569 23.6283 5.57389 23.5498C5.77208 23.4714 5.98442 23.4313 6.19874 23.4319C6.63077 23.4319 7.04509 23.597 7.35057 23.8909C7.65606 24.1848 7.82768 24.5834 7.82768 24.999C7.82768 25.4138 7.65673 25.8117 7.3523 26.1055C7.04787 26.3993 6.6348 26.5649 6.20363 26.5661H6.19874ZM12.6706 20.1287C11.4048 18.7877 10.2626 17.3433 9.25665 15.8121C9.25665 15.8121 12.7779 17.839 15.748 15.7464C15.748 15.7464 14.3629 18.6695 12.6755 20.1287H12.6706ZM12.5974 15.3804C6.74497 15.3804 6.83276 8.07024 6.83276 8.07024C8.08808 6.95197 9.2117 5.70421 10.1833 4.34948C10.1833 4.34948 10.7003 6.0433 11.2806 6.34359C11.861 6.64387 12.4902 6.27788 12.2561 5.71015C12.022 5.14241 11.4221 4.15241 11.4952 4.05388C11.5684 3.95535 17.9476 8.00924 17.9476 8.00924C17.9476 8.00924 18.4743 15.3804 12.6023 15.3804H12.5974Z" fill="#273C86"/>
<path d="M13.1242 21.5317C14.5615 20.0137 15.7907 18.3249 16.782 16.5065C17.0187 16.1922 17.3537 15.959 17.738 15.8408C18.1223 15.7226 18.5358 15.7257 18.9181 15.8496C19.4964 15.9869 20.0636 16.1641 20.6153 16.3798C21.103 16.6144 22.7271 18.3364 22.7271 22.8548C22.7271 27.3732 22.7564 34.5473 22.7564 34.5473C22.7564 34.5473 20.5422 37.7379 13.1242 37.766V21.5317Z" fill="#DDB1E4"/>
<path d="M1.34606 35.1807L1.52164 25.8436C1.52164 25.8436 0.98516 14.6437 7.33997 15.5212C7.42538 15.5298 7.51009 15.5439 7.59357 15.5634C7.59357 15.5634 11.4269 20.9404 11.7391 21.2736V37.6956C11.7391 37.6956 4.79901 37.705 1.34606 35.1807Z" fill="#DDB1E4"/>
<path d="M11.7147 11.9507C11.6382 11.9502 11.5627 11.9336 11.4936 11.902C11.4245 11.8704 11.3634 11.8245 11.3148 11.7677C11.2642 11.7128 11.2278 11.6473 11.2083 11.5764C11.1888 11.5055 11.1869 11.4312 11.2026 11.3595L11.6659 8.95716C11.6785 8.89077 11.7051 8.82756 11.7441 8.77147C11.7831 8.71538 11.8337 8.6676 11.8927 8.63109C11.9516 8.59457 12.0178 8.57011 12.087 8.55921C12.1563 8.54831 12.2271 8.5512 12.2951 8.56771C12.3621 8.57955 12.426 8.60402 12.4832 8.63971C12.5403 8.6754 12.5896 8.72161 12.6281 8.77568C12.6666 8.82975 12.6937 8.89062 12.7077 8.95478C12.7217 9.01894 12.7223 9.08511 12.7096 9.14952L12.3585 10.9466H13.0413C13.174 10.9463 13.3018 10.9947 13.3987 11.0818C13.4956 11.169 13.5544 11.2884 13.5631 11.4158C13.5647 11.5447 13.5152 11.6694 13.4245 11.7644C13.3339 11.8594 13.2091 11.9176 13.0754 11.9272L11.7635 11.9507H11.7147Z" fill="#273C86"/>
<path d="M5.83786 22.9534C5.71409 22.9536 5.59434 22.9111 5.50037 22.8336C5.4064 22.7562 5.34444 22.6488 5.32576 22.5311C5.28674 22.3106 4.45277 16.9711 6.34994 14.8784C6.39467 14.829 6.44912 14.7885 6.51015 14.7594C6.57118 14.7302 6.6376 14.713 6.70559 14.7086C6.77357 14.7043 6.84178 14.7129 6.90629 14.734C6.97081 14.7551 7.03035 14.7882 7.0815 14.8315C7.13581 14.8721 7.18057 14.9233 7.21285 14.9818C7.24513 15.0402 7.26421 15.1045 7.26881 15.1705C7.27342 15.2366 7.26346 15.3028 7.23958 15.3649C7.21571 15.4269 7.17846 15.4834 7.13028 15.5306C5.81835 16.9852 6.12072 20.9687 6.34994 22.381C6.3696 22.5115 6.33509 22.6442 6.25387 22.7504C6.17265 22.8567 6.05125 22.9279 5.91589 22.9487L5.83786 22.9534Z" fill="#273C86"/>
<path d="M18.367 23.582H18.3329C18.2643 23.5779 18.1972 23.5607 18.1356 23.5315C18.0739 23.5023 18.0188 23.4618 17.9735 23.4121C17.9282 23.3624 17.8935 23.3045 17.8715 23.2419C17.8495 23.1793 17.8405 23.1131 17.8452 23.0471C18.3329 16.544 16.9673 15.2865 16.9429 15.2772C16.8353 15.198 16.7643 15.0814 16.7452 14.9524C16.726 14.8235 16.7602 14.6924 16.8405 14.5875C16.9239 14.4813 17.0474 14.4109 17.1843 14.3916C17.3211 14.3723 17.4604 14.4055 17.572 14.4842C17.8842 14.6954 19.4107 16.117 18.8791 23.1175C18.8694 23.2425 18.8114 23.3594 18.7167 23.4453C18.6219 23.5313 18.4972 23.58 18.367 23.582Z" fill="#273C86"/>
<path d="M16.4796 30.8875C16.3502 30.8875 16.2262 30.838 16.1347 30.7501C16.0432 30.6621 15.9918 30.5427 15.9918 30.4183V27.7016C15.9918 27.5772 16.0432 27.4578 16.1347 27.3698C16.2262 27.2818 16.3502 27.2324 16.4796 27.2324C16.6089 27.2324 16.733 27.2818 16.8244 27.3698C16.9159 27.4578 16.9673 27.5772 16.9673 27.7016V30.4183C16.9673 30.5427 16.9159 30.6621 16.8244 30.7501C16.733 30.838 16.6089 30.8875 16.4796 30.8875Z" fill="#273C86"/>
<path d="M18.445 30.8875C18.3157 30.8875 18.1916 30.8381 18.1002 30.7501C18.0087 30.6621 17.9573 30.5427 17.9573 30.4183V27.5515C17.9573 27.427 18.0087 27.3077 18.1002 27.2197C18.1916 27.1317 18.3157 27.0823 18.445 27.0823C18.5744 27.0823 18.6984 27.1317 18.7899 27.2197C18.8814 27.3077 18.9327 27.427 18.9327 27.5515V30.4183C18.9327 30.5427 18.8814 30.6621 18.7899 30.7501C18.6984 30.8381 18.5744 30.8875 18.445 30.8875Z" fill="#273C86"/>
<path d="M6.20364 27.5656C5.85103 27.5675 5.50151 27.5022 5.17524 27.3735C4.84897 27.2448 4.55239 27.0553 4.3026 26.8159C4.05281 26.5764 3.85474 26.2918 3.7198 25.9784C3.58487 25.665 3.51573 25.329 3.51638 24.9897C3.51637 24.6523 3.58554 24.3182 3.71991 24.0065C3.85428 23.6948 4.05122 23.4116 4.29946 23.1733C4.5477 22.9349 4.84237 22.7459 5.1666 22.6172C5.49082 22.4885 5.83827 22.4226 6.18901 22.4232C6.54139 22.4201 6.89091 22.4842 7.21739 22.6118C7.54388 22.7394 7.84087 22.9279 8.09118 23.1666C8.34149 23.4052 8.54017 23.6892 8.67576 24.0021C8.81135 24.315 8.88116 24.6507 8.88114 24.9897C8.88178 25.3282 8.81296 25.6634 8.67863 25.9762C8.54431 26.289 8.34711 26.5732 8.09835 26.8125C7.8496 27.0519 7.55417 27.2416 7.22903 27.3708C6.90389 27.5 6.55544 27.5662 6.20364 27.5656ZM6.20364 23.432C5.98931 23.4314 5.77696 23.4714 5.57877 23.5499C5.38057 23.6284 5.20042 23.7437 5.04864 23.8893C4.89686 24.0349 4.77645 24.2079 4.69428 24.3983C4.61211 24.5887 4.56982 24.7929 4.56982 24.9991C4.56982 25.2053 4.61211 25.4095 4.69428 25.5999C4.77645 25.7903 4.89686 25.9633 5.04864 26.1089C5.20042 26.2545 5.38057 26.3698 5.57877 26.4483C5.77696 26.5268 5.98931 26.5668 6.20364 26.5662C6.63566 26.5662 7.04998 26.4011 7.35547 26.1072C7.66095 25.8133 7.83258 25.4147 7.83258 24.9991C7.83258 24.7933 7.79044 24.5895 7.70858 24.3994C7.62672 24.2092 7.50673 24.0365 7.35547 23.891C7.20421 23.7455 7.02464 23.63 6.82701 23.5513C6.62938 23.4725 6.41756 23.432 6.20364 23.432Z" fill="#273C86"/>
<path d="M16.1431 29.63H14.9238C14.8087 29.6253 14.6984 29.5841 14.6102 29.5128C14.522 29.4415 14.4608 29.3441 14.4361 29.2359C14.4117 29.1186 13.7874 26.2142 14.9238 24.3046C15.2567 23.7815 15.7405 23.3628 16.3164 23.0995C16.8922 22.8363 17.5352 22.7398 18.167 22.8219C18.7871 22.8767 19.3758 23.1089 19.8574 23.4886C20.3389 23.8682 20.6913 24.378 20.8689 24.9521C21.2445 26.1298 21.142 28.7057 20.7909 29.2453C20.6641 29.4376 20.4885 29.7145 18.6694 29.5596C18.6004 29.5555 18.5329 29.5382 18.4709 29.5087C18.4089 29.4792 18.3536 29.4382 18.3082 29.388C18.2628 29.3378 18.2283 29.2794 18.2065 29.2162C18.1848 29.1531 18.1764 29.0864 18.1817 29.0201C18.1917 28.8864 18.2563 28.762 18.3614 28.6741C18.4665 28.5861 18.6036 28.5418 18.7425 28.5509C19.1379 28.5888 19.5357 28.5982 19.9325 28.579C20.1227 27.4691 20.0979 26.3349 19.8594 25.2336C19.7367 24.8503 19.4973 24.5112 19.1721 24.2603C18.8469 24.0093 18.4509 23.858 18.0353 23.826C17.6052 23.7663 17.1663 23.827 16.771 24.0009C16.3758 24.1748 16.0409 24.4545 15.8065 24.8066C15.0799 26.0218 15.2408 27.847 15.353 28.6447H16.1333C16.2709 28.6447 16.4029 28.6969 16.5006 28.7901C16.5983 28.8832 16.6539 29.0097 16.6551 29.142C16.6526 29.2715 16.5977 29.3949 16.5021 29.486C16.4064 29.5771 16.2777 29.6288 16.1431 29.63Z" fill="#273C86"/>
<path d="M6.20363 23.4319C5.9893 23.4313 5.77695 23.4714 5.57875 23.5499C5.38056 23.6283 5.20041 23.7437 5.04863 23.8892C4.89685 24.0348 4.77643 24.2078 4.69427 24.3982C4.6121 24.5887 4.56981 24.7928 4.56981 24.999C4.56981 25.2052 4.6121 25.4094 4.69427 25.5998C4.77643 25.7903 4.89685 25.9632 5.04863 26.1088C5.20041 26.2544 5.38056 26.3697 5.57875 26.4482C5.77695 26.5267 5.9893 26.5668 6.20363 26.5662C6.63565 26.5662 7.04997 26.401 7.35545 26.1072C7.66094 25.8133 7.83256 25.4147 7.83256 24.999C7.83256 24.5834 7.66094 24.1848 7.35545 23.8909C7.04997 23.597 6.63565 23.4319 6.20363 23.4319Z" fill="white"/>
<path d="M11.1197 22.6717C11.1197 22.7436 11.1049 22.8148 11.0762 22.8811C11.0474 22.9474 11.0053 23.0076 10.9523 23.0582C10.8992 23.1089 10.8363 23.1488 10.7671 23.1759C10.6979 23.203 10.6238 23.2166 10.5491 23.216C10.3981 23.216 10.2532 23.159 10.1456 23.0572C10.0379 22.9553 9.97614 22.8169 9.97358 22.6717C9.97614 22.5265 10.0379 22.3881 10.1456 22.2863C10.2532 22.1845 10.3981 22.1274 10.5491 22.1275C10.6238 22.1268 10.6979 22.1405 10.7671 22.1675C10.8363 22.1946 10.8992 22.2346 10.9523 22.2852C11.0053 22.3358 11.0474 22.396 11.0762 22.4624C11.1049 22.5287 11.1197 22.5999 11.1197 22.6717Z" fill="#273C86"/>
<path d="M11.1197 28.9216C11.1197 28.9934 11.1049 29.0646 11.0762 29.1309C11.0474 29.1973 11.0053 29.2575 10.9523 29.3081C10.8992 29.3587 10.8363 29.3987 10.7671 29.4258C10.6979 29.4528 10.6238 29.4665 10.5491 29.4658C10.3981 29.4659 10.2532 29.4088 10.1456 29.307C10.0379 29.2052 9.97614 29.0668 9.97358 28.9216C9.97485 28.7751 10.0359 28.635 10.1436 28.5314C10.2512 28.4279 10.3968 28.3691 10.5491 28.3679C10.6244 28.3679 10.699 28.3823 10.7686 28.4101C10.8381 28.438 10.9013 28.4789 10.9543 28.5304C11.0074 28.5818 11.0493 28.6429 11.0777 28.7101C11.106 28.7772 11.1203 28.8491 11.1197 28.9216Z" fill="#273C86"/>
<path d="M11.1197 35.5607C11.1203 35.633 11.106 35.7046 11.0776 35.7715C11.0491 35.8384 11.0071 35.8992 10.954 35.9503C10.9009 36.0014 10.8377 36.0418 10.7682 36.0691C10.6987 36.0965 10.6242 36.1103 10.5491 36.1097C10.4737 36.1103 10.399 36.0965 10.3292 36.0692C10.2594 36.0419 10.1959 36.0016 10.1424 35.9506C10.0889 35.8995 10.0465 35.8388 10.0175 35.7719C9.98851 35.7049 9.97358 35.6332 9.97358 35.5607C9.97612 35.4151 10.0377 35.2761 10.1452 35.1736C10.2527 35.071 10.3977 35.0129 10.5491 35.0117C10.7004 35.0117 10.8456 35.0696 10.9526 35.1725C11.0596 35.2755 11.1197 35.4151 11.1197 35.5607Z" fill="#273C86"/>
<path d="M5.38916 4.218C5.30375 4.2193 5.21901 4.20332 5.14043 4.17109L2.7019 3.17169C2.5521 3.10785 2.4344 2.98992 2.37418 2.84333C2.31396 2.69674 2.31607 2.53325 2.38003 2.38813C2.41193 2.31595 2.45832 2.25052 2.51655 2.19563C2.57479 2.14073 2.64373 2.09743 2.7194 2.06822C2.79507 2.03901 2.876 2.02449 2.95753 2.02543C3.03905 2.02638 3.11957 2.04279 3.19449 2.07375L5.60864 3.06848C5.68843 3.09713 5.76122 3.1413 5.82247 3.19824C5.88372 3.25517 5.9321 3.32362 5.96459 3.39936C5.99709 3.4751 6.013 3.55648 6.01133 3.6384C6.00966 3.72032 5.99046 3.80103 5.9549 3.87549C5.90405 3.9783 5.82387 4.06508 5.7237 4.12573C5.62354 4.18637 5.50751 4.21837 5.38916 4.218Z" fill="#273C86"/>
<path d="M6.66207 2.75404C6.5113 2.75245 6.36604 2.69922 6.25239 2.6039L4.42349 1.04615C4.30052 0.940669 4.22588 0.79271 4.21584 0.634507C4.20579 0.476303 4.26114 0.320688 4.36985 0.20159C4.47881 0.0826097 4.63227 0.00992637 4.79673 -0.000621671C4.96119 -0.0111697 5.1233 0.041276 5.24772 0.145288L7.07661 1.71243C7.19958 1.81791 7.27423 1.96587 7.28428 2.12407C7.29433 2.28227 7.23897 2.43789 7.13027 2.55699C7.07052 2.61907 6.9981 2.66862 6.91754 2.70253C6.83697 2.73643 6.75001 2.75396 6.66207 2.75404Z" fill="#273C86"/>
</g>
<defs>
<clipPath id="clip0_30:2791">
<rect width="24" height="39" fill="white"/>
</clipPath>
</defs>
</svg>
