<svg width="32" height="40" viewBox="0 0 32 40" fill="none" xmlns="http://www.w3.org/2000/svg">
<g clip-path="url(#clip0_30:2753)">
<path d="M28.647 17.4452H24.5572C24.7793 16.762 24.8909 16.0478 24.8878 15.3295V10.6069C24.8878 8.85343 24.1913 7.17174 22.9513 5.93183C21.7114 4.69192 20.0298 3.99536 18.2763 3.99536C16.5228 3.99536 14.8411 4.69192 13.6012 5.93183C12.3613 7.17174 11.6647 8.85343 11.6647 10.6069V15.3295C11.6569 16.0482 11.7687 16.7631 11.9953 17.4452H7.9811C7.54043 17.4439 7.10385 17.5298 6.69648 17.6978C6.28911 17.8659 5.91898 18.1128 5.60737 18.4244C5.29577 18.7361 5.04884 19.1062 4.88078 19.5136C4.71271 19.921 4.62684 20.3575 4.62809 20.7982V39.8867H4.70365V39.9906H21.5537C22.0919 39.9931 22.6253 39.8891 23.1232 39.6846C23.621 39.48 24.0735 39.1791 24.4545 38.7989C24.8355 38.4188 25.1375 37.967 25.3432 37.4697C25.5489 36.9723 25.6541 36.4391 25.6529 35.9009C25.644 35.2408 25.4755 34.5927 25.1617 34.0119V27.1264H23.6789V32.4062C23.0367 32.0209 22.3026 31.8153 21.5537 31.8112H19.0224L15.5655 21.2799C16.4188 21.6719 17.3467 21.8749 18.2857 21.8749C19.3779 21.8724 20.4524 21.5994 21.4133 21.0802C22.3742 20.561 23.1915 19.8118 23.7922 18.8997H28.5903C29.0913 18.8997 29.5718 19.0987 29.926 19.453C30.2803 19.8073 30.4793 20.2877 30.4793 20.7887V39.8773H31.9622V20.7982C31.9598 19.9162 31.611 19.0704 30.9908 18.4432C30.3707 17.816 29.5289 17.4576 28.647 17.4452ZM23.4333 10.6069V12.0142L15.1783 6.62107C16.0835 5.91956 17.1971 5.54063 18.3424 5.54437C19.6877 5.54435 20.9783 6.0768 21.9322 7.02541C22.8861 7.97403 23.4258 9.26165 23.4333 10.6069ZM13.6104 19.9009L19.7119 38.5456H10.3424V18.9375H12.8737C13.0871 19.282 13.3338 19.6046 13.6104 19.9009ZM8.03777 18.9564H8.85005V38.5644H6.17708V20.7982C6.1844 20.307 6.38277 19.838 6.73015 19.4906C7.07752 19.1432 7.54656 18.9448 8.03777 18.9375V18.9564ZM21.6104 33.3129C21.9531 33.3117 22.2926 33.3783 22.6094 33.5088C22.9263 33.6394 23.2142 33.8313 23.4565 34.0737C23.6988 34.316 23.8908 34.6039 24.0213 34.9207C24.1519 35.2376 24.2185 35.5771 24.2172 35.9198C24.2197 36.2628 24.154 36.6029 24.0239 36.9203C23.8938 37.2377 23.7019 37.5261 23.4593 37.7687C23.2167 38.0113 22.9283 38.2032 22.6109 38.3333C22.2935 38.4635 21.9534 38.5292 21.6104 38.5266H21.2798L19.5702 33.3129H21.6104ZM18.3424 20.4487C16.9904 20.4462 15.6946 19.9081 14.7386 18.9521C13.7827 17.9961 13.2445 16.7003 13.242 15.3484V10.6258C13.2566 9.58314 13.5858 8.56914 14.1865 7.71673L23.4427 13.8182V15.3106C23.4477 15.9826 23.3194 16.649 23.065 17.2711C22.8107 17.8933 22.4355 18.4587 21.9612 18.9349C21.4868 19.411 20.9227 19.7883 20.3015 20.0449C19.6804 20.3015 19.0145 20.4323 18.3424 20.4298V20.4487Z" fill="#003398"/>
<path d="M5.27105 12.2145L3.97866 12.9607L5.65516 15.8645L6.94755 15.1183L5.27105 12.2145Z" fill="#003398"/>
<path d="M1.54493 15.51L0.798538 16.8022L3.70208 18.4793L4.44847 17.187L1.54493 15.51Z" fill="#003398"/>
<path d="M3.35301 20.1653H0V21.6576H3.35301V20.1653Z" fill="#003398"/>
<path d="M30.2526 7.81104H26.8996V9.30336H30.2526V7.81104Z" fill="#003398"/>
<path d="M28.5549 3.15402L25.6517 4.83154L26.3983 6.12369L29.3015 4.44617L28.5549 3.15402Z" fill="#003398"/>
<path d="M24.7503 -0.0288311L23.0743 2.87524L24.3669 3.62119L26.0428 0.717114L24.7503 -0.0288311Z" fill="#003398"/>
<path d="M13.6104 19.9009L19.7119 38.5455H10.3424V18.9375H12.8737C13.1001 19.2771 13.3595 19.5935 13.6482 19.882" fill="#DDB1E4"/>
<path d="M23.4333 10.6068V12.0141L15.1783 6.62091C16.0835 5.91941 17.1972 5.54048 18.3424 5.54422C19.6877 5.5442 20.9783 6.07665 21.9322 7.02526C22.8862 7.97387 23.4258 9.2615 23.4333 10.6068Z" fill="#DDB1E4"/>
</g>
<defs>
<clipPath id="clip0_30:2753">
<rect width="32" height="40" fill="white"/>
</clipPath>
</defs>
</svg>
