<svg width="32" height="40" viewBox="0 0 44 37" fill="none" xmlns="http://www.w3.org/2000/svg">
<g clip-path="url(#clip0_30:2820)">
<path d="M5.98527 17.0271L26.2276 5.98576L32.2129 17.127L12.2762 28.2057L5.98527 17.0271ZM0.917056 15.5416L10.8823 33.2427L37.171 18.6187L27.6765 0.936335L0.892577 15.5416L0.917056 15.5416Z" fill="#DDB1E4"/>
<path d="M42.8934 22.4321L17.3567 36.6504L14.092 29.4726L17.4178 27.8935L19.0318 31.4512L37.9169 20.9341L32.9893 11.6904L31.0941 12.3582L29.9019 8.81301L34.7256 7.12154L42.8934 22.4321Z" fill="#DDB1E4"/>
<path d="M38.1127 18.6248C38.1125 18.7135 38.1002 18.8018 38.076 18.887C38.0424 19.0047 37.9862 19.1145 37.9107 19.2099C37.8351 19.3053 37.7417 19.3844 37.6358 19.4425L11.3165 34.0664C11.1075 34.1816 10.8627 34.2088 10.6343 34.1424C10.4059 34.0759 10.212 33.921 10.0938 33.7107L0.128516 16.0096C0.0678545 15.9008 0.0290657 15.7807 0.0143699 15.6564C-0.000325872 15.5321 0.0093943 15.406 0.0429531 15.2856C0.0768016 15.1646 0.134337 15.0519 0.212101 14.9542C0.289865 14.8566 0.386232 14.7761 0.495358 14.7176L27.2793 0.112338C27.4908 0.000353566 27.7367 -0.0231831 27.965 0.0467174C28.1932 0.116618 28.3858 0.274459 28.502 0.486823L38.0026 18.1505C38.0776 18.2967 38.1155 18.4598 38.1127 18.6248ZM11.2126 31.988L35.9301 18.2566L27.316 2.20326L2.16437 15.9347L11.2126 31.988Z" fill="#003398"/>
<path d="M44 22.1639C44.0005 22.3323 43.9564 22.4977 43.8725 22.6427C43.7886 22.7877 43.6679 22.9069 43.5232 22.9878L18.5672 36.8752C18.4603 36.9365 18.3422 36.9747 18.2202 36.9876C18.0982 37.0004 17.975 36.9877 17.858 36.9501C17.7411 36.9137 17.6325 36.8534 17.539 36.773C17.4455 36.6925 17.3689 36.5935 17.3139 36.482L14.9418 31.7509C14.8329 31.5315 14.8135 31.2769 14.888 31.043C14.9625 30.809 15.1247 30.6147 15.3392 30.5026C15.5544 30.393 15.8032 30.3742 16.0319 30.4501C16.2606 30.526 16.4509 30.6905 16.5619 30.9083L18.5061 34.7843L41.8236 21.8019L34.5605 8.16404L32.5002 9.33121C32.2905 9.44583 32.0451 9.47213 31.8166 9.40448C31.5881 9.33683 31.3947 9.1806 31.2775 8.9692C31.1652 8.75506 31.1395 8.50458 31.2058 8.27131C31.272 8.03804 31.4251 7.84048 31.6321 7.72089L34.4994 6.09184C34.7143 5.97185 34.9668 5.94273 35.2025 6.0107C35.4364 6.08482 35.6334 6.24796 35.7527 6.46633L43.9144 21.7707C43.9706 21.8938 43.9998 22.028 44 22.1639Z" fill="#003398"/>
<path d="M23.0302 16.7397C23.0302 14.606 21.3359 12.8762 19.2458 12.8762C17.1558 12.8762 15.4615 14.606 15.4615 16.7397C15.4615 18.8735 17.1558 20.6033 19.2458 20.6033C21.3359 20.6033 23.0302 18.8735 23.0302 16.7397Z" fill="#DDB1E4"/>
</g>
<defs>
<clipPath id="clip0_30:2820">
<rect width="37" height="44" fill="white" transform="translate(0 37) rotate(-90)"/>
</clipPath>
</defs>
</svg>
