<svg width="32" height="30" viewBox="0 0 52 28" fill="none" xmlns="http://www.w3.org/2000/svg">
<g clip-path="url(#clip0_30:2780)">
<path d="M27.7742 11.459C28.5808 10.459 29.0435 9.22901 29.0945 7.94929C29.0945 6.03468 28.3276 4.19848 26.9626 2.84465C25.5976 1.49081 23.7463 0.730225 21.8159 0.730225C20.3525 0.730696 18.9231 1.16844 17.7141 1.98638C16.5051 2.80432 15.5725 3.96453 15.038 5.31578L14.9595 5.80257C14.4947 4.33698 13.5705 3.05667 12.3215 2.14792C11.0725 1.23917 9.56375 0.749363 8.01471 0.749715C6.08432 0.749715 4.233 1.51027 2.86801 2.86411C1.50302 4.21794 0.736172 6.05414 0.736172 7.96875C0.771116 9.50669 1.33378 10.9869 2.33126 12.1649L14.9153 27.2893L27.7742 11.459Z" fill="#DDB1E4"/>
<path d="M14.9153 27.9999C14.8069 27.9997 14.6998 27.9762 14.6014 27.9308C14.5031 27.8854 14.4159 27.8192 14.346 27.737L1.76195 12.6125C0.65976 11.3004 0.0386337 9.65649 -9.53674e-06 7.9491C0.00258807 5.84163 0.847826 3.82121 2.35032 2.33099C3.85281 0.840782 5.88988 0.00243509 8.01472 -0.000141291C9.40765 -0.0052369 10.7776 0.351609 11.9883 1.03485C13.199 1.71808 14.2082 2.70388 14.9153 3.89416C15.621 2.70256 16.6298 1.71566 17.8409 1.03223C19.0519 0.348801 20.4226 -0.00719612 21.8159 -0.000141291C23.9408 0.00243509 25.9778 0.840782 27.4803 2.33099C28.9828 3.82121 29.8281 5.84163 29.8307 7.9491C29.7786 9.38449 29.2624 10.7652 28.3583 11.8872L28.3337 11.9164L15.4797 27.7273C15.411 27.8115 15.3243 27.8797 15.2259 27.9268C15.1274 27.9739 15.0197 27.9989 14.9104 27.9999H14.9153ZM8.01472 1.46022C6.28124 1.46408 4.61993 2.14913 3.39462 3.36533C2.16932 4.58153 1.47989 6.22978 1.4773 7.9491C1.51 9.31415 2.01024 10.6275 2.89571 11.673L14.9104 26.116L27.1804 11.0256C27.8881 10.1541 28.2972 9.08157 28.3485 7.96372C28.3459 6.24356 27.6558 4.59456 26.4294 3.37822C25.203 2.16188 23.5405 1.47741 21.8061 1.47484C20.5016 1.46925 19.2255 1.85294 18.1436 2.57608C17.0618 3.29922 16.2243 4.32837 15.7399 5.52978L15.6761 5.91434C15.65 6.07673 15.5694 6.22566 15.4474 6.33698C15.3254 6.44829 15.169 6.51549 15.0037 6.52769C14.8384 6.5378 14.6743 6.49304 14.5375 6.4005C14.4007 6.30796 14.2987 6.1729 14.2478 6.01657C13.8372 4.69557 13.0101 3.54006 11.8881 2.71991C10.7661 1.89977 9.40849 1.45823 8.01472 1.46022Z" fill="#003398"/>
<path d="M14.9153 15.8985C15.9725 15.8985 16.8294 15.0485 16.8294 14C16.8294 12.9515 15.9725 12.1016 14.9153 12.1016C13.8582 12.1016 13.0012 12.9515 13.0012 14C13.0012 15.0485 13.8582 15.8985 14.9153 15.8985Z" fill="#003398" stroke="#003398" stroke-linecap="round" stroke-linejoin="round"/>
<path d="M14.9153 13.9998L21.865 5.75366L30.4 19.5784L36.2798 9.1417L41.7816 18.3663H51.2638" stroke="#003398" stroke-width="1.5" stroke-linecap="round" stroke-linejoin="round"/>
</g>
<defs>
<clipPath id="clip0_30:2780">
<rect width="52" height="28" fill="white"/>
</clipPath>
</defs>
</svg>
