<svg width="32" height="40" viewBox="0 0 38 32" fill="none" xmlns="http://www.w3.org/2000/svg">
<g clip-path="url(#clip0_30:2774)">
<path d="M33.8671 6.73901H4.13292C2.24325 6.73901 0.711359 8.26582 0.711359 10.1492V27.8845C0.711359 29.7679 2.24325 31.2947 4.13292 31.2947H33.8671C35.7568 31.2947 37.2887 29.7679 37.2887 27.8845V10.1492C37.2887 8.26582 35.7568 6.73901 33.8671 6.73901Z" fill="#DDB1E4" stroke="#123291" stroke-width="2" stroke-miterlimit="10"/>
<path d="M11.979 0.709063H26.0067C26.5416 0.709063 27.0545 0.920827 27.4327 1.29777C27.8109 1.67471 28.0234 2.18596 28.0234 2.71903V6.73543H9.95879V2.70485C9.95877 2.44126 10.0112 2.18028 10.1129 1.93698C10.2146 1.69368 10.3637 1.47287 10.5516 1.28731C10.7394 1.10175 10.9622 0.955115 11.2072 0.855866C11.4522 0.756617 11.7145 0.706722 11.979 0.709063Z" fill="white" stroke="#123291" stroke-width="2" stroke-miterlimit="10"/>
<path d="M21.1838 14.1477H16.8126C16.1507 14.1477 15.614 14.6826 15.614 15.3423V22.5031C15.614 23.1629 16.1507 23.6977 16.8126 23.6977H21.1838C21.8458 23.6977 22.3825 23.1629 22.3825 22.5031V15.3423C22.3825 14.6826 21.8458 14.1477 21.1838 14.1477Z" fill="white" stroke="#123291" stroke-width="2" stroke-miterlimit="10"/>
<path d="M0.711359 18.9229H15.614" stroke="#123291" stroke-width="2" stroke-miterlimit="10"/>
<path d="M22.3824 18.9229H37.2886" stroke="#123291" stroke-width="2" stroke-miterlimit="10"/>
</g>
<defs>
<clipPath id="clip0_30:2774">
<rect width="38" height="32" fill="white"/>
</clipPath>
</defs>
</svg>
