<svg width="32" height="40" viewBox="0 0 51 21" fill="none" xmlns="http://www.w3.org/2000/svg">
<g clip-path="url(#clip0_30:2785)">
<path d="M13.4535 2.58209C13.336 2.57448 13.2182 2.59153 13.108 2.6321C12.9978 2.67266 12.8977 2.73578 12.8144 2.81726C12.7312 2.89875 12.6667 2.99674 12.6252 3.1046C12.5838 3.21247 12.5664 3.32775 12.5742 3.44274C12.5664 3.55773 12.5838 3.67301 12.6252 3.78088C12.6667 3.88875 12.7312 3.98673 12.8144 4.06822C12.8977 4.14971 12.9978 4.21283 13.108 4.25339C13.2182 4.29395 13.336 4.311 13.4535 4.3034C14.2858 4.29998 15.1107 4.45793 15.8804 4.76813C16.6501 5.07834 17.3494 5.53465 17.938 6.11075C18.5266 6.68685 18.9928 7.37135 19.3097 8.12471C19.6266 8.87807 19.788 9.68541 19.7845 10.5001C19.7767 10.6151 19.7941 10.7304 19.8356 10.8383C19.877 10.9461 19.9415 11.0441 20.0248 11.1256C20.108 11.207 20.2081 11.2702 20.3183 11.3108C20.4285 11.3513 20.5463 11.3684 20.6638 11.3608C20.7813 11.3684 20.8991 11.3513 21.0093 11.3108C21.1195 11.2702 21.2196 11.207 21.3028 11.1256C21.3861 11.0441 21.4506 10.9461 21.492 10.8383C21.5335 10.7304 21.5509 10.6151 21.5431 10.5001C21.5454 9.45968 21.3378 8.42903 20.9321 7.46735C20.5263 6.50566 19.9305 5.63186 19.1789 4.89615C18.4272 4.16044 17.5345 3.57731 16.552 3.1802C15.5695 2.78308 14.5165 2.57982 13.4535 2.58209Z" fill="#003398"/>
<path d="M37.5465 2.58209C37.4291 2.57448 37.3113 2.59153 37.2011 2.6321C37.0908 2.67266 36.9908 2.73578 36.9075 2.81726C36.8243 2.89875 36.7597 2.99674 36.7183 3.1046C36.6769 3.21247 36.6595 3.32775 36.6672 3.44274C36.6595 3.55773 36.6769 3.67301 36.7183 3.78088C36.7597 3.88875 36.8243 3.98673 36.9075 4.06822C36.9908 4.14971 37.0908 4.21283 37.2011 4.25339C37.3113 4.29395 37.4291 4.311 37.5465 4.3034C38.3789 4.29998 39.2037 4.45793 39.9734 4.76813C40.7431 5.07834 41.4424 5.53465 42.031 6.11075C42.6196 6.68685 43.0858 7.37135 43.4028 8.12471C43.7197 8.87807 43.8811 9.68541 43.8776 10.5001C43.8698 10.6151 43.8872 10.7304 43.9287 10.8383C43.9701 10.9461 44.0346 11.0441 44.1179 11.1256C44.2011 11.207 44.3012 11.2702 44.4114 11.3108C44.5216 11.3513 44.6394 11.3684 44.7569 11.3608C44.8744 11.3684 44.9922 11.3513 45.1024 11.3108C45.2126 11.2702 45.3126 11.207 45.3959 11.1256C45.4792 11.0441 45.5437 10.9461 45.5851 10.8383C45.6265 10.7304 45.644 10.6151 45.6362 10.5001C45.6385 9.45968 45.4308 8.42903 45.0251 7.46735C44.6194 6.50566 44.0236 5.63186 43.272 4.89615C42.5203 4.16044 41.6276 3.57731 40.6451 3.1802C39.6625 2.78308 38.6095 2.57982 37.5465 2.58209Z" fill="#003398"/>
<path d="M50.1109 7.9181H47.9126C47.3365 5.65288 46.0014 3.64196 44.1206 2.20665C42.2397 0.771337 39.9217 -0.00555378 37.5367 6.17205e-05C35.0451 0.0159055 32.6352 0.871972 30.7131 2.42402C28.7911 3.97606 27.4744 6.12917 26.985 8.52052C25.9864 8.15836 24.8833 8.18924 23.9074 8.60662C23.4629 6.18681 22.1616 3.99766 20.2319 2.4237C18.3022 0.849741 15.8676 -0.0083818 13.3557 6.17205e-05C10.8826 -0.000760773 8.48623 0.840304 6.57718 2.3791C4.66814 3.9179 3.3653 6.05863 2.8919 8.43448H0.869487C0.752003 8.42687 0.634213 8.44392 0.524007 8.48449C0.4138 8.52505 0.31372 8.58817 0.230465 8.66965C0.14721 8.75114 0.0826959 8.84913 0.0412554 8.957C-0.000185125 9.06486 -0.0175961 9.18014 -0.00982392 9.29513V11.705C-0.0175961 11.82 -0.000185125 11.9352 0.0412554 12.0431C0.0826959 12.151 0.14721 12.2489 0.230465 12.3304C0.31372 12.4119 0.4138 12.475 0.524007 12.5156C0.634213 12.5562 0.752003 12.5732 0.869487 12.5656H2.97983C3.45322 14.9415 4.75607 17.0822 6.66512 18.621C8.57416 20.1598 10.9706 21.0009 13.4436 21C16.2852 20.9887 19.0071 19.8788 21.0164 17.9121C23.0257 15.9455 24.1596 13.2814 24.1712 10.5001V10.414C24.56 10.1152 25.0399 9.95286 25.5341 9.95286C26.0284 9.95286 26.5083 10.1152 26.8971 10.414V10.5001C26.9087 13.2814 28.0426 15.9455 30.0519 17.9121C32.0612 19.8788 34.7831 20.9887 37.6247 21C40.1875 20.9934 42.6626 20.0861 44.5994 18.4432C46.5361 16.8004 47.8055 14.5313 48.1764 12.0492H50.1109C50.2284 12.0568 50.3461 12.0398 50.4564 11.9992C50.5666 11.9587 50.6666 11.8956 50.7499 11.8141C50.8332 11.7326 50.8977 11.6346 50.9391 11.5267C50.9805 11.4189 50.998 11.3036 50.9902 11.1886V8.77876C50.9902 8.5505 50.8975 8.33155 50.7326 8.17015C50.5677 8.00874 50.3441 7.9181 50.1109 7.9181ZM13.4436 19.2787C11.0678 19.2697 8.79185 18.3419 7.11184 16.6975C5.43184 15.0531 4.48393 12.8255 4.47467 10.5001C4.48393 8.17461 5.43184 5.94697 7.11184 4.3026C8.79185 2.65824 11.0678 1.73044 13.4436 1.72137C15.8195 1.73044 18.0954 2.65824 19.7754 4.3026C21.4554 5.94697 22.4033 8.17461 22.4126 10.5001C22.4033 12.824 21.4566 15.0504 19.7785 16.6945C18.1004 18.3386 15.8268 19.2674 13.4524 19.2787H13.4436ZM37.5367 19.2787C35.1609 19.2697 32.885 18.3419 31.2049 16.6975C29.5249 15.0531 28.577 12.8255 28.5678 10.5001C28.577 8.17461 29.5249 5.94697 31.2049 4.3026C32.885 2.65824 35.1609 1.73044 37.5367 1.72137C39.9126 1.73044 42.1885 2.65824 43.8685 4.3026C45.5485 5.94697 46.4964 8.17461 46.5057 10.5001C46.4964 12.824 45.5498 15.0504 43.8716 16.6945C42.1935 18.3386 39.9199 19.2674 37.5455 19.2787H37.5367Z" fill="#003398"/>
<path d="M2.72587 10.1558H1.75863V10.8443H2.72587V10.1558Z" fill="#DDB1E4"/>
<path d="M49.2414 9.6394H48.2741V10.3279H49.2414V9.6394Z" fill="#DDB1E4"/>
</g>
<defs>
<clipPath id="clip0_30:2785">
<rect width="51" height="21" fill="white"/>
</clipPath>
</defs>
</svg>
