<svg width="32" height="40" viewBox="0 0 37 36" fill="none" xmlns="http://www.w3.org/2000/svg">
<g clip-path="url(#clip0_30:2808)">
<path d="M27.1566 12.8733H9.84332C7.96412 12.8733 6.44073 14.4351 6.44073 16.3617V31.7542C6.44073 33.6808 7.96412 35.2427 9.84332 35.2427H27.1566C29.0358 35.2427 30.5592 33.6808 30.5592 31.7542V16.3617C30.5592 14.4351 29.0358 12.8733 27.1566 12.8733Z" fill="#DDB1E4"/>
<path d="M27.1567 36H9.84338C8.74592 36 7.69333 35.5533 6.91685 34.7582C6.14036 33.9631 5.70348 32.8845 5.70218 31.7593V16.3668C5.70348 15.2412 6.14021 14.162 6.91655 13.3661C7.69289 12.5702 8.74547 12.1224 9.84338 12.1211H27.1567C28.2546 12.1224 29.3071 12.5702 30.0835 13.3661C30.8598 14.162 31.2966 15.2412 31.2979 16.3668V31.7593C31.2953 32.884 30.858 33.9619 30.0818 34.7567C29.3056 35.5516 28.2537 35.9986 27.1567 36ZM9.84338 13.6457C9.13686 13.6457 8.45926 13.9335 7.95967 14.4456C7.46008 14.9578 7.17942 15.6525 7.17942 16.3769V31.7694C7.18073 32.4929 7.46196 33.1863 7.96141 33.6974C8.46086 34.2085 9.13771 34.4955 9.84338 34.4955H27.1567C27.8623 34.4955 28.5392 34.2085 29.0386 33.6974C29.5381 33.1863 29.8193 32.4929 29.8206 31.7694V16.3668C29.818 15.6442 29.5362 14.9521 29.0369 14.4421C28.5376 13.9321 27.8615 13.6457 27.1567 13.6457H9.84338Z" fill="#003398"/>
<path d="M0.187141 18.9668L18.5 0.191895L36.8178 18.9668H0.187141Z" fill="#003398" stroke="#003398" stroke-width="0.75" stroke-linecap="round" stroke-linejoin="round"/>
<path d="M15.1615 35.2477V25.5296C15.1347 24.702 15.4274 23.8971 15.9759 23.2894C16.5244 22.6817 17.2845 22.3202 18.0913 22.2834H19.3125C20.1193 22.3202 20.8794 22.6817 21.4279 23.2894C21.9764 23.8971 22.2691 24.702 22.2424 25.5296V35.2477" fill="#003398"/>
<path d="M15.1615 35.2477V25.5296C15.1347 24.702 15.4274 23.8971 15.9759 23.2894C16.5244 22.6817 17.2845 22.3202 18.0913 22.2834H19.3125C20.1193 22.3202 20.8794 22.6817 21.4279 23.2894C21.9764 23.8971 22.2691 24.702 22.2424 25.5296V35.2477" stroke="#003398" stroke-width="0.75" stroke-linecap="round" stroke-linejoin="round"/>
</g>
<defs>
<clipPath id="clip0_30:2808">
<rect width="37" height="36" fill="white"/>
</clipPath>
</defs>
</svg>
