<svg width="70" height="74" viewBox="0 0 70 74" fill="none" xmlns="http://www.w3.org/2000/svg">
<g clip-path="url(#clip0_30:2722)">
<path d="M66.866 50.5542H43.5607L45.5589 64.545L64.2999 65.3329L66.866 50.5542Z" fill="#DDB1E4"/>
<path d="M33.4435 69.2938H8.56073C7.52872 69.2938 6.53899 68.8788 5.80925 68.14C5.0795 67.4012 4.66949 66.3991 4.66949 65.3543V8.66709C4.66949 7.62225 5.0795 6.62017 5.80925 5.88136C6.53899 5.14254 7.52872 4.72745 8.56073 4.72745H10.2224L11.8209 7.96432C12.2725 8.88246 12.9689 9.65429 13.8313 10.1925C14.6937 10.7306 15.6877 11.0136 16.7007 11.0095H31.5294C32.54 11.0146 33.5315 10.7318 34.3908 10.1932C35.25 9.65474 35.9422 8.88235 36.3883 7.96432L37.9868 4.72745H39.6695C40.7015 4.72745 41.6913 5.14254 42.421 5.88136C43.1508 6.62017 43.5607 7.62225 43.5607 8.66709V40.2687C43.5662 40.8883 43.8117 41.4809 44.2444 41.919C44.6772 42.3571 45.2625 42.6057 45.8744 42.6113C46.49 42.6113 47.0807 42.3651 47.5179 41.9264C47.9552 41.4877 48.2036 40.8919 48.2092 40.2687V8.66709C48.2092 6.36845 47.3072 4.16394 45.7018 2.53855C44.0964 0.913164 41.9189 2.62913e-05 39.6485 2.62913e-05H8.56073C7.43575 -0.0027825 6.3213 0.219491 5.28141 0.654056C4.24153 1.08862 3.29672 1.72694 2.50123 2.53231C1.70575 3.33768 1.07526 4.29423 0.646025 5.34703C0.216792 6.39984 -0.00275408 7.52813 2.02466e-05 8.66709V65.3543C1.68395e-05 66.4914 0.221585 67.6174 0.652058 68.6677C1.08253 69.718 1.71347 70.6722 2.50868 71.4753C3.30389 72.2784 4.24778 72.9148 5.28629 73.3481C6.3248 73.7813 7.43752 74.0028 8.56073 74H33.4435C33.7491 74.0028 34.0523 73.9443 34.3354 73.8278C34.6186 73.7113 34.8761 73.5394 35.0932 73.3216C35.3103 73.1038 35.4826 72.8445 35.6002 72.5589C35.7177 72.2733 35.7783 71.9669 35.7783 71.6575C35.7811 71.3463 35.7226 71.0377 35.6063 70.7496C35.4899 70.4616 35.3181 70.1999 35.1007 69.9798C34.8833 69.7597 34.6248 69.5857 34.3403 69.468C34.0558 69.3502 33.7509 69.2909 33.4435 69.2938ZM32.7915 4.72745L32.2236 5.85614C32.1588 5.98739 32.06 6.09828 31.9378 6.17705C31.8155 6.25582 31.6743 6.29955 31.5294 6.30338H16.7007C16.5559 6.29955 16.4148 6.25582 16.2925 6.17705C16.1702 6.09828 16.0714 5.98739 16.0067 5.85614L15.4387 4.72745H32.7915Z" fill="#003398"/>
<path d="M27.0914 64.545C27.705 64.545 28.2935 64.2982 28.7274 63.8589C29.1613 63.4196 29.4051 62.8239 29.4051 62.2026C29.4051 61.5794 29.162 60.9813 28.7287 60.5386C28.2954 60.0959 27.7069 59.8444 27.0914 59.8388H21.1598C20.8532 59.8388 20.5497 59.9 20.2664 60.0188C19.9831 60.1376 19.7258 60.3117 19.509 60.5312C19.2922 60.7507 19.1202 61.0112 19.0028 61.298C18.8855 61.5848 18.8251 61.8922 18.8251 62.2026C18.8251 62.5121 18.8857 62.8183 19.0033 63.1039C19.1209 63.3895 19.2932 63.6488 19.5102 63.8666C19.7273 64.0844 19.9849 64.2564 20.268 64.3728C20.5511 64.4893 20.8542 64.5478 21.1598 64.545H27.0914Z" fill="#003398"/>
<path d="M69.4741 48.0841C69.2516 47.8179 68.9746 47.6038 68.6623 47.4567C68.3499 47.3096 68.0097 47.233 67.6653 47.2322H52.1004C51.4812 47.2322 50.8873 47.4813 50.4494 47.9246C50.0116 48.3679 49.7656 48.969 49.7656 49.5959C49.7656 50.2228 50.0116 50.8241 50.4494 51.2674C50.8873 51.7107 51.4812 51.9596 52.1004 51.9596H64.7206L62.6172 62.9906H47.8936L45.1382 46.0823C45.0486 45.5255 44.7671 45.0188 44.3435 44.6524C43.9199 44.2859 43.3817 44.0833 42.8245 44.0806H21.1598C20.8524 44.0778 20.5476 44.1369 20.2631 44.2546C19.9786 44.3724 19.7201 44.5465 19.5027 44.7666C19.2853 44.9867 19.1134 45.2484 18.9971 45.5364C18.8807 45.8245 18.8223 46.1331 18.8251 46.4443C18.8307 47.0675 19.0791 47.6633 19.5163 48.102C19.9536 48.5407 20.5442 48.7867 21.1598 48.7867H40.8263L43.6448 65.7162C43.7298 66.2713 44.0072 66.7775 44.4273 67.1443C44.8474 67.5111 45.3827 67.7145 45.9375 67.718H64.5943C65.1388 67.713 65.6648 67.5172 66.0827 67.1639C66.5007 66.8106 66.785 66.3217 66.887 65.7802L70.021 50.0432C70.074 49.696 70.0526 49.3414 69.9582 49.0034C69.8638 48.6653 69.6987 48.3518 69.4741 48.0841Z" fill="#003398"/>
<path d="M49.0084 69.2938H45.8954C45.2798 69.2937 44.6891 69.5399 44.2519 69.9786C43.8146 70.4173 43.5662 71.0131 43.5606 71.6363C43.5606 71.9467 43.621 72.254 43.7384 72.5408C43.8557 72.8276 44.0277 73.0881 44.2445 73.3076C44.4613 73.5271 44.7187 73.7013 45.0019 73.8201C45.2852 73.9389 45.5888 74 45.8954 74H49.0084C49.314 74 49.6166 73.9388 49.8986 73.8197C50.1807 73.7007 50.4368 73.5261 50.6519 73.3063C50.867 73.0865 51.037 72.8259 51.152 72.5392C51.267 72.2525 51.3248 71.9457 51.3221 71.6363C51.3221 71.015 51.0783 70.4192 50.6444 69.9799C50.2105 69.5406 49.622 69.2938 49.0084 69.2938Z" fill="#003398"/>
<path d="M64.5522 69.2937H61.4603C61.1537 69.2909 60.8496 69.3494 60.5652 69.4656C60.2809 69.5818 60.0219 69.7535 59.8032 69.971C59.5844 70.1885 59.4102 70.4475 59.2903 70.7332C59.1704 71.0189 59.1073 71.3258 59.1045 71.6363C59.1045 71.9485 59.1656 72.2575 59.2843 72.5457C59.4029 72.8339 59.5768 73.0955 59.7958 73.3153C60.0148 73.535 60.2747 73.7087 60.5603 73.8262C60.846 73.9437 61.1519 74.0028 61.4603 74H64.5522C65.1714 74 65.7653 73.7509 66.2031 73.3076C66.641 72.8643 66.887 72.2632 66.887 71.6363C66.8815 71.0131 66.633 70.4173 66.1958 69.9786C65.7585 69.5399 65.1678 69.2937 64.5522 69.2937Z" fill="#003398"/>
</g>
<defs>
<clipPath id="clip0_30:2722">
<rect width="70" height="74" fill="white"/>
</clipPath>
</defs>
</svg>
