<svg width="32" height="40" viewBox="0 0 26 38" fill="none" xmlns="http://www.w3.org/2000/svg">
<g clip-path="url(#clip0_30:2766)">
<path d="M25.2108 6.12378H6.54636V32.2347H25.2108V6.12378Z" fill="#DDB1E4"/>
<path d="M26 38H5.75718V5.33569H26V38ZM7.33557 36.4237H24.4216V6.91197H7.33557V36.4237Z" fill="#123291"/>
<path d="M6.54636 32.2349H25.2108" stroke="#123291" stroke-linejoin="bevel"/>
<path d="M14.8803 34.7725H16.873" stroke="#123291" stroke-linejoin="bevel"/>
<path d="M3.31462 0.429443L5.42966 3.66474" stroke="#123291" stroke-width="2" stroke-miterlimit="10"/>
<path d="M0.260445 4.24023L3.91047 5.51701" stroke="#123291" stroke-width="2" stroke-miterlimit="10"/>
<path d="M19.6943 18.1745C17.1887 20.0187 14.4265 20.0266 12.0668 18.1745C11.9901 18.1145 11.8958 18.0813 11.7985 18.0799H11.2618C11.1959 18.0799 11.1326 18.1061 11.086 18.1526C11.0394 18.1992 11.0132 18.2623 11.0132 18.3282V21.2285H11.9602V19.3055C13.0962 20.0912 14.4416 20.5194 15.8233 20.535H15.8549C17.2638 20.5027 18.6336 20.0663 19.8009 19.2779V21.2206H20.7479V18.3203C20.7479 18.2544 20.7217 18.1913 20.6751 18.1447C20.6285 18.0982 20.5652 18.072 20.4993 18.072H19.9429C19.8504 18.0731 19.7606 18.1035 19.6864 18.1587" fill="#273B87"/>
<path d="M19.6943 18.1745C17.1887 20.0187 14.4265 20.0266 12.0668 18.1745C11.9901 18.1145 11.8958 18.0813 11.7985 18.0799H11.2618C11.1959 18.0799 11.1326 18.1061 11.086 18.1526C11.0394 18.1992 11.0132 18.2623 11.0132 18.3282V21.2285H11.9602V19.3055C13.0962 20.0912 14.4416 20.5194 15.8233 20.535H15.8549C17.2638 20.5027 18.6336 20.0663 19.8009 19.2779V21.2206H20.7479V18.3203C20.7479 18.2544 20.7217 18.1913 20.6751 18.1447C20.6285 18.0982 20.5652 18.072 20.4993 18.072H19.9429C19.8504 18.0731 19.7606 18.1035 19.6864 18.1587" stroke="#123291" stroke-width="0.5" stroke-miterlimit="10"/>
</g>
<defs>
<clipPath id="clip0_30:2766">
<rect width="26" height="38" fill="white"/>
</clipPath>
</defs>
</svg>
