<svg width="132" height="24" viewBox="0 0 132 24" fill="none" xmlns="http://www.w3.org/2000/svg">
<path d="M114.417 17.4675C115.626 18.195 117.23 18.6025 119.112 18.6025C120.994 18.6025 122.595 18.1925 123.807 17.4675H123.809L125.885 21.46H130.396L119.738 2.47249C119.468 1.99749 118.761 1.99749 118.491 2.47249L107.833 21.46H112.344L114.42 17.4675H114.417ZM122.345 14.6575C121.641 15.275 120.512 15.5775 119.112 15.5775C117.715 15.5775 116.585 15.27 115.884 14.645H115.887L119.115 8.43249L122.347 14.655H122.345V14.6575Z" fill="#0C256E"/>
<path d="M103.447 10.855C104.881 10.0325 105.703 8.72001 105.703 7.12251C105.703 3.95751 103.022 1.89751 99.0413 1.89751H90.6675C89.956 1.89751 89.3785 2.45751 89.3785 3.14751V21.46H99.8637C104.084 21.46 106.897 19.17 106.897 15.745C106.899 13.48 105.597 11.73 103.447 10.855ZM93.5731 6.09001C93.5731 5.70751 93.8928 5.39751 94.2872 5.39751H98.8299C100.369 5.39751 101.377 6.27251 101.377 7.61001C101.377 8.97501 100.343 9.87501 98.8299 9.87501H93.5731V6.09001ZM99.6523 17.9575H93.5731V13.7075C93.5731 13.325 93.8928 13.015 94.2872 13.015H99.6523C101.403 13.015 102.545 14.0175 102.545 15.485C102.545 16.98 101.405 17.9575 99.6523 17.9575Z" fill="#0C256E"/>
<path d="M80.3163 5.5625C69.8801 13.035 58.3507 13.0575 48.5151 5.6275C48.1955 5.385 47.801 5.2475 47.3937 5.2475H45.1043C44.5345 5.2475 44.073 5.695 44.073 6.2475V17.9925H48.0201V10.2075C53.0501 13.475 58.5621 15.1925 64.1308 15.1925C64.1747 15.1925 64.2185 15.1925 64.2623 15.1925C69.8543 15.165 75.5159 13.41 80.7933 10.0975V17.9575H84.7404V6.2125C84.7404 5.66 84.2789 5.2125 83.7091 5.2125H81.394C81.0073 5.2125 80.6309 5.3375 80.3163 5.5625Z" fill="#FF7678"/>
<path d="M26.498 17.4675C27.7071 18.195 29.3107 18.6025 31.1927 18.6025C33.0747 18.6025 34.6758 18.1925 35.8875 17.4675H35.8901L37.9655 21.46H42.4772L31.8166 2.4725C31.5459 1.9975 30.8395 1.9975 30.5688 2.4725L19.9134 21.46H24.4251L26.5005 17.4675H26.498ZM34.4257 14.6575C33.7219 15.275 32.5926 15.5775 31.1927 15.5775C29.7954 15.5775 28.6662 15.27 27.9649 14.645H27.9675L31.1953 8.4325L34.4283 14.655H34.4257V14.6575Z" fill="#0C256E"/>
<path d="M15.6905 10.855C17.1239 10.0325 17.9463 8.72001 17.9463 7.12251C17.9463 3.95751 15.2651 1.89751 11.2845 1.89751H2.9133C2.20174 1.89751 1.62424 2.45751 1.62424 3.14751V21.46H12.1095C16.3299 21.46 19.1426 19.17 19.1426 15.745C19.1426 13.48 17.8406 11.73 15.6905 10.855ZM5.81627 6.09001C5.81627 5.70751 6.13596 5.39751 6.53041 5.39751H11.0731C12.6122 5.39751 13.6203 6.27251 13.6203 7.61001C13.6203 8.97501 12.5838 9.87501 11.0731 9.87501H5.81627V6.09001ZM11.8955 17.9575H5.81627V13.7075C5.81627 13.325 6.13596 13.015 6.53041 13.015H11.8955C13.646 13.015 14.7881 14.0175 14.7881 15.485C14.7881 16.98 13.6486 17.9575 11.8955 17.9575Z" fill="#0C256E"/>
</svg>
